STARTFONT 2.1
COMMENT
COMMENT Converted from OpenType font "TimesNewRomanPSMT.otf" by "otf2bdf 3.0".
COMMENT
FONT -FreeType-Times New Roman-Medium-R-Normal--28-200-100-100-P-135-ISO10646-1
SIZE 20 100 100
FONTBOUNDINGBOX 47 37 -16 -9
STARTPROPERTIES 19
FOUNDRY "FreeType"
FAMILY_NAME "Times New Roman"
WEIGHT_NAME "Medium"
SLANT "R"
SETWIDTH_NAME "Normal"
ADD_STYLE_NAME ""
PIXEL_SIZE 28
POINT_SIZE 200
RESOLUTION_X 100
RESOLUTION_Y 100
SPACING "P"
AVERAGE_WIDTH 135
CHARSET_REGISTRY "ISO10646"
CHARSET_ENCODING "1"
FONT_ASCENT 24
FONT_DESCENT 6
COPYRIGHT "© 2006 The Monotype Corporation. All Rights Reserved."
_OTF_FONTFILE "TimesNewRomanPSMT.otf"
_OTF_PSNAME "TimesNewRomanPSMT"
ENDPROPERTIES
CHARS 1425
STARTCHAR 0020
ENCODING 32
SWIDTH 252 0
DWIDTH 7 0
BBX 0 0 0 0
BITMAP
ENDCHAR
STARTCHAR 0021
ENCODING 33
SWIDTH 324 0
DWIDTH 9 0
BBX 3 19 3 0
BITMAP
40
E0
E0
E0
E0
E0
60
60
60
40
40
40
40
40
00
00
40
E0
E0
ENDCHAR
STARTCHAR 0022
ENCODING 34
SWIDTH 396 0
DWIDTH 11 0
BBX 7 8 2 11
BITMAP
C6
E6
C6
C6
C6
C6
46
42
ENDCHAR
STARTCHAR 0023
ENCODING 35
SWIDTH 504 0
DWIDTH 14 0
BBX 12 19 1 0
BITMAP
0C20
0820
0820
0820
0840
1840
FFF0
1040
1040
1080
3080
2080
FFF0
2180
2100
4100
4100
4100
4300
ENDCHAR
STARTCHAR 0024
ENCODING 36
SWIDTH 504 0
DWIDTH 14 0
BBX 11 22 1 -2
BITMAP
0400
0E00
35E0
6460
6420
E420
6420
7400
7C00
3E00
0F00
0780
05C0
04E0
0460
8460
8460
C460
C4C0
7F80
0400
0400
ENDCHAR
STARTCHAR 0025
ENCODING 37
SWIDTH 828 0
DWIDTH 23 0
BBX 21 20 1 -1
BITMAP
1800C0
660080
460100
C30300
C30200
C30400
C30C00
C60800
661000
3C3000
0021E0
004330
008318
008318
010718
020718
060318
040318
080130
1800C0
ENDCHAR
STARTCHAR 0026
ENCODING 38
SWIDTH 792 0
DWIDTH 22 0
BBX 20 19 1 0
BITMAP
00E000
033000
061800
061800
061800
061000
072000
07C7E0
038380
0F8300
19C300
31C200
60E400
E0FC00
E07800
E03810
F07C10
78CFE0
3F07C0
ENDCHAR
STARTCHAR 0027
ENCODING 39
SWIDTH 180 0
DWIDTH 5 0
BBX 3 8 1 11
BITMAP
40
E0
E0
E0
C0
40
40
40
ENDCHAR
STARTCHAR 0028
ENCODING 40
SWIDTH 324 0
DWIDTH 9 0
BBX 8 25 1 -6
BITMAP
02
04
08
10
30
30
60
60
60
E0
E0
E0
E0
E0
E0
E0
60
60
70
30
10
18
08
04
03
ENDCHAR
STARTCHAR 0029
ENCODING 41
SWIDTH 324 0
DWIDTH 9 0
BBX 7 25 1 -6
BITMAP
80
40
20
10
18
0C
0C
0C
0E
0E
0E
0E
0E
0E
0E
0E
0E
0C
0C
08
18
10
20
40
80
ENDCHAR
STARTCHAR 002A
ENCODING 42
SWIDTH 504 0
DWIDTH 14 0
BBX 10 11 2 8
BITMAP
0C00
0C00
CCC0
EDC0
7B00
0C00
7B80
EDC0
0C80
0C00
0C00
ENDCHAR
STARTCHAR 002B
ENCODING 43
SWIDTH 576 0
DWIDTH 16 0
BBX 14 15 1 2
BITMAP
0200
0200
0200
0200
0200
0200
0200
FFFC
0200
0200
0200
0200
0200
0200
0200
ENDCHAR
STARTCHAR 002C
ENCODING 44
SWIDTH 252 0
DWIDTH 7 0
BBX 5 8 1 -5
BITMAP
20
70
78
18
10
10
20
C0
ENDCHAR
STARTCHAR 002D
ENCODING 45
SWIDTH 324 0
DWIDTH 9 0
BBX 7 2 1 5
BITMAP
FE
FE
ENDCHAR
STARTCHAR 002E
ENCODING 46
SWIDTH 252 0
DWIDTH 7 0
BBX 3 3 2 0
BITMAP
40
E0
E0
ENDCHAR
STARTCHAR 002F
ENCODING 47
SWIDTH 288 0
DWIDTH 8 0
BBX 8 19 0 0
BITMAP
03
02
02
04
04
04
08
08
08
10
10
10
20
20
20
40
40
40
80
ENDCHAR
STARTCHAR 0030
ENCODING 48
SWIDTH 504 0
DWIDTH 14 0
BBX 12 19 1 0
BITMAP
0600
1980
30C0
60E0
6060
6060
E070
E070
E070
E070
E070
E070
E070
E060
6060
6060
30C0
30C0
1F00
ENDCHAR
STARTCHAR 0031
ENCODING 49
SWIDTH 504 0
DWIDTH 14 0
BBX 7 19 3 0
BITMAP
08
38
F8
18
18
18
18
18
18
18
18
18
18
18
18
18
18
18
7E
ENDCHAR
STARTCHAR 0032
ENCODING 50
SWIDTH 504 0
DWIDTH 14 0
BBX 12 19 1 0
BITMAP
0E00
3F80
63C0
41C0
80E0
00E0
00C0
00C0
00C0
0080
0100
0300
0200
0400
0800
1010
2020
7FE0
FFE0
ENDCHAR
STARTCHAR 0033
ENCODING 51
SWIDTH 504 0
DWIDTH 14 0
BBX 11 19 1 0
BITMAP
0E00
3F80
6380
81C0
01C0
0180
0180
0100
0300
1F80
03C0
01C0
00E0
00E0
0040
00C0
0080
E180
FE00
ENDCHAR
STARTCHAR 0034
ENCODING 52
SWIDTH 504 0
DWIDTH 14 0
BBX 13 19 0 0
BITMAP
0040
00C0
01C0
01C0
02C0
06C0
04C0
08C0
10C0
30C0
20C0
40C0
FFF8
FFF8
00C0
00C0
00C0
00C0
00C0
ENDCHAR
STARTCHAR 0035
ENCODING 53
SWIDTH 504 0
DWIDTH 14 0
BBX 11 18 1 0
BITMAP
0FE0
0FC0
1000
1000
3000
3E00
7F00
0780
01C0
00E0
00E0
0060
0060
0040
0040
0080
E100
7E00
ENDCHAR
STARTCHAR 0036
ENCODING 54
SWIDTH 504 0
DWIDTH 14 0
BBX 12 19 1 0
BITMAP
00E0
0300
0600
0C00
1800
3000
7000
7100
6FC0
F0E0
E060
E070
E070
E070
6070
6060
7060
30C0
1F80
ENDCHAR
STARTCHAR 0037
ENCODING 55
SWIDTH 504 0
DWIDTH 14 0
BBX 12 18 1 0
BITMAP
7FF0
7FE0
4060
8060
0040
00C0
00C0
0080
0180
0100
0100
0300
0200
0200
0600
0400
0400
0C00
ENDCHAR
STARTCHAR 0038
ENCODING 56
SWIDTH 504 0
DWIDTH 14 0
BBX 10 19 2 0
BITMAP
1E00
6180
4080
C0C0
C0C0
C0C0
E180
7B00
3E00
1E00
3F00
6780
C1C0
C1C0
C0C0
C0C0
C0C0
6080
3F00
ENDCHAR
STARTCHAR 0039
ENCODING 57
SWIDTH 504 0
DWIDTH 14 0
BBX 12 19 1 0
BITMAP
0E00
3180
60C0
60E0
E060
E060
E070
E070
E070
6070
70E0
3F60
00E0
00C0
01C0
0180
0300
0600
7800
ENDCHAR
STARTCHAR 003A
ENCODING 58
SWIDTH 288 0
DWIDTH 8 0
BBX 3 13 2 0
BITMAP
60
E0
60
00
00
00
00
00
00
00
00
E0
E0
ENDCHAR
STARTCHAR 003B
ENCODING 59
SWIDTH 288 0
DWIDTH 8 0
BBX 4 18 2 -5
BITMAP
60
E0
60
00
00
00
00
00
00
00
60
F0
F0
10
10
20
40
80
ENDCHAR
STARTCHAR 003C
ENCODING 60
SWIDTH 576 0
DWIDTH 16 0
BBX 14 13 1 3
BITMAP
0004
001C
0060
0380
0E00
3000
C000
E000
1C00
0700
01C0
0030
000C
ENDCHAR
STARTCHAR 003D
ENCODING 61
SWIDTH 576 0
DWIDTH 16 0
BBX 14 6 1 6
BITMAP
FFFC
0000
0000
0000
FFFC
FFFC
ENDCHAR
STARTCHAR 003E
ENCODING 62
SWIDTH 576 0
DWIDTH 16 0
BBX 14 12 1 4
BITMAP
E000
3800
0E00
01C0
0070
001C
0018
00E0
0380
0C00
7000
C000
ENDCHAR
STARTCHAR 003F
ENCODING 63
SWIDTH 432 0
DWIDTH 12 0
BBX 10 19 1 0
BITMAP
1E00
6380
41C0
C0C0
E0C0
60C0
01C0
0180
0100
0300
0200
0400
0400
0800
0000
0000
0000
0C00
0C00
ENDCHAR
STARTCHAR 0040
ENCODING 64
SWIDTH 936 0
DWIDTH 26 0
BBX 24 25 1 -6
BITMAP
007F80
018060
060010
0C0008
180004
300004
201EC2
6022C2
406182
40C182
418182
C18302
C30304
C30304
C30708
430E08
431610
43E761
208182
200002
100004
080008
040030
0300C0
00FF00
ENDCHAR
STARTCHAR 0041
ENCODING 65
SWIDTH 720 0
DWIDTH 20 0
BBX 20 18 0 1
BITMAP
006000
006000
00F000
00F000
01B000
013800
013800
021C00
021C00
060E00
040E00
0FFE00
080700
080700
100380
100380
3003C0
FC0FF0
ENDCHAR
STARTCHAR 0042
ENCODING 66
SWIDTH 684 0
DWIDTH 19 0
BBX 17 18 0 0
BITMAP
7FFC00
1C0E00
1C0700
1C0700
1C0700
1C0700
1C0700
1C0E00
1FF800
1C1E00
1C0700
1C0780
1C0380
1C0380
1C0380
1C0700
1C0E00
FFF800
ENDCHAR
STARTCHAR 0043
ENCODING 67
SWIDTH 684 0
DWIDTH 19 0
BBX 16 19 1 0
BITMAP
01F1
070F
1C07
3803
3001
7001
7000
E000
E000
E000
E000
E000
E000
7000
7000
3801
3802
1E04
07F8
ENDCHAR
STARTCHAR 0044
ENCODING 68
SWIDTH 720 0
DWIDTH 20 0
BBX 19 18 0 0
BITMAP
7FFC00
1C0F00
1C0780
1C03C0
1C01C0
1C01E0
1C00E0
1C00E0
1C00E0
1C00E0
1C00E0
1C00E0
1C01C0
1C01C0
1C0380
1C0700
1C0E00
FFF800
ENDCHAR
STARTCHAR 0045
ENCODING 69
SWIDTH 612 0
DWIDTH 17 0
BBX 15 18 1 0
BITMAP
FFFC
3804
3804
3804
3800
3800
3810
3810
3FF0
3810
3810
3800
3800
3800
3802
3806
380C
FFFC
ENDCHAR
STARTCHAR 0046
ENCODING 70
SWIDTH 540 0
DWIDTH 15 0
BBX 14 18 0 0
BITMAP
7FFC
1C04
1C04
1C00
1C00
1C10
1C10
1C30
1FF0
1C10
1C10
1C10
1C00
1C00
1C00
1C00
1C00
FF00
ENDCHAR
STARTCHAR 0047
ENCODING 71
SWIDTH 720 0
DWIDTH 20 0
BBX 18 19 1 0
BITMAP
01F000
070F00
1C0300
380100
300100
700100
600000
E00000
E00000
E00FC0
E00380
E00380
F00380
700380
700380
380380
3C0380
0E0380
07FE00
ENDCHAR
STARTCHAR 0048
ENCODING 72
SWIDTH 720 0
DWIDTH 20 0
BBX 19 18 0 0
BITMAP
7F0FE0
1C0380
1C0380
1C0380
1C0380
1C0380
1C0380
1C0380
1FFF80
1C0380
1C0380
1C0380
1C0380
1C0380
1C0380
1C0380
1C0380
FF0FE0
ENDCHAR
STARTCHAR 0049
ENCODING 73
SWIDTH 324 0
DWIDTH 9 0
BBX 8 18 1 0
BITMAP
FE
38
38
38
38
38
38
38
38
38
38
38
38
38
38
38
38
FF
ENDCHAR
STARTCHAR 004A
ENCODING 74
SWIDTH 396 0
DWIDTH 11 0
BBX 9 18 1 0
BITMAP
3F80
0E00
0E00
0E00
0E00
0E00
0E00
0E00
0E00
0E00
0E00
0E00
0E00
0E00
0E00
CC00
EC00
F800
ENDCHAR
STARTCHAR 004B
ENCODING 75
SWIDTH 720 0
DWIDTH 20 0
BBX 20 18 0 0
BITMAP
7F0F80
1C0600
1C0C00
1C1800
1C3000
1C6000
1CC000
1D8000
1F8000
1FC000
1DE000
1CF000
1C7800
1C3C00
1C1E00
1C0F00
1C0780
FF0FF0
ENDCHAR
STARTCHAR 004C
ENCODING 76
SWIDTH 612 0
DWIDTH 17 0
BBX 15 18 1 0
BITMAP
FE00
3800
3800
3800
3800
3800
3800
3800
3800
3800
3800
3800
3800
3800
3802
3806
380C
FFFC
ENDCHAR
STARTCHAR 004D
ENCODING 77
SWIDTH 900 0
DWIDTH 25 0
BBX 24 18 0 0
BITMAP
7C003F
1E003C
1E003C
16005C
17005C
1300DC
13809C
11819C
11C11C
11C31C
10E21C
10E61C
10741C
10741C
10381C
10381C
10181C
FE10FF
ENDCHAR
STARTCHAR 004E
ENCODING 78
SWIDTH 720 0
DWIDTH 20 0
BBX 19 18 0 0
BITMAP
F803E0
1C0080
1E0080
1F0080
178080
138080
11C080
10E080
107080
107880
103C80
101C80
100E80
100780
100780
100380
180180
7E0080
ENDCHAR
STARTCHAR 004F
ENCODING 79
SWIDTH 720 0
DWIDTH 20 0
BBX 18 19 1 0
BITMAP
01F000
0E3C00
180E00
380700
700380
700380
E001C0
E001C0
E001C0
E001C0
E001C0
E001C0
E001C0
700180
700380
300300
380600
1C0C00
07F800
ENDCHAR
STARTCHAR 0050
ENCODING 80
SWIDTH 540 0
DWIDTH 15 0
BBX 14 18 0 0
BITMAP
7FF0
1C38
1C1C
1C1C
1C1C
1C1C
1C1C
1C1C
1C78
1FE0
1C00
1C00
1C00
1C00
1C00
1C00
1C00
FF00
ENDCHAR
STARTCHAR 0051
ENCODING 81
SWIDTH 720 0
DWIDTH 20 0
BBX 18 24 1 -5
BITMAP
01F000
0F1C00
180E00
380700
700380
700380
6001C0
E001C0
E001C0
E001C0
E001C0
E001C0
E001C0
700180
700380
300300
380700
1C0C00
07F800
01E000
00F000
007800
001C00
000780
ENDCHAR
STARTCHAR 0052
ENCODING 82
SWIDTH 684 0
DWIDTH 19 0
BBX 19 18 0 0
BITMAP
7FF800
1C3C00
1C1C00
1C0E00
1C0E00
1C0E00
1C1C00
1C3C00
1DF000
1EE000
1CE000
1C7000
1C3800
1C1C00
1C1C00
1C0E00
1C0700
FF07E0
ENDCHAR
STARTCHAR 0053
ENCODING 83
SWIDTH 540 0
DWIDTH 15 0
BBX 12 19 2 0
BITMAP
1E20
73E0
40E0
C060
C020
C020
F020
F800
7E00
1F80
0FC0
03E0
00F0
8070
8070
8030
C060
E060
BFC0
ENDCHAR
STARTCHAR 0054
ENCODING 84
SWIDTH 612 0
DWIDTH 17 0
BBX 15 18 1 0
BITMAP
FFFE
8382
8382
0380
0380
0380
0380
0380
0380
0380
0380
0380
0380
0380
0380
0380
0380
0FE0
ENDCHAR
STARTCHAR 0055
ENCODING 85
SWIDTH 720 0
DWIDTH 20 0
BBX 18 18 1 0
BITMAP
FE07C0
380100
300100
300100
300100
300100
300100
300100
300100
300100
300100
300100
380100
380100
380300
180200
1C0C00
07F800
ENDCHAR
STARTCHAR 0056
ENCODING 86
SWIDTH 720 0
DWIDTH 20 0
BBX 18 18 1 0
BITMAP
FC03C0
380180
380100
180300
1C0200
1C0200
0E0400
0E0400
070C00
070800
030800
039000
039000
01F000
01E000
00E000
00C000
004000
ENDCHAR
STARTCHAR 0057
ENCODING 87
SWIDTH 936 0
DWIDTH 26 0
BBX 25 18 1 0
BITMAP
FC7E0F80
30380200
381C0600
381C0400
181C0400
1C1E0800
1C1E0800
0C160800
0E371000
0E271000
06231000
0763A000
0743A000
03C1A000
0381C000
0181C000
0180C000
01008000
ENDCHAR
STARTCHAR 0058
ENCODING 88
SWIDTH 720 0
DWIDTH 20 0
BBX 20 18 0 0
BITMAP
7F87E0
0E0100
070300
070600
038400
01C800
01D000
00F000
007000
007000
00B800
011C00
031C00
060E00
040700
080780
180380
FE0FF0
ENDCHAR
STARTCHAR 0059
ENCODING 89
SWIDTH 720 0
DWIDTH 20 0
BBX 18 18 1 0
BITMAP
FE07C0
380300
3C0200
1C0400
0E0400
0E0800
071800
039000
03A000
01E000
00C000
00C000
00C000
00C000
00C000
00C000
01C000
07F800
ENDCHAR
STARTCHAR 005A
ENCODING 90
SWIDTH 612 0
DWIDTH 17 0
BBX 16 18 0 0
BITMAP
3FFE
200E
201C
2038
0078
0070
00E0
01C0
01C0
0380
0700
0700
0E00
1C00
3C01
3801
7007
FFFE
ENDCHAR
STARTCHAR 005B
ENCODING 91
SWIDTH 324 0
DWIDTH 9 0
BBX 6 25 2 -6
BITMAP
FC
C0
C0
C0
C0
C0
C0
C0
C0
C0
C0
C0
C0
C0
C0
C0
C0
C0
C0
C0
C0
C0
C0
FC
FC
ENDCHAR
STARTCHAR 005C
ENCODING 92
SWIDTH 288 0
DWIDTH 8 0
BBX 7 19 0 0
BITMAP
80
40
40
40
20
20
20
10
10
10
08
08
08
04
04
04
02
02
02
ENDCHAR
STARTCHAR 005D
ENCODING 93
SWIDTH 324 0
DWIDTH 9 0
BBX 6 25 1 -6
BITMAP
FC
0C
0C
0C
0C
0C
0C
0C
0C
0C
0C
0C
0C
0C
0C
0C
0C
0C
0C
0C
0C
0C
0C
FC
FC
ENDCHAR
STARTCHAR 005E
ENCODING 94
SWIDTH 468 0
DWIDTH 13 0
BBX 11 10 1 9
BITMAP
0400
0600
0A00
1B00
1100
2080
2080
4040
C060
8020
ENDCHAR
STARTCHAR 005F
ENCODING 95
SWIDTH 504 0
DWIDTH 14 0
BBX 14 1 0 -6
BITMAP
FFFC
ENDCHAR
STARTCHAR 0060
ENCODING 96
SWIDTH 324 0
DWIDTH 9 0
BBX 4 5 2 14
BITMAP
E0
60
20
30
10
ENDCHAR
STARTCHAR 0061
ENCODING 97
SWIDTH 432 0
DWIDTH 12 0
BBX 11 13 1 0
BITMAP
1E00
6380
6180
E180
4180
0780
1980
6180
C180
C180
E180
E7E0
79C0
ENDCHAR
STARTCHAR 0062
ENCODING 98
SWIDTH 504 0
DWIDTH 14 0
BBX 13 19 0 0
BITMAP
3000
F000
3000
3000
3000
3000
3180
37E0
3CF0
3030
3038
3038
3018
3018
3018
3030
3030
3860
1FC0
ENDCHAR
STARTCHAR 0063
ENCODING 99
SWIDTH 432 0
DWIDTH 12 0
BBX 10 13 1 0
BITMAP
0F00
3180
61C0
41C0
C000
C000
C000
C000
E000
E040
70C0
7F80
3F00
ENDCHAR
STARTCHAR 0064
ENCODING 100
SWIDTH 504 0
DWIDTH 14 0
BBX 13 19 1 0
BITMAP
00E0
01E0
0060
0060
0060
0060
0F60
31E0
20E0
60E0
E060
C060
C060
C060
E060
E060
7060
78F8
3F60
ENDCHAR
STARTCHAR 0065
ENCODING 101
SWIDTH 432 0
DWIDTH 12 0
BBX 11 13 1 0
BITMAP
0F00
3380
61C0
40C0
FFE0
C000
C000
C000
E020
E040
7040
7F80
1F00
ENDCHAR
STARTCHAR 0066
ENCODING 102
SWIDTH 324 0
DWIDTH 9 0
BBX 11 19 1 0
BITMAP
07C0
08E0
1860
1800
1800
1800
3800
FF00
3800
3800
3800
3800
3800
3800
3800
3800
3800
3800
7E00
ENDCHAR
STARTCHAR 0067
ENCODING 103
SWIDTH 504 0
DWIDTH 14 0
BBX 12 19 1 -6
BITMAP
0F00
31F0
60C0
60C0
60E0
60E0
70C0
30C0
1F00
2000
6000
7FC0
3FF0
2070
4010
C010
E020
FFC0
3F00
ENDCHAR
STARTCHAR 0068
ENCODING 104
SWIDTH 504 0
DWIDTH 14 0
BBX 14 19 0 0
BITMAP
3800
F800
3800
3800
3800
3800
38C0
3BE0
3C70
3870
3830
3830
3830
3830
3830
3830
3830
3830
FCFC
ENDCHAR
STARTCHAR 0069
ENCODING 105
SWIDTH 288 0
DWIDTH 8 0
BBX 6 19 1 0
BITMAP
30
30
00
00
00
00
10
F0
30
30
30
30
30
30
30
30
30
30
FC
ENDCHAR
STARTCHAR 006A
ENCODING 106
SWIDTH 288 0
DWIDTH 8 0
BBX 7 25 -2 -6
BITMAP
06
06
00
00
00
00
02
1E
06
06
06
06
06
06
06
06
06
06
06
06
06
06
04
EC
F0
ENDCHAR
STARTCHAR 006B
ENCODING 107
SWIDTH 504 0
DWIDTH 14 0
BBX 14 19 0 0
BITMAP
3800
F800
3800
3800
3800
3800
3800
3878
38C0
3980
3B00
3E00
3F00
3B00
3B80
39C0
38E0
3870
FCFC
ENDCHAR
STARTCHAR 006C
ENCODING 108
SWIDTH 288 0
DWIDTH 8 0
BBX 6 19 1 0
BITMAP
30
F0
30
30
30
30
30
30
30
30
30
30
30
30
30
30
30
30
FC
ENDCHAR
STARTCHAR 006D
ENCODING 109
SWIDTH 792 0
DWIDTH 22 0
BBX 21 13 0 0
BITMAP
19C1C0
7BE7E0
3C7860
383070
383070
383070
383070
383070
383070
383070
383070
383070
FCFCF8
ENDCHAR
STARTCHAR 006E
ENCODING 110
SWIDTH 504 0
DWIDTH 14 0
BBX 13 13 1 0
BITMAP
2380
E7C0
68E0
70E0
6060
6060
6060
6060
6060
6060
7060
7060
F9F8
ENDCHAR
STARTCHAR 006F
ENCODING 111
SWIDTH 504 0
DWIDTH 14 0
BBX 12 13 1 0
BITMAP
0F00
31C0
60E0
6060
E070
C070
E070
E070
E070
E060
7060
30C0
1F80
ENDCHAR
STARTCHAR 0070
ENCODING 112
SWIDTH 504 0
DWIDTH 14 0
BBX 13 19 0 -6
BITMAP
11C0
73E0
B4F0
3878
3038
3038
3038
3018
3018
3030
3030
3860
36C0
3100
3000
3000
3000
3000
FC00
ENDCHAR
STARTCHAR 0071
ENCODING 113
SWIDTH 504 0
DWIDTH 14 0
BBX 13 19 1 -6
BITMAP
0720
11E0
20E0
6060
C060
C060
C060
C060
C060
E060
70E0
7F60
3E60
0060
0060
0060
0060
0060
01F8
ENDCHAR
STARTCHAR 0072
ENCODING 114
SWIDTH 324 0
DWIDTH 9 0
BBX 9 13 0 0
BITMAP
1900
7B80
3D80
3800
3800
3800
3800
3800
3800
3800
3800
3800
FE00
ENDCHAR
STARTCHAR 0073
ENCODING 115
SWIDTH 396 0
DWIDTH 11 0
BBX 9 13 1 0
BITMAP
1D00
6300
4100
C100
E000
7800
3E00
1F00
0780
8380
8180
C100
FE00
ENDCHAR
STARTCHAR 0074
ENCODING 116
SWIDTH 288 0
DWIDTH 8 0
BBX 7 16 0 1
BITMAP
10
10
30
70
FE
30
30
30
30
30
30
30
30
38
3A
1C
ENDCHAR
STARTCHAR 0075
ENCODING 117
SWIDTH 504 0
DWIDTH 14 0
BBX 13 12 1 0
BITMAP
E1E0
60E0
6060
6060
6060
6060
6060
6060
6060
70E0
3B68
3E70
ENDCHAR
STARTCHAR 0076
ENCODING 118
SWIDTH 504 0
DWIDTH 14 0
BBX 12 12 1 0
BITMAP
F870
7020
3040
3040
3840
1880
1C80
0D00
0F00
0700
0600
0600
ENDCHAR
STARTCHAR 0077
ENCODING 119
SWIDTH 720 0
DWIDTH 20 0
BBX 18 12 1 0
BITMAP
F1F1C0
60C080
70E080
306100
30F100
38B100
193200
1D3A00
0E1C00
0E1C00
0C0C00
040800
ENDCHAR
STARTCHAR 0078
ENCODING 120
SWIDTH 504 0
DWIDTH 14 0
BBX 14 12 0 0
BITMAP
7C70
1C40
1C80
0F00
0700
0700
0780
09C0
08C0
10E0
2070
F0FC
ENDCHAR
STARTCHAR 0079
ENCODING 121
SWIDTH 504 0
DWIDTH 14 0
BBX 12 18 1 -6
BITMAP
F070
7020
3060
3040
3840
1880
1C80
0D80
0F00
0700
0600
0200
0600
0400
0400
C800
F800
E000
ENDCHAR
STARTCHAR 007A
ENCODING 122
SWIDTH 432 0
DWIDTH 12 0
BBX 11 12 1 0
BITMAP
FFE0
81C0
8380
0300
0700
0E00
1C00
1800
3820
7020
E020
FFE0
ENDCHAR
STARTCHAR 007B
ENCODING 123
SWIDTH 468 0
DWIDTH 13 0
BBX 7 25 4 -6
BITMAP
06
08
10
10
30
38
38
18
18
10
10
60
80
60
10
18
18
18
38
38
30
10
18
08
06
ENDCHAR
STARTCHAR 007C
ENCODING 124
SWIDTH 216 0
DWIDTH 6 0
BBX 1 25 2 -6
BITMAP
80
80
80
80
80
80
80
80
80
80
80
80
80
80
80
80
80
80
80
80
80
80
80
80
80
ENDCHAR
STARTCHAR 007D
ENCODING 125
SWIDTH 468 0
DWIDTH 13 0
BBX 8 25 2 -6
BITMAP
60
10
18
18
1C
18
18
18
18
18
08
04
03
04
08
18
18
18
18
1C
18
18
18
30
C0
ENDCHAR
STARTCHAR 007E
ENCODING 126
SWIDTH 540 0
DWIDTH 15 0
BBX 15 4 0 5
BITMAP
3C02
4784
80FC
8010
ENDCHAR
STARTCHAR 00A0
ENCODING 160
SWIDTH 252 0
DWIDTH 7 0
BBX 0 0 0 0
BITMAP
ENDCHAR
STARTCHAR 00A1
ENCODING 161
SWIDTH 324 0
DWIDTH 9 0
BBX 3 19 3 -6
BITMAP
E0
E0
40
00
00
40
40
40
40
40
40
60
60
E0
E0
E0
E0
E0
60
ENDCHAR
STARTCHAR 00A2
ENCODING 162
SWIDTH 504 0
DWIDTH 14 0
BBX 10 23 2 -5
BITMAP
0080
0080
0100
0100
0100
0E00
3380
63C0
C5C0
C400
C800
C800
C800
F000
F040
7080
7F80
3F00
2000
4000
4000
8000
8000
ENDCHAR
STARTCHAR 00A3
ENCODING 163
SWIDTH 504 0
DWIDTH 14 0
BBX 12 19 1 0
BITMAP
0380
0460
0860
1860
1800
1800
1800
1800
1800
FF80
1800
1800
1800
1800
1800
7810
9E10
9FE0
E3C0
ENDCHAR
STARTCHAR 00A4
ENCODING 164
SWIDTH 504 0
DWIDTH 14 0
BBX 13 13 0 3
BITMAP
0008
4FD8
3870
2010
6018
4008
4008
4008
4008
2010
3030
7CF0
C388
ENDCHAR
STARTCHAR 00A5
ENCODING 165
SWIDTH 504 0
DWIDTH 14 0
BBX 14 18 0 0
BITMAP
7C38
3810
3820
1820
1C60
0C40
0EC0
0680
0680
FFFC
0300
0300
FFFC
0300
0300
0300
0300
1FC0
ENDCHAR
STARTCHAR 00A6
ENCODING 166
SWIDTH 216 0
DWIDTH 6 0
BBX 1 25 2 -6
BITMAP
80
80
80
80
80
80
80
80
80
80
00
00
00
00
00
80
80
80
80
80
80
80
80
80
80
ENDCHAR
STARTCHAR 00A7
ENCODING 167
SWIDTH 504 0
DWIDTH 14 0
BBX 10 24 2 -5
BITMAP
0E00
3100
2180
6180
6000
3000
3800
1E00
2F00
4780
C180
C0C0
C0C0
E0C0
7080
3880
1D00
0E00
0700
0300
2100
6100
6100
3E00
ENDCHAR
STARTCHAR 00A8
ENCODING 168
SWIDTH 324 0
DWIDTH 9 0
BBX 7 3 1 15
BITMAP
C6
E6
C6
ENDCHAR
STARTCHAR 00A9
ENCODING 169
SWIDTH 756 0
DWIDTH 21 0
BBX 19 19 1 0
BITMAP
01F000
060C00
180300
200080
21FC40
460440
8C0220
8C0020
8C0020
9C0020
9C0020
8C0020
8C0020
460240
470C40
21F080
100100
080200
07FC00
ENDCHAR
STARTCHAR 00AA
ENCODING 170
SWIDTH 288 0
DWIDTH 8 0
BBX 7 8 0 11
BITMAP
38
4C
C4
1C
64
C4
C6
FE
ENDCHAR
STARTCHAR 00AB
ENCODING 171
SWIDTH 504 0
DWIDTH 14 0
BBX 12 13 1 0
BITMAP
0410
0820
1860
1040
30C0
6180
E380
E180
71C0
30C0
1860
0820
0410
ENDCHAR
STARTCHAR 00AC
ENCODING 172
SWIDTH 576 0
DWIDTH 16 0
BBX 15 6 0 6
BITMAP
FFFE
0002
0002
0002
0002
0002
ENDCHAR
STARTCHAR 00AD
ENCODING 173
SWIDTH 324 0
DWIDTH 9 0
BBX 7 2 1 5
BITMAP
FE
FE
ENDCHAR
STARTCHAR 00AE
ENCODING 174
SWIDTH 756 0
DWIDTH 21 0
BBX 19 19 1 0
BITMAP
01F000
060C00
180300
200080
27F040
461840
861820
861820
861820
86F020
876020
867020
863020
461840
470C40
2F8E80
100100
080200
07FC00
ENDCHAR
STARTCHAR 00AF
ENCODING 175
SWIDTH 504 0
DWIDTH 14 0
BBX 14 1 0 20
BITMAP
FFFC
ENDCHAR
STARTCHAR 00B0
ENCODING 176
SWIDTH 396 0
DWIDTH 11 0
BBX 9 9 1 10
BITMAP
1C00
7700
4100
C180
8080
C180
4100
3E00
0800
ENDCHAR
STARTCHAR 00B1
ENCODING 177
SWIDTH 540 0
DWIDTH 15 0
BBX 15 15 0 2
BITMAP
0100
0100
0100
0100
0100
0100
0100
FFFE
0100
0100
0100
0100
0100
0100
FFFE
ENDCHAR
STARTCHAR 00B2
ENCODING 178
SWIDTH 288 0
DWIDTH 8 0
BBX 8 10 0 9
BITMAP
38
6E
86
06
06
04
08
10
21
FE
ENDCHAR
STARTCHAR 00B3
ENCODING 179
SWIDTH 288 0
DWIDTH 8 0
BBX 6 10 1 9
BITMAP
30
D8
0C
08
10
3C
0C
04
0C
F0
ENDCHAR
STARTCHAR 00B4
ENCODING 180
SWIDTH 324 0
DWIDTH 9 0
BBX 4 5 3 14
BITMAP
30
70
60
40
80
ENDCHAR
STARTCHAR 00B5
ENCODING 181
SWIDTH 576 0
DWIDTH 16 0
BBX 13 18 2 -6
BITMAP
60C0
60C0
60C0
60C0
60C0
60C0
60C0
60C0
60C0
61C8
72C8
7CF0
4000
C000
C000
C000
C000
C000
ENDCHAR
STARTCHAR 00B6
ENCODING 182
SWIDTH 468 0
DWIDTH 13 0
BBX 12 24 0 -6
BITMAP
3FF0
7E20
FE20
FE20
FE20
FE20
FE20
7E20
7E20
0E20
0220
0220
0220
0220
0220
0220
0220
0220
0220
0220
0220
0220
0220
0220
ENDCHAR
STARTCHAR 00B7
ENCODING 183
SWIDTH 252 0
DWIDTH 7 0
BBX 3 3 2 8
BITMAP
40
E0
E0
ENDCHAR
STARTCHAR 00B8
ENCODING 184
SWIDTH 324 0
DWIDTH 9 0
BBX 4 5 3 -5
BITMAP
40
60
30
30
E0
ENDCHAR
STARTCHAR 00B9
ENCODING 185
SWIDTH 288 0
DWIDTH 8 0
BBX 4 10 2 9
BITMAP
20
E0
60
60
60
60
60
60
60
70
ENDCHAR
STARTCHAR 00BA
ENCODING 186
SWIDTH 324 0
DWIDTH 9 0
BBX 8 8 0 11
BITMAP
1C
66
43
C3
C3
63
63
3E
ENDCHAR
STARTCHAR 00BB
ENCODING 187
SWIDTH 504 0
DWIDTH 14 0
BBX 12 13 1 0
BITMAP
8200
C100
4180
6080
30C0
1860
1C70
1860
38E0
30C0
6180
4100
8200
ENDCHAR
STARTCHAR 00BC
ENCODING 188
SWIDTH 756 0
DWIDTH 21 0
BBX 18 20 2 -1
BITMAP
200200
E00600
600400
600800
600800
601000
602000
602000
604000
708000
008180
010380
030380
020580
040980
0C1180
081FC0
100180
300180
200180
ENDCHAR
STARTCHAR 00BD
ENCODING 189
SWIDTH 756 0
DWIDTH 21 0
BBX 18 20 2 -1
BITMAP
200200
E00400
600400
600800
601000
601000
602000
604000
604000
708000
018F80
011180
0210C0
060080
040180
080100
180200
100400
200FC0
601F80
ENDCHAR
STARTCHAR 00BE
ENCODING 190
SWIDTH 756 0
DWIDTH 21 0
BBX 19 20 1 -1
BITMAP
300100
D80200
080200
080400
100C00
3C0800
0C1000
043000
0C2000
F04000
00C0C0
0081C0
0101C0
0102C0
0204C0
0408C0
040FE0
0800C0
1000C0
1000C0
ENDCHAR
STARTCHAR 00BF
ENCODING 191
SWIDTH 432 0
DWIDTH 12 0
BBX 10 19 1 -6
BITMAP
0C00
0E00
0C00
0000
0000
0800
0800
0800
0800
1000
3000
6000
6000
E0C0
E0C0
E0C0
60C0
7080
1F00
ENDCHAR
STARTCHAR 00C0
ENCODING 192
SWIDTH 720 0
DWIDTH 20 0
BBX 20 24 0 0
BITMAP
01C000
006000
006000
002000
000000
000000
006000
006000
00F000
00F000
01B000
013800
013800
021C00
021C00
060E00
040E00
0FFE00
080700
080700
100380
100380
3003C0
FC0FF0
ENDCHAR
STARTCHAR 00C1
ENCODING 193
SWIDTH 720 0
DWIDTH 20 0
BBX 20 24 0 0
BITMAP
003800
006000
006000
004000
000000
000000
006000
006000
00F000
00F000
01B000
013800
013800
021C00
021C00
060E00
040E00
0FFE00
080700
080700
100380
100380
3003C0
FC0FF0
ENDCHAR
STARTCHAR 00C2
ENCODING 194
SWIDTH 720 0
DWIDTH 20 0
BBX 20 24 0 0
BITMAP
00F000
00B000
011800
020800
000000
000000
006000
006000
00F000
00F000
01B000
013800
013800
021C00
021C00
060E00
040E00
0FFE00
080700
080700
100380
100380
3003C0
FC0FF0
ENDCHAR
STARTCHAR 00C3
ENCODING 195
SWIDTH 720 0
DWIDTH 20 0
BBX 20 23 0 0
BITMAP
03E400
02FC00
043800
000000
000000
006000
006000
00F000
00F000
01B000
013800
013800
021C00
021C00
060E00
040E00
0FFE00
080700
080700
100380
100380
3003C0
FC0FF0
ENDCHAR
STARTCHAR 00C4
ENCODING 196
SWIDTH 720 0
DWIDTH 20 0
BBX 20 23 0 0
BITMAP
039C00
039C00
010800
000000
000000
006000
006000
00F000
00F000
01B000
013800
013800
021C00
021C00
060E00
040E00
0FFE00
080700
080700
100380
100380
3003C0
FC0FF0
ENDCHAR
STARTCHAR 00C5
ENCODING 197
SWIDTH 720 0
DWIDTH 20 0
BBX 20 23 0 0
BITMAP
00F000
009000
010800
019000
00F000
006000
006000
00F000
00F000
01B000
013800
013800
021C00
021C00
060E00
040E00
0FFE00
080700
080700
100380
100380
3003C0
FC0FF0
ENDCHAR
STARTCHAR 00C6
ENCODING 198
SWIDTH 900 0
DWIDTH 25 0
BBX 24 18 0 0
BITMAP
00FFFC
003C04
005C04
005C00
009C00
009C08
011C08
011C18
021FF8
061C08
07FC08
0C1C08
081C00
181C01
101C01
301C02
201C06
F87FFE
ENDCHAR
STARTCHAR 00C7
ENCODING 199
SWIDTH 684 0
DWIDTH 19 0
BBX 16 24 1 -5
BITMAP
01F1
070F
1C07
3803
3001
7001
7000
E000
E000
E000
E000
E000
E000
7000
7000
3801
3802
1E04
07F8
0080
01C0
00C0
00C0
01C0
ENDCHAR
STARTCHAR 00C8
ENCODING 200
SWIDTH 612 0
DWIDTH 17 0
BBX 15 24 1 0
BITMAP
0700
0300
0100
0080
0000
0000
FFFC
3804
3804
3804
3800
3800
3810
3810
3FF0
3810
3810
3800
3800
3800
3802
3806
380C
FFFC
ENDCHAR
STARTCHAR 00C9
ENCODING 201
SWIDTH 612 0
DWIDTH 17 0
BBX 15 24 1 0
BITMAP
01C0
0180
0100
0200
0000
0000
FFFC
3804
3804
3804
3800
3800
3810
3810
3FF0
3810
3810
3800
3800
3800
3802
3806
380C
FFFC
ENDCHAR
STARTCHAR 00CA
ENCODING 202
SWIDTH 612 0
DWIDTH 17 0
BBX 15 24 1 0
BITMAP
0380
07C0
0440
0820
0000
0000
FFFC
3804
3804
3804
3800
3800
3810
3810
3FF0
3810
3810
3800
3800
3800
3802
3806
380C
FFFC
ENDCHAR
STARTCHAR 00CB
ENCODING 203
SWIDTH 612 0
DWIDTH 17 0
BBX 15 23 1 0
BITMAP
0C60
0EE0
0C60
0000
0000
FFFC
3804
3804
3804
3800
3800
3810
3810
3FF0
3810
3810
3800
3800
3800
3802
3806
380C
FFFC
ENDCHAR
STARTCHAR 00CC
ENCODING 204
SWIDTH 324 0
DWIDTH 9 0
BBX 8 24 1 0
BITMAP
70
30
18
08
00
00
FE
38
38
38
38
38
38
38
38
38
38
38
38
38
38
38
38
FF
ENDCHAR
STARTCHAR 00CD
ENCODING 205
SWIDTH 324 0
DWIDTH 9 0
BBX 8 24 1 0
BITMAP
1C
18
10
20
00
00
FE
38
38
38
38
38
38
38
38
38
38
38
38
38
38
38
38
FF
ENDCHAR
STARTCHAR 00CE
ENCODING 206
SWIDTH 324 0
DWIDTH 9 0
BBX 8 24 1 0
BITMAP
38
6C
44
82
00
00
FE
38
38
38
38
38
38
38
38
38
38
38
38
38
38
38
38
FF
ENDCHAR
STARTCHAR 00CF
ENCODING 207
SWIDTH 324 0
DWIDTH 9 0
BBX 8 23 1 0
BITMAP
C6
E6
46
00
00
FE
38
38
38
38
38
38
38
38
38
38
38
38
38
38
38
38
FF
ENDCHAR
STARTCHAR 00D0
ENCODING 208
SWIDTH 720 0
DWIDTH 20 0
BBX 19 18 0 0
BITMAP
7FFC00
1C0F00
1C0780
1C03C0
1C01C0
1C01E0
1C00E0
1C00E0
FFE0E0
1C00E0
1C00E0
1C00E0
1C01C0
1C01C0
1C0380
1C0700
1C1E00
FFF800
ENDCHAR
STARTCHAR 00D1
ENCODING 209
SWIDTH 720 0
DWIDTH 20 0
BBX 19 23 0 0
BITMAP
03E400
02FC00
043800
000000
000000
F803E0
1C0080
1E0080
1F0080
178080
138080
11C080
10E080
107080
107880
103C80
101C80
100E80
100780
100780
100380
180180
7E0080
ENDCHAR
STARTCHAR 00D2
ENCODING 210
SWIDTH 720 0
DWIDTH 20 0
BBX 18 24 1 0
BITMAP
038000
00C000
00C000
004000
000000
01F000
0E3C00
180E00
380700
700380
700380
E001C0
E001C0
E001C0
E001C0
E001C0
E001C0
E001C0
700180
700380
300300
380600
1C0C00
07F800
ENDCHAR
STARTCHAR 00D3
ENCODING 211
SWIDTH 720 0
DWIDTH 20 0
BBX 18 24 1 0
BITMAP
006000
00C000
00C000
008000
000000
01F000
0E3C00
180E00
380700
700380
700380
E001C0
E001C0
E001C0
E001C0
E001C0
E001C0
E001C0
700180
700380
300300
380600
1C0C00
07F800
ENDCHAR
STARTCHAR 00D4
ENCODING 212
SWIDTH 720 0
DWIDTH 20 0
BBX 18 24 1 0
BITMAP
01E000
016000
023000
041000
000000
01F000
0E3C00
180E00
380700
700380
700380
E001C0
E001C0
E001C0
E001C0
E001C0
E001C0
E001C0
700180
700380
300300
380600
1C0C00
07F800
ENDCHAR
STARTCHAR 00D5
ENCODING 213
SWIDTH 720 0
DWIDTH 20 0
BBX 18 23 1 0
BITMAP
07C800
05F800
087000
000000
01F000
0E3C00
180E00
380700
700380
700380
E001C0
E001C0
E001C0
E001C0
E001C0
E001C0
E001C0
700180
700380
300300
380600
1C0C00
07F800
ENDCHAR
STARTCHAR 00D6
ENCODING 214
SWIDTH 720 0
DWIDTH 20 0
BBX 18 23 1 0
BITMAP
073800
073800
021000
000000
01F000
0E3C00
180E00
380700
700380
700380
E001C0
E001C0
E001C0
E001C0
E001C0
E001C0
E001C0
700180
700380
300300
380600
1C0C00
07F800
ENDCHAR
STARTCHAR 00D7
ENCODING 215
SWIDTH 576 0
DWIDTH 16 0
BBX 11 11 2 4
BITMAP
0020
4060
20C0
1180
0B00
0600
0E00
1900
3080
6040
C020
ENDCHAR
STARTCHAR 00D8
ENCODING 216
SWIDTH 720 0
DWIDTH 20 0
BBX 18 19 1 -1
BITMAP
01E080
0E1D00
180F00
380700
700780
700B80
E011C0
E031C0
E061C0
E041C0
E081C0
E101C0
E301C0
760180
740380
380300
380600
3C0C00
67F800
ENDCHAR
STARTCHAR 00D9
ENCODING 217
SWIDTH 720 0
DWIDTH 20 0
BBX 18 24 1 0
BITMAP
01C000
00C000
006000
002000
000000
000000
FE07C0
380100
300100
300100
300100
300100
300100
300100
300100
300100
300100
300100
380100
380100
380300
180200
1C0C00
07F800
ENDCHAR
STARTCHAR 00DA
ENCODING 218
SWIDTH 720 0
DWIDTH 20 0
BBX 18 24 1 0
BITMAP
007000
00C000
00C000
008000
000000
000000
FE07C0
380100
300100
300100
300100
300100
300100
300100
300100
300100
300100
300100
380100
380100
380300
180200
1C0C00
07F800
ENDCHAR
STARTCHAR 00DB
ENCODING 219
SWIDTH 720 0
DWIDTH 20 0
BBX 18 24 1 0
BITMAP
00E000
01B000
011000
020800
000000
000000
FE07C0
380100
300100
300100
300100
300100
300100
300100
300100
300100
300100
300100
380100
380100
380300
180200
1C0C00
07F800
ENDCHAR
STARTCHAR 00DC
ENCODING 220
SWIDTH 720 0
DWIDTH 20 0
BBX 18 23 1 0
BITMAP
031800
039800
011800
000000
000000
FE07C0
380100
300100
300100
300100
300100
300100
300100
300100
300100
300100
300100
380100
380100
380300
180200
1C0C00
07F800
ENDCHAR
STARTCHAR 00DD
ENCODING 221
SWIDTH 720 0
DWIDTH 20 0
BBX 18 24 1 0
BITMAP
007000
006000
004000
008000
000000
000000
FE07C0
380300
3C0200
1C0400
0E0400
0E0800
071800
039000
03A000
01E000
00C000
00C000
00C000
00C000
00C000
00C000
01C000
07F800
ENDCHAR
STARTCHAR 00DE
ENCODING 222
SWIDTH 540 0
DWIDTH 15 0
BBX 14 18 0 0
BITMAP
7F00
1C00
1C00
1C00
1FF0
1C38
1C1C
1C1C
1C1C
1C1C
1C1C
1C3C
1C78
1FE0
1C00
1C00
1C00
FF00
ENDCHAR
STARTCHAR 00DF
ENCODING 223
SWIDTH 504 0
DWIDTH 14 0
BBX 13 19 0 0
BITMAP
0FC0
1860
1870
3830
3830
3870
3860
38C0
39E0
3870
3838
3838
3838
3818
3818
3818
3B10
3B30
F9E0
ENDCHAR
STARTCHAR 00E0
ENCODING 224
SWIDTH 432 0
DWIDTH 12 0
BBX 11 19 1 0
BITMAP
1C00
0C00
0400
0600
0200
0000
1E00
6380
6180
E180
4180
0780
1980
6180
C180
C180
E180
E7E0
79C0
ENDCHAR
STARTCHAR 00E1
ENCODING 225
SWIDTH 432 0
DWIDTH 12 0
BBX 11 19 1 0
BITMAP
0700
0600
0C00
0800
0800
0000
1E00
6380
6180
E180
4180
0780
1980
6180
C180
C180
E180
E7E0
79C0
ENDCHAR
STARTCHAR 00E2
ENCODING 226
SWIDTH 432 0
DWIDTH 12 0
BBX 11 19 1 0
BITMAP
0E00
1E00
1300
2100
0080
0000
1E00
6380
6180
E180
4180
0780
1980
6180
C180
C180
E180
E7E0
79C0
ENDCHAR
STARTCHAR 00E3
ENCODING 227
SWIDTH 432 0
DWIDTH 12 0
BBX 11 18 1 0
BITMAP
3C40
5F80
8780
0000
0000
1E00
6380
6180
E180
4180
0780
1980
6180
C180
C180
E180
E7E0
79C0
ENDCHAR
STARTCHAR 00E4
ENCODING 228
SWIDTH 432 0
DWIDTH 12 0
BBX 11 18 1 0
BITMAP
3380
7380
3100
0000
0000
1E00
6380
6180
E180
4180
0780
1980
6180
C180
C180
E180
E7E0
79C0
ENDCHAR
STARTCHAR 00E5
ENCODING 229
SWIDTH 432 0
DWIDTH 12 0
BBX 11 19 1 0
BITMAP
1E00
1100
1100
1200
0E00
0000
1E00
6380
6180
E180
4180
0780
1980
6180
C180
C180
E180
E7E0
79C0
ENDCHAR
STARTCHAR 00E6
ENCODING 230
SWIDTH 684 0
DWIDTH 19 0
BBX 17 13 1 0
BITMAP
1E1C00
634600
618300
E18380
41FF80
078000
198000
618000
C18000
C1C100
C1C100
E2FE00
7C7C00
ENDCHAR
STARTCHAR 00E7
ENCODING 231
SWIDTH 432 0
DWIDTH 12 0
BBX 10 18 1 -5
BITMAP
0F00
3180
61C0
41C0
C000
C000
C000
C000
E000
E040
70C0
7F80
3F00
0400
0E00
0600
0600
1C00
ENDCHAR
STARTCHAR 00E8
ENCODING 232
SWIDTH 432 0
DWIDTH 12 0
BBX 11 19 1 0
BITMAP
1C00
0C00
0600
0200
0000
0000
0F00
3380
61C0
40C0
FFE0
C000
C000
C000
E020
E040
7040
7F80
1F00
ENDCHAR
STARTCHAR 00E9
ENCODING 233
SWIDTH 432 0
DWIDTH 12 0
BBX 11 19 1 0
BITMAP
0700
0600
0400
0C00
0800
0000
0F00
3380
61C0
40C0
FFE0
C000
C000
C000
E020
E040
7040
7F80
1F00
ENDCHAR
STARTCHAR 00EA
ENCODING 234
SWIDTH 432 0
DWIDTH 12 0
BBX 11 19 1 0
BITMAP
0E00
0F00
1B00
1080
2000
0000
0F00
3380
61C0
40C0
FFE0
C000
C000
C000
E020
E040
7040
7F80
1F00
ENDCHAR
STARTCHAR 00EB
ENCODING 235
SWIDTH 432 0
DWIDTH 12 0
BBX 11 18 1 0
BITMAP
3980
39C0
3180
0000
0000
0F00
3380
61C0
40C0
FFE0
C000
C000
C000
E020
E040
7040
7F80
1F00
ENDCHAR
STARTCHAR 00EC
ENCODING 236
SWIDTH 288 0
DWIDTH 8 0
BBX 6 19 1 0
BITMAP
E0
60
30
10
00
00
10
F0
30
30
30
30
30
30
30
30
30
30
FC
ENDCHAR
STARTCHAR 00ED
ENCODING 237
SWIDTH 288 0
DWIDTH 8 0
BBX 6 19 1 0
BITMAP
18
38
30
20
40
00
10
F0
30
30
30
30
30
30
30
30
30
30
FC
ENDCHAR
STARTCHAR 00EE
ENCODING 238
SWIDTH 288 0
DWIDTH 8 0
BBX 8 19 0 0
BITMAP
18
3C
66
42
81
00
08
78
18
18
18
18
18
18
18
18
18
18
7E
ENDCHAR
STARTCHAR 00EF
ENCODING 239
SWIDTH 288 0
DWIDTH 8 0
BBX 8 18 0 0
BITMAP
E6
E7
46
00
00
08
78
18
18
18
18
18
18
18
18
18
18
7E
ENDCHAR
STARTCHAR 00F0
ENCODING 240
SWIDTH 504 0
DWIDTH 14 0
BBX 12 19 1 0
BITMAP
30C0
0D00
0600
1B00
2380
01C0
0EC0
31E0
60E0
6060
E070
C070
C070
E070
E070
E060
7060
30C0
1F80
ENDCHAR
STARTCHAR 00F1
ENCODING 241
SWIDTH 504 0
DWIDTH 14 0
BBX 13 18 1 0
BITMAP
3E40
2FC0
4380
0000
0000
2380
E7C0
68E0
70E0
6060
6060
6060
6060
6060
6060
7060
7060
F9F8
ENDCHAR
STARTCHAR 00F2
ENCODING 242
SWIDTH 504 0
DWIDTH 14 0
BBX 12 19 1 0
BITMAP
1C00
0E00
0600
0200
0000
0000
0F00
31C0
60E0
6060
E070
C070
E070
E070
E070
E060
7060
30C0
1F80
ENDCHAR
STARTCHAR 00F3
ENCODING 243
SWIDTH 504 0
DWIDTH 14 0
BBX 12 19 1 0
BITMAP
0380
0700
0600
0400
0800
0000
0F00
31C0
60E0
6060
E070
C070
E070
E070
E070
E060
7060
30C0
1F80
ENDCHAR
STARTCHAR 00F4
ENCODING 244
SWIDTH 504 0
DWIDTH 14 0
BBX 12 19 1 0
BITMAP
0700
0F00
0980
1080
2040
0000
0F00
31C0
60E0
6060
E070
C070
E070
E070
E070
E060
7060
30C0
1F80
ENDCHAR
STARTCHAR 00F5
ENCODING 245
SWIDTH 504 0
DWIDTH 14 0
BBX 12 18 1 0
BITMAP
3E40
2FC0
4380
0000
0000
0F00
31C0
60E0
6060
E070
C070
E070
E070
E070
E060
7060
30C0
1F80
ENDCHAR
STARTCHAR 00F6
ENCODING 246
SWIDTH 504 0
DWIDTH 14 0
BBX 12 18 1 0
BITMAP
3980
39C0
1180
0000
0000
0F00
31C0
60E0
6060
E070
C070
E070
E070
E070
E060
7060
30C0
1F80
ENDCHAR
STARTCHAR 00F7
ENCODING 247
SWIDTH 540 0
DWIDTH 15 0
BBX 15 11 0 4
BITMAP
0100
0380
0100
0000
0000
FFFE
0000
0000
0000
0180
0180
ENDCHAR
STARTCHAR 00F8
ENCODING 248
SWIDTH 504 0
DWIDTH 14 0
BBX 12 14 1 -1
BITMAP
0F10
31E0
20E0
60E0
E1F0
E170
E270
E470
E870
7060
7060
70C0
9F80
8000
ENDCHAR
STARTCHAR 00F9
ENCODING 249
SWIDTH 504 0
DWIDTH 14 0
BBX 13 19 1 0
BITMAP
1C00
0E00
0600
0200
0100
0000
0000
E1E0
60E0
6060
6060
6060
6060
6060
6060
6060
70E0
3B68
3E70
ENDCHAR
STARTCHAR 00FA
ENCODING 250
SWIDTH 504 0
DWIDTH 14 0
BBX 13 19 1 0
BITMAP
0700
0600
0400
0C00
0800
0000
0000
E1E0
60E0
6060
6060
6060
6060
6060
6060
6060
70E0
3B68
3E70
ENDCHAR
STARTCHAR 00FB
ENCODING 251
SWIDTH 504 0
DWIDTH 14 0
BBX 13 19 1 0
BITMAP
0600
0F00
1980
1080
2040
0000
0000
E1E0
60E0
6060
6060
6060
6060
6060
6060
6060
70E0
3B68
3E70
ENDCHAR
STARTCHAR 00FC
ENCODING 252
SWIDTH 504 0
DWIDTH 14 0
BBX 13 18 1 0
BITMAP
3980
39C0
1180
0000
0000
0000
E1E0
60E0
6060
6060
6060
6060
6060
6060
6060
70E0
3B68
3E70
ENDCHAR
STARTCHAR 00FD
ENCODING 253
SWIDTH 504 0
DWIDTH 14 0
BBX 12 25 1 -6
BITMAP
0380
0700
0600
0400
0000
0000
0000
F070
7020
3060
3040
3840
1880
1C80
0D80
0F00
0700
0600
0200
0600
0400
0400
C800
F800
E000
ENDCHAR
STARTCHAR 00FE
ENCODING 254
SWIDTH 504 0
DWIDTH 14 0
BBX 13 25 0 -6
BITMAP
3000
F000
3000
3000
3000
3000
31C0
33E0
34F0
3878
3038
3038
3038
3018
3018
3030
3030
3860
36C0
3100
3000
3000
3000
3000
FC00
ENDCHAR
STARTCHAR 00FF
ENCODING 255
SWIDTH 504 0
DWIDTH 14 0
BBX 12 24 1 -6
BITMAP
18C0
1DC0
18C0
0000
0000
0000
F070
7020
3060
3040
3840
1880
1C80
0D80
0F00
0700
0600
0200
0600
0400
0400
C800
F800
E000
ENDCHAR
STARTCHAR 0100
ENCODING 256
SWIDTH 720 0
DWIDTH 20 0
BBX 20 22 0 0
BITMAP
03FC00
03FC00
000000
000000
006000
006000
00F000
00F000
01B000
013800
013800
021C00
021C00
060E00
040E00
0FFE00
080700
080700
100380
100380
3003C0
FC0FF0
ENDCHAR
STARTCHAR 0101
ENCODING 257
SWIDTH 432 0
DWIDTH 12 0
BBX 11 17 1 0
BITMAP
7FC0
7FC0
0000
0000
1E00
6380
6180
E180
4180
0780
1980
6180
C180
C180
E180
E7E0
79C0
ENDCHAR
STARTCHAR 0102
ENCODING 258
SWIDTH 720 0
DWIDTH 20 0
BBX 20 24 0 0
BITMAP
020400
030C00
01F800
00F000
000000
000000
006000
006000
00F000
00F000
01B000
013800
013800
021C00
021C00
060E00
040E00
0FFE00
080700
080700
100380
100380
3003C0
FC0FF0
ENDCHAR
STARTCHAR 0103
ENCODING 259
SWIDTH 432 0
DWIDTH 12 0
BBX 11 18 1 0
BITMAP
4080
3F00
1F00
0000
0000
1E00
6380
6180
E180
4180
0780
1980
6180
C180
C180
E180
E7E0
79C0
ENDCHAR
STARTCHAR 0104
ENCODING 260
SWIDTH 720 0
DWIDTH 20 0
BBX 20 23 0 -4
BITMAP
006000
006000
00F000
00F000
01B000
013800
013800
021C00
021C00
060E00
040E00
0FFE00
080700
080700
100380
100380
3003C0
FC0FF0
000300
000200
000300
000380
0001F0
ENDCHAR
STARTCHAR 0105
ENCODING 261
SWIDTH 432 0
DWIDTH 12 0
BBX 13 18 1 -5
BITMAP
1E00
6380
6180
E180
4180
0780
1980
6180
C180
C180
E180
E7E0
79C0
0100
0100
0180
01C0
00F8
ENDCHAR
STARTCHAR 0106
ENCODING 262
SWIDTH 684 0
DWIDTH 19 0
BBX 16 24 1 0
BITMAP
0070
0060
00C0
0080
0000
01F1
070F
1C07
3803
3001
7001
7000
E000
E000
E000
E000
E000
E000
7000
7000
3801
3802
1E04
07F8
ENDCHAR
STARTCHAR 0107
ENCODING 263
SWIDTH 432 0
DWIDTH 12 0
BBX 10 19 1 0
BITMAP
0700
0700
0600
0400
0800
0000
0F00
3180
61C0
41C0
C000
C000
C000
C000
E000
E040
70C0
7F80
3F00
ENDCHAR
STARTCHAR 0108
ENCODING 264
SWIDTH 684 0
DWIDTH 19 0
BBX 16 25 1 0
BITMAP
01C0
01E0
0360
0230
0400
0000
01F1
070F
1C07
3803
3001
7001
7000
E000
E000
E000
E000
E000
E000
7000
7000
3801
3802
1E04
07F8
ENDCHAR
STARTCHAR 0109
ENCODING 265
SWIDTH 432 0
DWIDTH 12 0
BBX 10 19 1 0
BITMAP
0E00
1E00
1300
2100
4080
0000
0F00
3180
61C0
41C0
C000
C000
C000
C000
E000
E040
70C0
7F80
3F00
ENDCHAR
STARTCHAR 010A
ENCODING 266
SWIDTH 684 0
DWIDTH 19 0
BBX 16 23 1 0
BITMAP
00C0
01C0
0080
0000
01F1
070F
1C07
3803
3001
7001
7000
E000
E000
E000
E000
E000
E000
7000
7000
3801
3802
1E04
07F8
ENDCHAR
STARTCHAR 010B
ENCODING 267
SWIDTH 432 0
DWIDTH 12 0
BBX 10 18 1 0
BITMAP
0C00
0E00
0C00
0000
0000
0F00
3180
61C0
41C0
C000
C000
C000
C000
E000
E040
70C0
7F80
3F00
ENDCHAR
STARTCHAR 010C
ENCODING 268
SWIDTH 684 0
DWIDTH 19 0
BBX 16 24 1 0
BITMAP
0208
0310
01E0
00E0
0000
01F1
070F
1C07
3803
3001
7001
7000
E000
E000
E000
E000
E000
E000
7000
7000
3801
3802
1E04
07F8
ENDCHAR
STARTCHAR 010D
ENCODING 269
SWIDTH 432 0
DWIDTH 12 0
BBX 10 19 1 0
BITMAP
2000
1080
1900
0F00
0E00
0000
0F00
3180
61C0
41C0
C000
C000
C000
C000
E000
E040
70C0
7F80
3F00
ENDCHAR
STARTCHAR 010E
ENCODING 270
SWIDTH 720 0
DWIDTH 20 0
BBX 19 24 0 0
BITMAP
020800
031000
01A000
00E000
000000
000000
7FFC00
1C0F00
1C0780
1C03C0
1C01C0
1C01E0
1C00E0
1C00E0
1C00E0
1C00E0
1C00E0
1C00E0
1C01C0
1C01C0
1C0380
1C0700
1C0E00
FFF800
ENDCHAR
STARTCHAR 010F
ENCODING 271
SWIDTH 648 0
DWIDTH 18 0
BBX 17 19 1 0
BITMAP
00E700
01E780
006780
006180
006100
006200
0F6400
31E000
20E000
60E000
E06000
C06000
C06000
C06000
E06000
E06000
706000
78F800
3F6000
ENDCHAR
STARTCHAR 0110
ENCODING 272
SWIDTH 720 0
DWIDTH 20 0
BBX 19 18 0 0
BITMAP
7FFC00
1C0F00
1C0780
1C03C0
1C01C0
1C01E0
1C00E0
1C00E0
FFE0E0
1C00E0
1C00E0
1C00E0
1C01C0
1C01C0
1C0380
1C0700
1C1E00
FFF800
ENDCHAR
STARTCHAR 0111
ENCODING 273
SWIDTH 504 0
DWIDTH 14 0
BBX 13 19 1 0
BITMAP
00C0
03C0
00C0
0FF8
0FF8
00C0
0EC0
31C0
60C0
40C0
C0C0
C0C0
C0C0
C0C0
C0E0
E0E0
E0E0
71E0
3EF0
ENDCHAR
STARTCHAR 0112
ENCODING 274
SWIDTH 612 0
DWIDTH 17 0
BBX 15 22 1 0
BITMAP
1FF0
1FF0
0000
0000
FFFC
3804
3804
3804
3800
3800
3810
3810
3FF0
3810
3810
3800
3800
3800
3802
3806
380C
FFFC
ENDCHAR
STARTCHAR 0113
ENCODING 275
SWIDTH 432 0
DWIDTH 12 0
BBX 11 17 1 0
BITMAP
7FC0
7FC0
0000
0000
0F00
3380
61C0
40C0
FFE0
C000
C000
C000
E020
E040
7040
7F80
1F00
ENDCHAR
STARTCHAR 0114
ENCODING 276
SWIDTH 612 0
DWIDTH 17 0
BBX 15 24 1 0
BITMAP
1020
0C60
07C0
0380
0000
0000
FFFC
3804
3804
3804
3800
3800
3810
3810
3FF0
3810
3810
3800
3800
3800
3802
3806
380C
FFFC
ENDCHAR
STARTCHAR 0115
ENCODING 277
SWIDTH 432 0
DWIDTH 12 0
BBX 11 18 1 0
BITMAP
2080
3F80
1F00
0000
0000
0F00
3380
61C0
40C0
FFE0
C000
C000
C000
E020
E040
7040
7F80
1F00
ENDCHAR
STARTCHAR 0116
ENCODING 278
SWIDTH 612 0
DWIDTH 17 0
BBX 15 23 1 0
BITMAP
0380
0380
0100
0000
0000
FFFC
3804
3804
3804
3800
3800
3810
3810
3FF0
3810
3810
3800
3800
3800
3802
3806
380C
FFFC
ENDCHAR
STARTCHAR 0117
ENCODING 279
SWIDTH 432 0
DWIDTH 12 0
BBX 11 18 1 0
BITMAP
0C00
0E00
0C00
0000
0000
0F00
3380
61C0
40C0
FFE0
C000
C000
C000
E020
E040
7040
7F80
1F00
ENDCHAR
STARTCHAR 0118
ENCODING 280
SWIDTH 612 0
DWIDTH 17 0
BBX 15 23 1 -5
BITMAP
FFFC
3804
3804
3804
3800
3800
3810
3810
3FF0
3810
3810
3800
3800
3800
3802
3806
380C
FFFC
0060
0040
0060
0070
003E
ENDCHAR
STARTCHAR 0119
ENCODING 281
SWIDTH 432 0
DWIDTH 12 0
BBX 12 18 1 -5
BITMAP
0F00
3380
61C0
40C0
FFE0
C000
C000
C000
E020
E040
7040
7F80
1F00
0200
0200
0200
0390
01E0
ENDCHAR
STARTCHAR 011A
ENCODING 282
SWIDTH 612 0
DWIDTH 17 0
BBX 15 24 1 0
BITMAP
0820
0440
07C0
0380
0000
0000
FFFC
3804
3804
3804
3800
3800
3810
3810
3FF0
3810
3810
3800
3800
3800
3802
3806
380C
FFFC
ENDCHAR
STARTCHAR 011B
ENCODING 283
SWIDTH 432 0
DWIDTH 12 0
BBX 11 19 1 0
BITMAP
2000
3080
1900
0F00
0E00
0000
0F00
3380
61C0
40C0
FFE0
C000
C000
C000
E020
E040
7040
7F80
1F00
ENDCHAR
STARTCHAR 011C
ENCODING 284
SWIDTH 720 0
DWIDTH 20 0
BBX 18 25 1 0
BITMAP
00E000
01E000
013000
021800
000800
000000
01F000
070F00
1C0300
380100
300100
700100
600000
E00000
E00000
E00FC0
E00380
E00380
F00380
700380
700380
380380
3C0380
0E0380
07FE00
ENDCHAR
STARTCHAR 011D
ENCODING 285
SWIDTH 504 0
DWIDTH 14 0
BBX 12 25 1 -6
BITMAP
0600
0F00
1B80
1080
2040
0000
0F00
31F0
60C0
60C0
60E0
60E0
70C0
30C0
1F00
2000
6000
7FC0
3FF0
2070
4010
C010
E020
FFC0
3F00
ENDCHAR
STARTCHAR 011E
ENCODING 286
SWIDTH 720 0
DWIDTH 20 0
BBX 18 24 1 0
BITMAP
020400
030C00
01F800
00F000
000000
01F000
070F00
1C0300
380100
300100
700100
600000
E00000
E00000
E00FC0
E00380
E00380
F00380
700380
700380
380380
3C0380
0E0380
07FE00
ENDCHAR
STARTCHAR 011F
ENCODING 287
SWIDTH 504 0
DWIDTH 14 0
BBX 12 24 1 -6
BITMAP
2040
1F80
0F80
0000
0000
0F00
31F0
60C0
60C0
60E0
60E0
70C0
30C0
1F00
2000
6000
7FC0
3FF0
2070
4010
C010
E020
FFC0
3F00
ENDCHAR
STARTCHAR 0120
ENCODING 288
SWIDTH 720 0
DWIDTH 20 0
BBX 18 23 1 0
BITMAP
00C000
00E000
004000
000000
01F000
070F00
1C0300
380100
300100
700100
600000
E00000
E00000
E00FC0
E00380
E00380
F00380
700380
700380
380380
3C0380
0E0380
07FE00
ENDCHAR
STARTCHAR 0121
ENCODING 289
SWIDTH 504 0
DWIDTH 14 0
BBX 12 24 1 -6
BITMAP
0600
0E00
0600
0000
0000
0F00
31F0
60C0
60C0
60E0
60E0
70C0
30C0
1F00
2000
6000
7FC0
3FF0
2070
4010
C010
E020
FFC0
3F00
ENDCHAR
STARTCHAR 0122
ENCODING 290
SWIDTH 720 0
DWIDTH 20 0
BBX 18 24 1 -5
BITMAP
01F000
070F00
1C0300
380100
300100
700100
600000
E00000
E00000
E00FC0
E00380
E00380
F00380
700380
700380
380380
3C0380
0E0380
07FE00
004000
00E000
006000
006000
01C000
ENDCHAR
STARTCHAR 0123
ENCODING 291
SWIDTH 504 0
DWIDTH 14 0
BBX 12 26 1 -6
BITMAP
0600
0800
0A00
0F00
0600
0000
0000
0F00
31F0
60C0
60C0
60E0
60E0
70C0
30C0
1F00
2000
6000
7FC0
3FF0
2070
4010
C010
E020
FFC0
3F00
ENDCHAR
STARTCHAR 0124
ENCODING 292
SWIDTH 720 0
DWIDTH 20 0
BBX 19 25 0 0
BITMAP
006000
00F000
009800
010800
020400
000000
000000
7F0FE0
1C0380
1C0380
1C0380
1C0380
1C0380
1C0380
1C0380
1FFF80
1C0380
1C0380
1C0380
1C0380
1C0380
1C0380
1C0380
1C0380
FF0FE0
ENDCHAR
STARTCHAR 0125
ENCODING 293
SWIDTH 504 0
DWIDTH 14 0
BBX 14 25 0 0
BITMAP
0300
0780
0D80
0840
1020
0000
3800
F800
3800
3800
3800
3800
38C0
3BE0
3C70
3870
3830
3830
3830
3830
3830
3830
3830
3830
FCFC
ENDCHAR
STARTCHAR 0126
ENCODING 294
SWIDTH 720 0
DWIDTH 20 0
BBX 19 18 0 0
BITMAP
7F0FE0
1C0380
7FFFE0
7FFFE0
1C0380
1C0380
1C0380
1C0380
1FFF80
1C0380
1C0380
1C0380
1C0380
1C0380
1C0380
1C0380
1C0380
FF0FE0
ENDCHAR
STARTCHAR 0127
ENCODING 295
SWIDTH 504 0
DWIDTH 14 0
BBX 13 19 0 0
BITMAP
3800
F800
3800
FF00
FF00
3800
38C0
3BE0
3C70
3870
3830
3830
3830
3830
3830
3830
3830
3830
FCF8
ENDCHAR
STARTCHAR 0128
ENCODING 296
SWIDTH 324 0
DWIDTH 9 0
BBX 9 24 0 0
BITMAP
3080
7C80
9F80
8600
0000
0000
7F00
1C00
1C00
1C00
1C00
1C00
1C00
1C00
1C00
1C00
1C00
1C00
1C00
1C00
1C00
1C00
1C00
7F80
ENDCHAR
STARTCHAR 0129
ENCODING 297
SWIDTH 288 0
DWIDTH 8 0
BBX 8 18 0 0
BITMAP
F1
BF
8E
00
00
08
78
18
18
18
18
18
18
18
18
18
18
7E
ENDCHAR
STARTCHAR 012A
ENCODING 298
SWIDTH 324 0
DWIDTH 9 0
BBX 9 22 0 0
BITMAP
FF80
FF80
0000
0000
7F00
1C00
1C00
1C00
1C00
1C00
1C00
1C00
1C00
1C00
1C00
1C00
1C00
1C00
1C00
1C00
1C00
7F80
ENDCHAR
STARTCHAR 012B
ENCODING 299
SWIDTH 288 0
DWIDTH 8 0
BBX 9 17 -1 0
BITMAP
FF80
FF80
0000
0000
0400
3C00
0C00
0C00
0C00
0C00
0C00
0C00
0C00
0C00
0C00
0C00
3F00
ENDCHAR
STARTCHAR 012C
ENCODING 300
SWIDTH 324 0
DWIDTH 9 0
BBX 8 24 1 0
BITMAP
82
C6
7C
38
00
00
FE
38
38
38
38
38
38
38
38
38
38
38
38
38
38
38
38
FF
ENDCHAR
STARTCHAR 012D
ENCODING 301
SWIDTH 288 0
DWIDTH 8 0
BBX 8 18 0 0
BITMAP
81
7E
7C
00
00
08
78
18
18
18
18
18
18
18
18
18
18
7E
ENDCHAR
STARTCHAR 012E
ENCODING 302
SWIDTH 324 0
DWIDTH 9 0
BBX 8 23 1 -5
BITMAP
FE
38
38
38
38
38
38
38
38
38
38
38
38
38
38
38
38
FF
10
20
30
38
1F
ENDCHAR
STARTCHAR 012F
ENCODING 303
SWIDTH 288 0
DWIDTH 8 0
BBX 8 24 1 -5
BITMAP
30
30
00
00
00
00
10
F0
30
30
30
30
30
30
30
30
30
30
FC
20
20
20
39
1E
ENDCHAR
STARTCHAR 0130
ENCODING 304
SWIDTH 324 0
DWIDTH 9 0
BBX 8 23 1 0
BITMAP
38
38
10
00
00
FE
38
38
38
38
38
38
38
38
38
38
38
38
38
38
38
38
FF
ENDCHAR
STARTCHAR 0131
ENCODING 305
SWIDTH 288 0
DWIDTH 8 0
BBX 6 13 1 0
BITMAP
10
F0
30
30
30
30
30
30
30
30
30
30
FC
ENDCHAR
STARTCHAR 0132
ENCODING 306
SWIDTH 720 0
DWIDTH 20 0
BBX 18 18 1 0
BITMAP
FE1FC0
380700
380700
380700
380700
380700
380700
380700
380700
380700
380700
380700
380700
380700
380700
386600
386600
FF7C00
ENDCHAR
STARTCHAR 0133
ENCODING 307
SWIDTH 540 0
DWIDTH 15 0
BBX 12 25 1 -6
BITMAP
3070
3070
0000
0000
0000
0000
1010
F0F0
3070
3030
3030
3030
3030
3030
3030
3030
3030
3030
FC30
0030
0030
0030
0020
0740
0780
ENDCHAR
STARTCHAR 0134
ENCODING 308
SWIDTH 396 0
DWIDTH 11 0
BBX 9 25 1 0
BITMAP
0E00
0F00
1B00
3180
0000
0000
0000
3F80
0E00
0E00
0E00
0E00
0E00
0E00
0E00
0E00
0E00
0E00
0E00
0E00
0E00
0E00
CC00
EC00
F800
ENDCHAR
STARTCHAR 0135
ENCODING 309
SWIDTH 288 0
DWIDTH 8 0
BBX 10 25 -2 -6
BITMAP
0E00
0F00
1B00
1080
2040
0000
0200
1E00
0600
0600
0600
0600
0600
0600
0600
0600
0600
0600
0600
0600
0600
0600
0400
E400
F000
ENDCHAR
STARTCHAR 0136
ENCODING 310
SWIDTH 720 0
DWIDTH 20 0
BBX 20 23 0 -5
BITMAP
7F0F80
1C0600
1C0C00
1C1800
1C3000
1C6000
1CC000
1D8000
1F8000
1FC000
1DE000
1CF000
1C7800
1C3C00
1C1E00
1C0F00
1C0780
FF0FF0
000000
007000
003000
003000
00E000
ENDCHAR
STARTCHAR 0137
ENCODING 311
SWIDTH 504 0
DWIDTH 14 0
BBX 14 24 0 -5
BITMAP
3800
F800
3800
3800
3800
3800
3800
3878
38C0
3980
3B00
3E00
3F00
3B00
3B80
39C0
38E0
3870
FCFC
0000
0380
0180
0180
0700
ENDCHAR
STARTCHAR 0138
ENCODING 312
SWIDTH 504 0
DWIDTH 14 0
BBX 14 12 0 0
BITMAP
7CF8
38C0
3980
3B00
3E00
3F00
3B00
3B80
39C0
38E0
3870
FEFC
ENDCHAR
STARTCHAR 0139
ENCODING 313
SWIDTH 612 0
DWIDTH 17 0
BBX 15 24 1 0
BITMAP
0380
0300
0600
0400
0000
0000
FE00
3800
3800
3800
3800
3800
3800
3800
3800
3800
3800
3800
3800
3800
3802
3806
380C
FFFC
ENDCHAR
STARTCHAR 013A
ENCODING 314
SWIDTH 288 0
DWIDTH 8 0
BBX 6 24 1 0
BITMAP
18
30
30
20
00
30
F0
30
30
30
30
30
30
30
30
30
30
30
30
30
30
30
30
FC
ENDCHAR
STARTCHAR 013B
ENCODING 315
SWIDTH 612 0
DWIDTH 17 0
BBX 15 23 1 -5
BITMAP
FE00
3800
3800
3800
3800
3800
3800
3800
3800
3800
3800
3800
3800
3800
3802
3806
380C
FFFC
0000
0380
01C0
0080
0380
ENDCHAR
STARTCHAR 013C
ENCODING 316
SWIDTH 288 0
DWIDTH 8 0
BBX 6 24 1 -5
BITMAP
30
F0
30
30
30
30
30
30
30
30
30
30
30
30
30
30
30
30
FC
00
30
18
18
70
ENDCHAR
STARTCHAR 013D
ENCODING 317
SWIDTH 612 0
DWIDTH 17 0
BBX 15 19 1 0
BITMAP
0018
FE3C
383C
3804
3804
3808
3810
3800
3800
3800
3800
3800
3800
3800
3800
3802
3806
380C
FFFC
ENDCHAR
STARTCHAR 013E
ENCODING 318
SWIDTH 396 0
DWIDTH 11 0
BBX 10 19 1 0
BITMAP
3380
F3C0
31C0
3040
3080
3180
3000
3000
3000
3000
3000
3000
3000
3000
3000
3000
3000
3000
FC00
ENDCHAR
STARTCHAR 013F
ENCODING 319
SWIDTH 612 0
DWIDTH 17 0
BBX 15 18 1 0
BITMAP
FE00
3800
3800
3800
3800
3800
3800
3860
3870
3860
3800
3800
3800
3800
3802
3806
380C
FFFC
ENDCHAR
STARTCHAR 0140
ENCODING 320
SWIDTH 360 0
DWIDTH 10 0
BBX 9 19 1 0
BITMAP
3000
F000
3000
3000
3000
3000
3000
3000
3300
3380
3300
3000
3000
3000
3000
3000
3000
3000
FC00
ENDCHAR
STARTCHAR 0141
ENCODING 321
SWIDTH 612 0
DWIDTH 17 0
BBX 16 18 0 0
BITMAP
7F00
1C00
1C00
1C00
1C00
1C80
1F00
1E00
1C00
1C00
3C00
DC00
9C00
1C00
1C01
1C02
1C06
FFFE
ENDCHAR
STARTCHAR 0142
ENCODING 322
SWIDTH 288 0
DWIDTH 8 0
BBX 7 19 0 0
BITMAP
18
78
18
18
18
18
18
1A
1C
18
38
58
98
18
18
18
18
18
7E
ENDCHAR
STARTCHAR 0143
ENCODING 323
SWIDTH 720 0
DWIDTH 20 0
BBX 19 24 0 0
BITMAP
007000
006000
004000
008000
000000
000000
F803E0
1C0080
1E0080
1F0080
178080
138080
11C080
10E080
107080
107880
103C80
101C80
100E80
100780
100780
100380
180180
7E0080
ENDCHAR
STARTCHAR 0144
ENCODING 324
SWIDTH 504 0
DWIDTH 14 0
BBX 13 19 1 0
BITMAP
0700
0600
0600
0400
0800
0000
2380
E7C0
68E0
70E0
6060
6060
6060
6060
6060
6060
7060
7060
F9F8
ENDCHAR
STARTCHAR 0145
ENCODING 325
SWIDTH 720 0
DWIDTH 20 0
BBX 19 23 0 -5
BITMAP
F803E0
1C0080
1E0080
1F0080
178080
138080
11C080
10E080
107080
107880
103C80
101C80
100E80
100780
100780
100380
180180
7E0080
000000
007000
003000
003000
00E000
ENDCHAR
STARTCHAR 0146
ENCODING 326
SWIDTH 504 0
DWIDTH 14 0
BBX 13 18 1 -5
BITMAP
2380
E7C0
68E0
70E0
6060
6060
6060
6060
6060
6060
7060
7060
F9F8
0000
0700
0300
0300
0E00
ENDCHAR
STARTCHAR 0147
ENCODING 327
SWIDTH 720 0
DWIDTH 20 0
BBX 19 24 0 0
BITMAP
010800
018800
00D000
00F000
000000
000000
F803E0
1C0080
1E0080
1F0080
178080
138080
11C080
10E080
107080
107880
103C80
101C80
100E80
100780
100780
100380
180180
7E0080
ENDCHAR
STARTCHAR 0148
ENCODING 328
SWIDTH 504 0
DWIDTH 14 0
BBX 13 19 1 0
BITMAP
2000
1080
1900
0F00
0E00
0000
2380
E7C0
68E0
70E0
6060
6060
6060
6060
6060
6060
7060
7060
F9F8
ENDCHAR
STARTCHAR 0149
ENCODING 329
SWIDTH 612 0
DWIDTH 17 0
BBX 17 19 0 0
BITMAP
600000
F00000
F00000
100000
100000
200000
423800
0E7C00
068E00
070E00
060600
060600
060600
060600
060600
060600
060600
070E00
0F9F80
ENDCHAR
STARTCHAR 014A
ENCODING 330
SWIDTH 720 0
DWIDTH 20 0
BBX 17 19 1 0
BITMAP
F87800
39FC00
3A0600
3C0700
3C0380
380380
380380
380380
380380
380380
380380
380380
380380
380380
380300
384300
38E300
38E200
FE7C00
ENDCHAR
STARTCHAR 014B
ENCODING 331
SWIDTH 504 0
DWIDTH 14 0
BBX 12 19 0 -6
BITMAP
11C0
73E0
3470
3870
3030
3030
3030
3030
3030
3030
3830
3830
FE30
0030
0030
0030
0020
0740
0780
ENDCHAR
STARTCHAR 014C
ENCODING 332
SWIDTH 720 0
DWIDTH 20 0
BBX 18 22 1 0
BITMAP
07F800
07F800
000000
01F000
0E3C00
180E00
380700
700380
700380
E001C0
E001C0
E001C0
E001C0
E001C0
E001C0
E001C0
700180
700380
300300
380600
1C0C00
07F800
ENDCHAR
STARTCHAR 014D
ENCODING 333
SWIDTH 504 0
DWIDTH 14 0
BBX 12 17 1 0
BITMAP
3FC0
3FC0
0000
0000
0F00
31C0
60E0
6060
E070
C070
E070
E070
E070
E060
7060
30C0
1F80
ENDCHAR
STARTCHAR 014E
ENCODING 334
SWIDTH 720 0
DWIDTH 20 0
BBX 18 24 1 0
BITMAP
040800
021800
03F000
00C000
000000
01F000
0E3C00
180E00
380700
700380
700380
E001C0
E001C0
E001C0
E001C0
E001C0
E001C0
E001C0
700180
700380
300300
380600
1C0C00
07F800
ENDCHAR
STARTCHAR 014F
ENCODING 335
SWIDTH 504 0
DWIDTH 14 0
BBX 12 18 1 0
BITMAP
2080
3F80
1F00
0000
0000
0F00
31C0
60E0
6060
E070
C070
E070
E070
E070
E060
7060
30C0
1F80
ENDCHAR
STARTCHAR 0150
ENCODING 336
SWIDTH 720 0
DWIDTH 20 0
BBX 18 24 1 0
BITMAP
019800
011800
031000
022000
000000
01F000
0E3C00
180E00
380700
700380
700380
E001C0
E001C0
E001C0
E001C0
E001C0
E001C0
E001C0
700180
700380
300300
380600
1C0C00
07F800
ENDCHAR
STARTCHAR 0151
ENCODING 337
SWIDTH 504 0
DWIDTH 14 0
BBX 12 19 1 0
BITMAP
0CC0
18C0
1880
1100
1100
0000
0F00
31C0
60E0
6060
E070
C070
E070
E070
E070
E060
7060
30C0
1F80
ENDCHAR
STARTCHAR 0152
ENCODING 338
SWIDTH 900 0
DWIDTH 25 0
BBX 23 19 1 0
BITMAP
01C000
0F7FF8
181C08
381C08
701C00
701C00
601C10
E01C10
E01C30
E01FF0
E01C10
E01C10
E01C10
701C00
701C02
301C02
381C04
1C1C0C
07FFFC
ENDCHAR
STARTCHAR 0153
ENCODING 339
SWIDTH 720 0
DWIDTH 20 0
BBX 18 13 1 0
BITMAP
0E0E00
319380
60E1C0
60E1C0
E0FFC0
C06000
C06000
E06000
E06000
E07040
60F8C0
70FF80
1F9F00
ENDCHAR
STARTCHAR 0154
ENCODING 340
SWIDTH 684 0
DWIDTH 19 0
BBX 19 24 0 0
BITMAP
00C000
018000
018000
010000
000000
000000
7FF800
1C3C00
1C1C00
1C0E00
1C0E00
1C0E00
1C1C00
1C3C00
1DF000
1EE000
1CE000
1C7000
1C3800
1C1C00
1C1C00
1C0E00
1C0700
FF07E0
ENDCHAR
STARTCHAR 0155
ENCODING 341
SWIDTH 324 0
DWIDTH 9 0
BBX 9 19 0 0
BITMAP
0600
0E00
0C00
0800
1000
0000
1900
7B80
3D80
3800
3800
3800
3800
3800
3800
3800
3800
3800
FE00
ENDCHAR
STARTCHAR 0156
ENCODING 342
SWIDTH 684 0
DWIDTH 19 0
BBX 19 23 0 -5
BITMAP
7FF800
1C3C00
1C1C00
1C0E00
1C0E00
1C0E00
1C1C00
1C3C00
1DF000
1EE000
1CE000
1C7000
1C3800
1C1C00
1C1C00
1C0E00
1C0700
FF07E0
000000
00E000
007000
002000
00E000
ENDCHAR
STARTCHAR 0157
ENCODING 343
SWIDTH 324 0
DWIDTH 9 0
BBX 9 18 0 -5
BITMAP
1900
7B80
3D80
3800
3800
3800
3800
3800
3800
3800
3800
3800
FE00
0000
1C00
0C00
0C00
3800
ENDCHAR
STARTCHAR 0158
ENCODING 344
SWIDTH 684 0
DWIDTH 19 0
BBX 19 24 0 0
BITMAP
041000
062000
034000
01C000
000000
000000
7FF800
1C3C00
1C1C00
1C0E00
1C0E00
1C0E00
1C1C00
1C3C00
1DF000
1EE000
1CE000
1C7000
1C3800
1C1C00
1C1C00
1C0E00
1C0700
FF07E0
ENDCHAR
STARTCHAR 0159
ENCODING 345
SWIDTH 324 0
DWIDTH 9 0
BBX 9 19 0 0
BITMAP
4000
2100
3200
1E00
1C00
0000
1900
7B80
3D80
3800
3800
3800
3800
3800
3800
3800
3800
3800
FE00
ENDCHAR
STARTCHAR 015A
ENCODING 346
SWIDTH 540 0
DWIDTH 15 0
BBX 12 24 2 0
BITMAP
0700
0600
0C00
0800
0000
1E20
73E0
40E0
C060
C020
C020
F020
F800
7E00
1F80
0FC0
03E0
00F0
8070
8070
8030
C060
E060
BFC0
ENDCHAR
STARTCHAR 015B
ENCODING 347
SWIDTH 396 0
DWIDTH 11 0
BBX 9 19 1 0
BITMAP
0E00
0C00
0C00
0800
1000
0000
1D00
6300
4100
C100
E000
7800
3E00
1F00
0780
8380
8180
C100
FE00
ENDCHAR
STARTCHAR 015C
ENCODING 348
SWIDTH 540 0
DWIDTH 15 0
BBX 12 25 2 0
BITMAP
0E00
0F00
1B00
1180
2000
0000
1E20
73E0
40E0
C060
C020
C020
F020
F800
7E00
1F80
0FC0
03E0
00F0
8070
8070
8030
C060
E060
BFC0
ENDCHAR
STARTCHAR 015D
ENCODING 349
SWIDTH 396 0
DWIDTH 11 0
BBX 9 19 1 0
BITMAP
1C00
3C00
2600
4300
0000
0000
1D00
6300
4100
C100
E000
7800
3E00
1F00
0780
8380
8180
C100
FE00
ENDCHAR
STARTCHAR 015E
ENCODING 350
SWIDTH 540 0
DWIDTH 15 0
BBX 12 24 2 -5
BITMAP
1E20
73E0
40E0
C060
C020
C020
F020
F800
7E00
1F80
0FC0
03E0
00F0
8070
8070
8030
C060
E060
BFC0
0400
0E00
0600
0600
0E00
ENDCHAR
STARTCHAR 015F
ENCODING 351
SWIDTH 396 0
DWIDTH 11 0
BBX 9 18 1 -5
BITMAP
1D00
6300
4100
C100
E000
7800
3E00
1F00
0780
8380
8180
C100
F600
0800
1C00
0C00
0C00
1C00
ENDCHAR
STARTCHAR 0160
ENCODING 352
SWIDTH 540 0
DWIDTH 15 0
BBX 12 24 2 0
BITMAP
2080
1900
1F00
0E00
0000
1E20
73E0
40E0
C060
C020
C020
F020
F800
7E00
1F80
0FC0
03E0
00F0
8070
8070
8030
C060
E060
BFC0
ENDCHAR
STARTCHAR 0161
ENCODING 353
SWIDTH 396 0
DWIDTH 11 0
BBX 9 19 1 0
BITMAP
0100
6200
3600
3C00
1C00
0000
1D00
6300
4100
C100
E000
7800
3E00
1F00
0780
8380
8180
C100
FE00
ENDCHAR
STARTCHAR 0162
ENCODING 354
SWIDTH 612 0
DWIDTH 17 0
BBX 15 24 1 -6
BITMAP
FFFE
8382
8382
0380
0380
0380
0380
0380
0380
0380
0380
0380
0380
0380
0380
0380
0380
0FE0
0000
0100
0380
0380
0080
0300
ENDCHAR
STARTCHAR 0163
ENCODING 355
SWIDTH 288 0
DWIDTH 8 0
BBX 7 22 0 -5
BITMAP
10
10
30
70
FE
30
30
30
30
30
30
30
30
38
3A
1C
00
18
3C
14
08
18
ENDCHAR
STARTCHAR 0164
ENCODING 356
SWIDTH 612 0
DWIDTH 17 0
BBX 15 24 1 0
BITMAP
0820
0640
07C0
0380
0000
0000
FFFE
8382
8382
0380
0380
0380
0380
0380
0380
0380
0380
0380
0380
0380
0380
0380
0380
0FE0
ENDCHAR
STARTCHAR 0165
ENCODING 357
SWIDTH 432 0
DWIDTH 12 0
BBX 12 19 0 0
BITMAP
00E0
00F0
00F0
1020
1020
3040
7080
FE00
3000
3000
3000
3000
3000
3000
3000
3000
3800
3A00
1C00
ENDCHAR
STARTCHAR 0166
ENCODING 358
SWIDTH 612 0
DWIDTH 17 0
BBX 15 18 1 0
BITMAP
FFFE
8382
8382
0380
0380
0380
0380
0380
7FFC
0380
0380
0380
0380
0380
0380
0380
0380
0FE0
ENDCHAR
STARTCHAR 0167
ENCODING 359
SWIDTH 288 0
DWIDTH 8 0
BBX 7 16 0 1
BITMAP
10
10
30
70
FE
30
30
30
FE
30
30
30
30
38
3A
1C
ENDCHAR
STARTCHAR 0168
ENCODING 360
SWIDTH 720 0
DWIDTH 20 0
BBX 18 24 1 0
BITMAP
018400
03E400
04F800
043000
000000
000000
FE07C0
380100
300100
300100
300100
300100
300100
300100
300100
300100
300100
300100
380100
380100
380300
180200
1C0C00
07F800
ENDCHAR
STARTCHAR 0169
ENCODING 361
SWIDTH 504 0
DWIDTH 14 0
BBX 13 18 1 0
BITMAP
3E40
2FC0
4380
0000
0000
0000
E1E0
6060
6060
6060
6060
6060
6060
6060
6060
70E0
3B68
3E70
ENDCHAR
STARTCHAR 016A
ENCODING 362
SWIDTH 720 0
DWIDTH 20 0
BBX 18 22 1 0
BITMAP
07FC00
07FC00
000000
000000
FE07C0
380100
300100
300100
300100
300100
300100
300100
300100
300100
300100
300100
380100
380100
380300
180200
1C0C00
07F800
ENDCHAR
STARTCHAR 016B
ENCODING 363
SWIDTH 504 0
DWIDTH 14 0
BBX 13 17 1 0
BITMAP
3FC0
3FC0
0000
0000
0000
E1E0
6060
6060
6060
6060
6060
6060
6060
6060
70E0
3B68
3E70
ENDCHAR
STARTCHAR 016C
ENCODING 364
SWIDTH 720 0
DWIDTH 20 0
BBX 18 24 1 0
BITMAP
040800
021800
03F000
00C000
000000
000000
FE07C0
380100
300100
300100
300100
300100
300100
300100
300100
300100
300100
300100
380100
380100
380300
180200
1C0C00
07F800
ENDCHAR
STARTCHAR 016D
ENCODING 365
SWIDTH 504 0
DWIDTH 14 0
BBX 13 18 1 0
BITMAP
2040
1F80
0F00
0000
0000
0000
E1E0
6060
6060
6060
6060
6060
6060
6060
6060
70E0
3B68
3E70
ENDCHAR
STARTCHAR 016E
ENCODING 366
SWIDTH 720 0
DWIDTH 20 0
BBX 18 25 1 0
BITMAP
004000
00B000
011000
011000
01B000
004000
000000
FE07C0
380100
300100
300100
300100
300100
300100
300100
300100
300100
300100
300100
380100
380100
380300
180200
1C0C00
07F800
ENDCHAR
STARTCHAR 016F
ENCODING 367
SWIDTH 504 0
DWIDTH 14 0
BBX 13 19 1 0
BITMAP
0F00
1100
1100
1900
0E00
0000
0000
E1E0
60E0
6060
6060
6060
6060
6060
6060
6060
70E0
3B68
3E70
ENDCHAR
STARTCHAR 0170
ENCODING 368
SWIDTH 720 0
DWIDTH 20 0
BBX 18 24 1 0
BITMAP
019C00
019800
011000
021000
000000
000000
FE07C0
380100
300100
300100
300100
300100
300100
300100
300100
300100
300100
300100
380100
380100
380300
180200
1C0C00
07F800
ENDCHAR
STARTCHAR 0171
ENCODING 369
SWIDTH 504 0
DWIDTH 14 0
BBX 13 19 1 0
BITMAP
1DC0
1980
1180
1100
2000
0000
0000
E1E0
60E0
6060
6060
6060
6060
6060
6060
6060
70E0
3B68
3E70
ENDCHAR
STARTCHAR 0172
ENCODING 370
SWIDTH 720 0
DWIDTH 20 0
BBX 18 23 1 -5
BITMAP
FE07C0
380100
300100
300100
300100
300100
300100
300100
300100
300100
300100
300100
380100
380100
380300
180200
1C0C00
07F800
004000
004000
00C000
006000
003C00
ENDCHAR
STARTCHAR 0173
ENCODING 371
SWIDTH 504 0
DWIDTH 14 0
BBX 14 17 1 -5
BITMAP
E1E0
60E0
6060
6060
6060
6060
6060
6060
6060
70E0
3B68
3E70
0080
0080
00C0
00E0
007C
ENDCHAR
STARTCHAR 0174
ENCODING 372
SWIDTH 936 0
DWIDTH 26 0
BBX 25 25 1 0
BITMAP
00180000
003C0000
00260000
00420000
00810000
00000000
00000000
FC7E0F80
30380200
381C0600
381C0400
181C0400
1C1E0800
1C1E0800
0C160800
0E371000
0E271000
06231000
0763A000
0743A000
03C1A000
0381C000
0181C000
0180C000
01008000
ENDCHAR
STARTCHAR 0175
ENCODING 373
SWIDTH 720 0
DWIDTH 20 0
BBX 18 19 1 0
BITMAP
00C000
01E000
033000
021000
040800
000000
000000
F1F1C0
60C080
70E080
306100
30F100
38B100
193200
1D3A00
0E1C00
0E1C00
0C0C00
040800
ENDCHAR
STARTCHAR 0176
ENCODING 374
SWIDTH 720 0
DWIDTH 20 0
BBX 18 25 1 0
BITMAP
00C000
01E000
013000
021000
040800
000000
000000
FE07C0
380300
3C0200
1C0400
0E0400
0E0800
071800
039000
03A000
01E000
00C000
00C000
00C000
00C000
00C000
00C000
01C000
07F800
ENDCHAR
STARTCHAR 0177
ENCODING 375
SWIDTH 504 0
DWIDTH 14 0
BBX 12 25 1 -6
BITMAP
0700
0F00
0980
1080
2040
0000
0000
F070
7020
3060
3040
3840
1880
1C80
0D80
0F00
0700
0600
0200
0600
0400
0400
C800
F800
E000
ENDCHAR
STARTCHAR 0178
ENCODING 376
SWIDTH 720 0
DWIDTH 20 0
BBX 18 23 1 0
BITMAP
033800
073800
031000
000000
000000
FE07C0
380300
3C0200
1C0400
0E0400
0E0800
071800
039000
03A000
01E000
00C000
00C000
00C000
00C000
00C000
00C000
01C000
07F800
ENDCHAR
STARTCHAR 0179
ENCODING 377
SWIDTH 612 0
DWIDTH 17 0
BBX 16 24 0 0
BITMAP
00E0
00C0
0080
0100
0000
0000
3FFE
200E
201C
2038
0078
0070
00E0
01C0
01C0
0380
0700
0700
0E00
1C00
3C01
3801
7007
FFFE
ENDCHAR
STARTCHAR 017A
ENCODING 378
SWIDTH 432 0
DWIDTH 12 0
BBX 11 19 1 0
BITMAP
0700
0600
0C00
0800
0000
0000
0000
FFE0
81C0
8380
0300
0700
0E00
1C00
1800
3820
7020
E020
FFE0
ENDCHAR
STARTCHAR 017B
ENCODING 379
SWIDTH 612 0
DWIDTH 17 0
BBX 16 23 0 0
BITMAP
00C0
01C0
0080
0000
0000
3FFE
200E
201C
2038
0078
0070
00E0
01C0
01C0
0380
0700
0700
0E00
1C00
3C01
3801
7007
FFFE
ENDCHAR
STARTCHAR 017C
ENCODING 380
SWIDTH 432 0
DWIDTH 12 0
BBX 11 18 1 0
BITMAP
0E00
0E00
0400
0000
0000
0000
FFE0
81C0
8380
0300
0700
0E00
1C00
1800
3820
7020
E020
FFE0
ENDCHAR
STARTCHAR 017D
ENCODING 381
SWIDTH 612 0
DWIDTH 17 0
BBX 16 24 0 0
BITMAP
0410
0320
03E0
01C0
0000
0000
3FFE
200E
201C
2038
0078
0070
00E0
01C0
01C0
0380
0700
0700
0E00
1C00
3C01
3801
7007
FFFE
ENDCHAR
STARTCHAR 017E
ENCODING 382
SWIDTH 432 0
DWIDTH 12 0
BBX 11 19 1 0
BITMAP
0080
3100
1B00
1E00
0E00
0000
0000
FFE0
81C0
8380
0300
0700
0E00
1C00
1800
3820
7020
E020
FFE0
ENDCHAR
STARTCHAR 017F
ENCODING 383
SWIDTH 288 0
DWIDTH 8 0
BBX 10 19 1 0
BITMAP
0F80
11C0
30C0
3000
3000
3000
3000
3000
3000
3000
3000
3000
3000
3000
3000
3000
3000
7000
FC00
ENDCHAR
STARTCHAR 018F
ENCODING 399
SWIDTH 720 0
DWIDTH 20 0
BBX 18 19 1 0
BITMAP
01E000
3E1C00
380E00
300700
200300
200380
0003C0
0001C0
0001C0
FFFFC0
E001C0
E001C0
E001C0
E00380
700380
700700
380700
1C0E00
07F800
ENDCHAR
STARTCHAR 0192
ENCODING 402
SWIDTH 504 0
DWIDTH 14 0
BBX 14 25 0 -6
BITMAP
0038
006C
0048
00C0
00C0
00C0
0180
07F0
0180
0180
0380
0300
0300
0300
0700
0600
0600
0600
0600
0C00
0C00
0800
C800
D000
6000
ENDCHAR
STARTCHAR 01A0
ENCODING 416
SWIDTH 720 0
DWIDTH 20 0
BBX 18 21 1 0
BITMAP
000180
000180
01E080
0E1F00
180600
380700
700380
700380
E001C0
E001C0
E001C0
E001C0
E001C0
E001C0
E001C0
700180
700380
300300
380600
1C0C00
07F800
ENDCHAR
STARTCHAR 01A1
ENCODING 417
SWIDTH 540 0
DWIDTH 15 0
BBX 14 13 1 0
BITMAP
0F1C
31DC
60E8
6070
E070
C070
E070
E070
E070
E060
7060
30C0
1F80
ENDCHAR
STARTCHAR 01AF
ENCODING 431
SWIDTH 792 0
DWIDTH 22 0
BBX 21 21 1 1
BITMAP
000018
000018
000018
FE07E0
380100
300100
300100
300100
300100
300100
300100
300100
300100
300100
300100
380100
380100
380300
180200
1C0C00
07F800
ENDCHAR
STARTCHAR 01B0
ENCODING 432
SWIDTH 540 0
DWIDTH 15 0
BBX 14 13 1 0
BITMAP
001C
E1FC
60EC
6070
6060
6060
6060
6060
6060
6060
70E0
3B68
3E70
ENDCHAR
STARTCHAR 01CD
ENCODING 461
SWIDTH 720 0
DWIDTH 20 0
BBX 20 24 0 0
BITMAP
010800
019800
00F000
00F000
000000
000000
006000
006000
00F000
00F000
01B000
013800
013800
021C00
021C00
060E00
040E00
0FFE00
080700
080700
100380
100380
3003C0
FC0FF0
ENDCHAR
STARTCHAR 01CE
ENCODING 462
SWIDTH 432 0
DWIDTH 12 0
BBX 11 19 1 0
BITMAP
4080
2100
1B00
1E00
0E00
0000
1E00
6380
6180
E180
4180
0780
1980
6180
C180
C180
E180
E7E0
79C0
ENDCHAR
STARTCHAR 01CF
ENCODING 463
SWIDTH 324 0
DWIDTH 9 0
BBX 8 24 1 0
BITMAP
82
64
7C
38
00
00
FE
38
38
38
38
38
38
38
38
38
38
38
38
38
38
38
38
FF
ENDCHAR
STARTCHAR 01D0
ENCODING 464
SWIDTH 288 0
DWIDTH 8 0
BBX 8 19 0 0
BITMAP
81
42
64
3C
18
00
08
78
18
18
18
18
18
18
18
18
18
18
7E
ENDCHAR
STARTCHAR 01D1
ENCODING 465
SWIDTH 720 0
DWIDTH 20 0
BBX 18 24 1 0
BITMAP
020800
031000
01A000
00E000
000000
01F000
0E3C00
180E00
380700
700380
700380
E001C0
E001C0
E001C0
E001C0
E001C0
E001C0
E001C0
700180
700380
300300
380600
1C0C00
07F800
ENDCHAR
STARTCHAR 01D2
ENCODING 466
SWIDTH 504 0
DWIDTH 14 0
BBX 12 19 1 0
BITMAP
2040
1080
1900
0F00
0600
0000
0F00
31C0
60E0
6060
E070
C070
E070
E070
E070
E060
7060
30C0
1F80
ENDCHAR
STARTCHAR 01D3
ENCODING 467
SWIDTH 720 0
DWIDTH 20 0
BBX 18 24 1 0
BITMAP
021000
033000
01E000
01E000
000000
000000
FE07C0
380100
300100
300100
300100
300100
300100
300100
300100
300100
300100
300100
380100
380100
380300
180200
1C0C00
07F800
ENDCHAR
STARTCHAR 01D4
ENCODING 468
SWIDTH 504 0
DWIDTH 14 0
BBX 13 19 1 0
BITMAP
2040
1080
1900
0F00
0600
0000
0000
E1E0
60E0
6060
6060
6060
6060
6060
6060
6060
70E0
3B68
3E70
ENDCHAR
STARTCHAR 01D5
ENCODING 469
SWIDTH 720 0
DWIDTH 20 0
BBX 18 25 1 0
BITMAP
03F000
03F000
000000
033000
033000
000000
000000
FE07C0
380100
300100
300100
300100
300100
300100
300100
300100
300100
300100
300100
380100
380100
380300
180200
1C0C00
07F800
ENDCHAR
STARTCHAR 01D6
ENCODING 470
SWIDTH 504 0
DWIDTH 14 0
BBX 13 21 1 0
BITMAP
3FC0
3FC0
0000
0000
39C0
39C0
1080
0000
0000
E1E0
60E0
6060
6060
6060
6060
6060
6060
6060
70E0
3B68
3E70
ENDCHAR
STARTCHAR 01D7
ENCODING 471
SWIDTH 720 0
DWIDTH 20 0
BBX 18 25 1 0
BITMAP
006000
00C000
008000
033000
033000
000000
000000
FE07C0
380100
300100
300100
300100
300100
300100
300100
300100
300100
300100
300100
380100
380100
380300
180200
1C0C00
07F800
ENDCHAR
STARTCHAR 01D8
ENCODING 472
SWIDTH 504 0
DWIDTH 14 0
BBX 13 23 1 0
BITMAP
0380
0700
0600
0400
0000
0000
39C0
39C0
1080
0000
0000
E1E0
60E0
6060
6060
6060
6060
6060
6060
6060
70E0
3B68
3E70
ENDCHAR
STARTCHAR 01D9
ENCODING 473
SWIDTH 720 0
DWIDTH 20 0
BBX 18 25 1 0
BITMAP
021000
01E000
00C000
033000
033000
000000
000000
FE07C0
380100
300100
300100
300100
300100
300100
300100
300100
300100
300100
300100
380100
380100
380300
180200
1C0C00
07F800
ENDCHAR
STARTCHAR 01DA
ENCODING 474
SWIDTH 504 0
DWIDTH 14 0
BBX 13 23 1 0
BITMAP
2040
1080
1900
0F00
0E00
0000
39C0
39C0
1080
0000
0000
E1E0
60E0
6060
6060
6060
6060
6060
6060
6060
70E0
3B68
3E70
ENDCHAR
STARTCHAR 01DB
ENCODING 475
SWIDTH 720 0
DWIDTH 20 0
BBX 18 25 1 0
BITMAP
018000
00C000
004000
033000
033000
000000
000000
FE07C0
380100
300100
300100
300100
300100
300100
300100
300100
300100
300100
300100
380100
380100
380300
180200
1C0C00
07F800
ENDCHAR
STARTCHAR 01DC
ENCODING 476
SWIDTH 504 0
DWIDTH 14 0
BBX 13 23 1 0
BITMAP
1C00
0C00
0600
0200
0000
0000
39C0
39C0
1080
0000
0000
E1E0
60E0
6060
6060
6060
6060
6060
6060
6060
70E0
3B68
3E70
ENDCHAR
STARTCHAR 01FA
ENCODING 506
SWIDTH 720 0
DWIDTH 20 0
BBX 20 28 0 0
BITMAP
003800
003000
006000
004000
000000
00F000
009000
010800
019000
00F000
006000
006000
00F000
00F000
01B000
013800
013800
021C00
021C00
060E00
040E00
0FFE00
080700
080700
100380
100380
3003C0
FC0FF0
ENDCHAR
STARTCHAR 01FB
ENCODING 507
SWIDTH 432 0
DWIDTH 12 0
BBX 11 25 1 0
BITMAP
0700
0600
0400
0800
0800
0000
1E00
1100
1100
1200
0E00
0000
1E00
6380
6180
E180
4180
0780
1980
6180
C180
C180
E180
E7E0
79C0
ENDCHAR
STARTCHAR 01FC
ENCODING 508
SWIDTH 900 0
DWIDTH 25 0
BBX 24 25 0 0
BITMAP
000E00
000C00
000800
001000
001000
000000
000000
00FFFC
003C04
005C04
005C00
009C00
009C08
011C08
011C18
021FF8
061C08
07FC08
0C1C08
081C00
181C01
101C01
301C02
201C06
F87FFE
ENDCHAR
STARTCHAR 01FD
ENCODING 509
SWIDTH 684 0
DWIDTH 19 0
BBX 17 19 1 0
BITMAP
00E000
00C000
008000
010000
010000
000000
1E1C00
634600
618300
E18380
41FF80
078000
198000
618000
C18000
C1C100
C1C100
E2FE00
7C7C00
ENDCHAR
STARTCHAR 01FE
ENCODING 510
SWIDTH 720 0
DWIDTH 20 0
BBX 18 25 1 -1
BITMAP
007000
006000
00C000
008000
000000
000000
01E080
0E1D00
180F00
380700
700780
700B80
E011C0
E031C0
E061C0
E041C0
E081C0
E101C0
E301C0
760180
740380
380300
380600
3C0C00
67F800
ENDCHAR
STARTCHAR 01FF
ENCODING 511
SWIDTH 504 0
DWIDTH 14 0
BBX 12 20 1 -1
BITMAP
0380
0300
0600
0400
0000
0000
0F10
31E0
20E0
60E0
E1F0
E170
E270
E470
E870
7060
7060
70C0
9F80
8000
ENDCHAR
STARTCHAR 0218
ENCODING 536
SWIDTH 540 0
DWIDTH 15 0
BBX 12 25 2 -6
BITMAP
1E20
73E0
40E0
C060
C020
C020
F020
F800
7E00
1F80
0FC0
03E0
00F0
8070
8070
8030
C060
E060
BFC0
0000
0600
0F00
0500
0100
0600
ENDCHAR
STARTCHAR 0219
ENCODING 537
SWIDTH 396 0
DWIDTH 11 0
BBX 9 19 1 -6
BITMAP
1D00
6300
4100
C100
E000
7800
3E00
1F00
0780
8380
8180
C100
F600
0800
0800
1C00
0C00
0400
1800
ENDCHAR
STARTCHAR 021A
ENCODING 538
SWIDTH 612 0
DWIDTH 17 0
BBX 15 24 1 -6
BITMAP
FFFE
8382
8382
0380
0380
0380
0380
0380
0380
0380
0380
0380
0380
0380
0380
0380
0380
0FE0
0000
0100
0380
0380
0080
0300
ENDCHAR
STARTCHAR 021B
ENCODING 539
SWIDTH 288 0
DWIDTH 8 0
BBX 7 22 0 -5
BITMAP
10
10
30
70
FE
30
30
30
30
30
30
30
30
38
3A
1C
00
18
3C
14
08
18
ENDCHAR
STARTCHAR 0259
ENCODING 601
SWIDTH 432 0
DWIDTH 12 0
BBX 11 13 1 0
BITMAP
0E00
3F80
6780
41C0
80C0
00E0
00E0
0060
FFC0
E040
E0C0
7080
3F00
ENDCHAR
STARTCHAR 02C6
ENCODING 710
SWIDTH 324 0
DWIDTH 9 0
BBX 7 4 1 14
BITMAP
38
3C
6C
C6
ENDCHAR
STARTCHAR 02C7
ENCODING 711
SWIDTH 324 0
DWIDTH 9 0
BBX 7 5 1 14
BITMAP
80
42
64
3C
38
ENDCHAR
STARTCHAR 02C9
ENCODING 713
SWIDTH 324 0
DWIDTH 9 0
BBX 9 1 0 17
BITMAP
FF80
ENDCHAR
STARTCHAR 02D8
ENCODING 728
SWIDTH 324 0
DWIDTH 9 0
BBX 7 3 1 15
BITMAP
82
FE
7C
ENDCHAR
STARTCHAR 02D9
ENCODING 729
SWIDTH 324 0
DWIDTH 9 0
BBX 3 3 3 15
BITMAP
E0
E0
40
ENDCHAR
STARTCHAR 02DA
ENCODING 730
SWIDTH 324 0
DWIDTH 9 0
BBX 5 5 2 14
BITMAP
78
88
88
C8
70
ENDCHAR
STARTCHAR 02DB
ENCODING 731
SWIDTH 324 0
DWIDTH 9 0
BBX 6 5 2 -5
BITMAP
40
80
C0
E0
7C
ENDCHAR
STARTCHAR 02DC
ENCODING 732
SWIDTH 324 0
DWIDTH 9 0
BBX 9 3 0 15
BITMAP
7880
5F80
8F00
ENDCHAR
STARTCHAR 02DD
ENCODING 733
SWIDTH 324 0
DWIDTH 9 0
BBX 8 5 1 14
BITMAP
67
66
44
84
88
ENDCHAR
STARTCHAR 0300
ENCODING 768
SWIDTH 0 0
DWIDTH 0 0
BBX 4 5 -6 20
BITMAP
C0
E0
60
20
10
ENDCHAR
STARTCHAR 0301
ENCODING 769
SWIDTH 0 0
DWIDTH 0 0
BBX 4 4 -5 20
BITMAP
70
60
C0
80
ENDCHAR
STARTCHAR 0303
ENCODING 771
SWIDTH 0 0
DWIDTH 0 0
BBX 8 4 -10 20
BITMAP
60
F9
9F
0E
ENDCHAR
STARTCHAR 0309
ENCODING 777
SWIDTH 0 0
DWIDTH 0 0
BBX 4 4 -6 20
BITMAP
60
90
10
20
ENDCHAR
STARTCHAR 0323
ENCODING 803
SWIDTH 0 0
DWIDTH 0 0
BBX 3 2 -12 -5
BITMAP
E0
E0
ENDCHAR
STARTCHAR 037E
ENCODING 894
SWIDTH 288 0
DWIDTH 8 0
BBX 4 18 2 -5
BITMAP
60
E0
60
00
00
00
00
00
00
00
60
F0
F0
10
10
20
40
80
ENDCHAR
STARTCHAR 0384
ENCODING 900
SWIDTH 324 0
DWIDTH 9 0
BBX 4 5 3 14
BITMAP
30
70
60
40
80
ENDCHAR
STARTCHAR 0385
ENCODING 901
SWIDTH 324 0
DWIDTH 9 0
BBX 10 5 0 14
BITMAP
0E00
0C00
CD80
F9C0
D180
ENDCHAR
STARTCHAR 0386
ENCODING 902
SWIDTH 720 0
DWIDTH 20 0
BBX 20 19 0 0
BITMAP
0C0000
1C6000
186000
10F000
20F000
01B000
013800
013800
021C00
021C00
060E00
040E00
0FFE00
080700
080700
100380
100380
3003C0
FC0FF0
ENDCHAR
STARTCHAR 0387
ENCODING 903
SWIDTH 288 0
DWIDTH 8 0
BBX 3 3 2 10
BITMAP
60
E0
60
ENDCHAR
STARTCHAR 0388
ENCODING 904
SWIDTH 684 0
DWIDTH 19 0
BBX 21 19 -2 0
BITMAP
700000
67FFE0
C1C020
81C020
81C000
01C000
01C040
01C040
01C0C0
01FFC0
01C0C0
01C040
01C040
01C000
01C008
01C010
01C010
01C030
07FFE0
ENDCHAR
STARTCHAR 0389
ENCODING 905
SWIDTH 792 0
DWIDTH 22 0
BBX 24 19 -2 0
BITMAP
700000
67F0FE
C1C018
81C018
81C018
01C018
01C018
01C018
01C018
01FFF8
01C018
01C018
01C018
01C018
01C018
01C018
01C018
01C038
07F8FF
ENDCHAR
STARTCHAR 038A
ENCODING 906
SWIDTH 396 0
DWIDTH 11 0
BBX 13 19 -2 0
BITMAP
7000
67F0
C1C0
81C0
81C0
01C0
01C0
01C0
01C0
01C0
01C0
01C0
01C0
01C0
01C0
01C0
01C0
01C0
07F8
ENDCHAR
STARTCHAR 038C
ENCODING 908
SWIDTH 720 0
DWIDTH 20 0
BBX 20 19 -1 0
BITMAP
707C00
638F00
460380
CE01C0
9C00E0
1C00E0
380070
380070
380070
380070
380070
380070
380070
1C0060
1C00E0
0C00C0
0E0180
070300
01FE00
ENDCHAR
STARTCHAR 038E
ENCODING 910
SWIDTH 828 0
DWIDTH 23 0
BBX 24 19 -2 0
BITMAP
700000
67F03F
C1E00C
80E018
807010
007020
003860
001C40
001CC0
000E80
000700
000700
000700
000700
000700
000700
000700
000700
001FC0
ENDCHAR
STARTCHAR 038F
ENCODING 911
SWIDTH 756 0
DWIDTH 21 0
BBX 21 19 -1 0
BITMAP
707C00
63C780
4701C0
CE00E0
9C00E0
1C0070
1C0070
1C0070
3C0070
1C0070
1C0070
1C0070
0C00E0
0600C0
030180
408208
3F87F8
3F87F8
3F87F8
ENDCHAR
STARTCHAR 0390
ENCODING 912
SWIDTH 252 0
DWIDTH 7 0
BBX 10 19 -1 0
BITMAP
0600
0E00
ED80
E9C0
5180
0000
0400
3C00
1C00
0C00
0C00
0C00
0C00
0C00
0C00
0C00
0C80
0D00
0F00
ENDCHAR
STARTCHAR 0391
ENCODING 913
SWIDTH 720 0
DWIDTH 20 0
BBX 20 18 0 1
BITMAP
006000
006000
00F000
00F000
01B000
013800
013800
021C00
021C00
060E00
040E00
0FFE00
080700
080700
100380
100380
3003C0
FC0FF0
ENDCHAR
STARTCHAR 0392
ENCODING 914
SWIDTH 684 0
DWIDTH 19 0
BBX 17 18 0 0
BITMAP
7FFC00
1C0E00
1C0700
1C0700
1C0700
1C0700
1C0700
1C0E00
1FF800
1C1E00
1C0700
1C0780
1C0380
1C0380
1C0380
1C0700
1C0E00
FFF800
ENDCHAR
STARTCHAR 0393
ENCODING 915
SWIDTH 576 0
DWIDTH 16 0
BBX 14 18 1 0
BITMAP
7FFC
3804
3804
3800
3800
3800
3800
3800
3800
3800
3800
3800
3800
3800
3800
3800
3800
FE00
ENDCHAR
STARTCHAR 0394
ENCODING 916
SWIDTH 648 0
DWIDTH 18 0
BBX 16 19 1 0
BITMAP
0080
0180
0180
03C0
03C0
02E0
04E0
0460
0C70
0830
1838
1038
1018
201C
200C
600E
400E
C007
FFFF
ENDCHAR
STARTCHAR 0395
ENCODING 917
SWIDTH 612 0
DWIDTH 17 0
BBX 15 18 1 0
BITMAP
FFFC
3804
3804
3804
3800
3800
3810
3810
3FF0
3810
3810
3800
3800
3800
3802
3806
380C
FFFC
ENDCHAR
STARTCHAR 0396
ENCODING 918
SWIDTH 612 0
DWIDTH 17 0
BBX 16 18 0 0
BITMAP
3FFE
200E
201C
2038
0078
0070
00E0
01C0
01C0
0380
0700
0700
0E00
1C00
3C01
3801
7007
FFFE
ENDCHAR
STARTCHAR 0397
ENCODING 919
SWIDTH 720 0
DWIDTH 20 0
BBX 19 18 0 0
BITMAP
7F0FE0
1C0380
1C0380
1C0380
1C0380
1C0380
1C0380
1C0380
1FFF80
1C0380
1C0380
1C0380
1C0380
1C0380
1C0380
1C0380
1C0380
FF0FE0
ENDCHAR
STARTCHAR 0398
ENCODING 920
SWIDTH 720 0
DWIDTH 20 0
BBX 18 19 1 0
BITMAP
01E000
061C00
180600
380700
700380
700380
6001C0
E411C0
E211C0
E3F1C0
E3F1C0
E211C0
E411C0
700180
700380
300300
380700
1C0C00
07F800
ENDCHAR
STARTCHAR 0399
ENCODING 921
SWIDTH 324 0
DWIDTH 9 0
BBX 8 18 1 0
BITMAP
FE
38
38
38
38
38
38
38
38
38
38
38
38
38
38
38
38
FF
ENDCHAR
STARTCHAR 039A
ENCODING 922
SWIDTH 720 0
DWIDTH 20 0
BBX 20 18 0 0
BITMAP
7F0F80
1C0600
1C0C00
1C1800
1C3000
1C6000
1CC000
1D8000
1F8000
1FC000
1DE000
1CF000
1C7800
1C3C00
1C1E00
1C0F00
1C0780
FF0FF0
ENDCHAR
STARTCHAR 039B
ENCODING 923
SWIDTH 720 0
DWIDTH 20 0
BBX 20 19 0 0
BITMAP
004000
006000
006000
00F000
00F000
01B000
013800
013800
021C00
021C00
060E00
040E00
040600
080700
080700
180380
100380
3003C0
FC0FF0
ENDCHAR
STARTCHAR 039C
ENCODING 924
SWIDTH 900 0
DWIDTH 25 0
BBX 24 18 0 0
BITMAP
7C003F
1E003C
1E003C
16005C
17005C
1300DC
13809C
11819C
11C11C
11C31C
10E21C
10E61C
10741C
10741C
10381C
10381C
10181C
FE10FF
ENDCHAR
STARTCHAR 039D
ENCODING 925
SWIDTH 720 0
DWIDTH 20 0
BBX 19 18 0 0
BITMAP
F803E0
1C0080
1E0080
1F0080
178080
138080
11C080
10E080
107080
107880
103C80
101C80
100E80
100780
100780
100380
180180
7E0080
ENDCHAR
STARTCHAR 039E
ENCODING 926
SWIDTH 648 0
DWIDTH 18 0
BBX 16 18 1 0
BITMAP
7FFE
7FFE
4002
8002
0000
0000
1008
1818
1FF8
1FF8
1008
1008
0000
8001
8001
E003
FFFF
FFFF
ENDCHAR
STARTCHAR 039F
ENCODING 927
SWIDTH 720 0
DWIDTH 20 0
BBX 18 19 1 0
BITMAP
01F000
0E3C00
180E00
380700
700380
700380
E001C0
E001C0
E001C0
E001C0
E001C0
E001C0
E001C0
700180
700380
300300
380600
1C0C00
07F800
ENDCHAR
STARTCHAR 03A0
ENCODING 928
SWIDTH 720 0
DWIDTH 20 0
BBX 19 18 1 0
BITMAP
7FFFC0
380700
380700
380700
380700
380700
380700
380700
380700
380700
380700
380700
380700
380700
380700
380700
380700
FE1FE0
ENDCHAR
STARTCHAR 03A1
ENCODING 929
SWIDTH 540 0
DWIDTH 15 0
BBX 14 18 0 0
BITMAP
7FF0
1C38
1C1C
1C1C
1C1C
1C1C
1C1C
1C1C
1C78
1FE0
1C00
1C00
1C00
1C00
1C00
1C00
1C00
FF00
ENDCHAR
STARTCHAR 03A3
ENCODING 931
SWIDTH 576 0
DWIDTH 16 0
BBX 15 18 0 0
BITMAP
7FFC
3804
3C04
1C02
0E00
0700
0780
03C0
0180
0180
0300
0200
0400
0802
1002
3FFE
7FFE
FFFE
ENDCHAR
STARTCHAR 03A4
ENCODING 932
SWIDTH 612 0
DWIDTH 17 0
BBX 15 18 1 0
BITMAP
FFFE
8382
8382
0380
0380
0380
0380
0380
0380
0380
0380
0380
0380
0380
0380
0380
0380
0FE0
ENDCHAR
STARTCHAR 03A5
ENCODING 933
SWIDTH 720 0
DWIDTH 20 0
BBX 18 18 1 0
BITMAP
FE07C0
380300
3C0200
1C0400
0E0400
0E0800
071800
039000
03A000
01E000
00C000
00C000
00C000
00C000
00C000
00C000
01C000
07F800
ENDCHAR
STARTCHAR 03A6
ENCODING 934
SWIDTH 720 0
DWIDTH 20 0
BBX 18 18 1 0
BITMAP
03F800
00E000
03F800
1CC600
30C380
60C180
E0C1C0
E0C1C0
E0C1C0
E0C1C0
E0C1C0
60C1C0
70C180
38C300
0EDE00
01E000
00E000
07F800
ENDCHAR
STARTCHAR 03A7
ENCODING 935
SWIDTH 720 0
DWIDTH 20 0
BBX 20 18 0 0
BITMAP
7F87E0
0E0100
070300
070600
038400
01C800
01D000
00F000
007000
007000
00B800
011C00
031C00
060E00
040700
080780
180380
FE0FF0
ENDCHAR
STARTCHAR 03A8
ENCODING 936
SWIDTH 756 0
DWIDTH 21 0
BBX 20 19 0 0
BITMAP
800010
61FC60
307060
3070E0
3070E0
3870E0
3870E0
3870C0
1871C0
1C7380
07FE00
007000
007000
007000
007000
007000
007000
007000
03FC00
ENDCHAR
STARTCHAR 03A9
ENCODING 937
SWIDTH 756 0
DWIDTH 21 0
BBX 19 19 1 0
BITMAP
01F000
0F1E00
1C0700
380380
700380
7001C0
7001C0
7001C0
F001C0
7001C0
7001C0
7001C0
300380
180300
0C0600
820820
FE1FE0
FE1FE0
FE1FE0
ENDCHAR
STARTCHAR 03AA
ENCODING 938
SWIDTH 324 0
DWIDTH 9 0
BBX 8 23 1 0
BITMAP
C6
E6
46
00
00
FE
38
38
38
38
38
38
38
38
38
38
38
38
38
38
38
38
FF
ENDCHAR
STARTCHAR 03AB
ENCODING 939
SWIDTH 720 0
DWIDTH 20 0
BBX 18 23 1 0
BITMAP
033800
073800
031000
000000
000000
FE07C0
380300
3C0200
1C0400
0E0400
0E0800
071800
039000
03A000
01E000
00C000
00C000
00C000
00C000
00C000
00C000
01C000
07F800
ENDCHAR
STARTCHAR 03AC
ENCODING 940
SWIDTH 540 0
DWIDTH 15 0
BBX 13 19 1 0
BITMAP
0380
0300
0600
0400
0000
0000
0C00
3370
6170
60E0
E0E0
E0E0
E0E0
E0C0
E0C0
E0C0
61E8
71A8
3F38
ENDCHAR
STARTCHAR 03AD
ENCODING 941
SWIDTH 432 0
DWIDTH 12 0
BBX 10 19 1 0
BITMAP
0700
0600
0600
0C00
0800
0000
1F00
3180
61C0
6080
6000
2000
1F00
6000
E000
E000
E0C0
61C0
3F80
ENDCHAR
STARTCHAR 03AE
ENCODING 942
SWIDTH 540 0
DWIDTH 15 0
BBX 13 25 0 -6
BITMAP
01C0
0180
0100
0200
0200
0000
30E0
7BF0
9C30
1830
1838
1838
1838
1838
1838
1838
1838
1838
1838
0038
0038
0038
0038
0038
0018
ENDCHAR
STARTCHAR 03AF
ENCODING 943
SWIDTH 252 0
DWIDTH 7 0
BBX 7 19 1 0
BITMAP
1C
38
30
20
00
00
10
F0
70
30
30
30
30
30
30
30
32
34
3C
ENDCHAR
STARTCHAR 03B0
ENCODING 944
SWIDTH 504 0
DWIDTH 14 0
BBX 13 19 0 0
BITMAP
01C0
0380
3B70
3A70
1460
0000
6080
F860
9830
1830
1838
1838
1838
1838
1830
1830
1830
1C60
0FC0
ENDCHAR
STARTCHAR 03B1
ENCODING 945
SWIDTH 540 0
DWIDTH 15 0
BBX 13 13 1 0
BITMAP
0C00
3370
6170
60E0
E0E0
E0E0
E0E0
E0C0
E0C0
E0C0
61E8
71A8
3F38
ENDCHAR
STARTCHAR 03B2
ENCODING 946
SWIDTH 504 0
DWIDTH 14 0
BBX 11 25 2 -6
BITMAP
3F00
6180
C1C0
C0C0
C0C0
C0C0
C180
C180
CF80
C1C0
C0E0
C0E0
C060
C060
C060
C060
C0C0
E0C0
DF80
C000
C000
C000
C000
C000
C000
ENDCHAR
STARTCHAR 03B3
ENCODING 947
SWIDTH 432 0
DWIDTH 12 0
BBX 12 19 0 -6
BITMAP
2000
7870
D860
88E0
8CC0
04C0
0480
0580
0500
0500
0200
0200
0200
0600
0600
0600
0E00
0E00
0400
ENDCHAR
STARTCHAR 03B4
ENCODING 948
SWIDTH 468 0
DWIDTH 13 0
BBX 11 19 1 0
BITMAP
1F80
21C0
40C0
2000
1000
0C00
0600
0700
1980
31C0
60E0
E0E0
C060
C060
C060
E060
60C0
7080
3F00
ENDCHAR
STARTCHAR 03B5
ENCODING 949
SWIDTH 432 0
DWIDTH 12 0
BBX 10 13 1 0
BITMAP
1F00
3180
61C0
6080
6000
2000
1F00
6000
E000
E000
E0C0
61C0
3F80
ENDCHAR
STARTCHAR 03B6
ENCODING 950
SWIDTH 432 0
DWIDTH 12 0
BBX 10 25 1 -6
BITMAP
3000
21C0
2780
3E00
1000
1000
2000
4000
4000
4000
8000
8000
8000
8000
8000
C000
E000
7F80
3FC0
01C0
0040
0040
0040
0780
0700
ENDCHAR
STARTCHAR 03B7
ENCODING 951
SWIDTH 540 0
DWIDTH 15 0
BBX 13 19 0 -6
BITMAP
30E0
7BF0
9C30
1830
1838
1838
1838
1838
1838
1838
1838
1838
1838
0038
0038
0038
0038
0038
0018
ENDCHAR
STARTCHAR 03B8
ENCODING 952
SWIDTH 468 0
DWIDTH 13 0
BBX 11 19 1 0
BITMAP
0F00
3180
20C0
60C0
60E0
60E0
E060
E060
E060
FFE0
E060
E060
E060
E060
60E0
60C0
20C0
3180
1F00
ENDCHAR
STARTCHAR 03B9
ENCODING 953
SWIDTH 252 0
DWIDTH 7 0
BBX 7 13 1 0
BITMAP
10
F0
70
30
30
30
30
30
30
30
32
34
3C
ENDCHAR
STARTCHAR 03BA
ENCODING 954
SWIDTH 504 0
DWIDTH 14 0
BBX 13 13 1 0
BITMAP
3030
F0F8
7110
7200
7400
7C00
7C00
7600
7700
7380
71C0
70E0
70F8
ENDCHAR
STARTCHAR 03BB
ENCODING 955
SWIDTH 468 0
DWIDTH 13 0
BBX 13 19 1 0
BITMAP
7000
F800
8800
8C00
0400
0400
0400
0400
0E00
0E00
1E00
1A00
3900
3100
7100
6108
E188
E0F0
C0F0
ENDCHAR
STARTCHAR 03BC
ENCODING 956
SWIDTH 540 0
DWIDTH 15 0
BBX 13 18 2 -6
BITMAP
E0C0
E0C0
E0C0
E0C0
E0C0
E0C0
E0C0
E0C0
E0C0
E1C8
F6C8
FCF0
8000
C000
C000
C000
C000
C000
ENDCHAR
STARTCHAR 03BD
ENCODING 957
SWIDTH 468 0
DWIDTH 13 0
BBX 12 13 0 0
BITMAP
2030
F070
3070
3030
1820
1860
1C40
0C80
0C80
0F00
0700
0600
0600
ENDCHAR
STARTCHAR 03BE
ENCODING 958
SWIDTH 432 0
DWIDTH 12 0
BBX 11 25 1 -6
BITMAP
2080
2380
2F00
1000
1000
2000
2000
13C0
0FC0
1000
2000
4000
8000
8000
8000
C000
E000
7FC0
3FE0
0060
0020
0020
0020
07C0
0380
ENDCHAR
STARTCHAR 03BF
ENCODING 959
SWIDTH 504 0
DWIDTH 14 0
BBX 12 13 1 0
BITMAP
0F00
31C0
60E0
6060
E070
C070
E070
E070
E070
E060
7060
30C0
1F80
ENDCHAR
STARTCHAR 03C0
ENCODING 960
SWIDTH 504 0
DWIDTH 14 0
BBX 13 12 0 0
BITMAP
3FF8
7FF8
8CC0
0CC0
08C0
08C0
08C0
18C0
18C0
38C8
78F8
70F0
ENDCHAR
STARTCHAR 03C1
ENCODING 961
SWIDTH 504 0
DWIDTH 14 0
BBX 12 19 1 -6
BITMAP
0700
1FC0
20E0
6060
6070
6070
6030
6030
6030
6020
6060
70C0
7F80
6000
6000
6000
6000
6000
E000
ENDCHAR
STARTCHAR 03C2
ENCODING 962
SWIDTH 396 0
DWIDTH 11 0
BBX 10 19 1 -6
BITMAP
0700
1F80
2180
4000
4000
8000
8000
8000
8000
C000
E000
7F80
3F80
00C0
0040
0080
0080
0F80
0E00
ENDCHAR
STARTCHAR 03C3
ENCODING 963
SWIDTH 540 0
DWIDTH 15 0
BBX 13 12 1 0
BITMAP
1FF8
7FF8
70C0
E060
C060
C030
C030
E030
6030
6070
3060
1FC0
ENDCHAR
STARTCHAR 03C4
ENCODING 964
SWIDTH 396 0
DWIDTH 11 0
BBX 11 12 0 0
BITMAP
3FE0
7FE0
8600
0400
0C00
0C00
0C00
0C00
0C00
0C40
0F80
0780
ENDCHAR
STARTCHAR 03C5
ENCODING 965
SWIDTH 504 0
DWIDTH 14 0
BBX 13 13 0 0
BITMAP
6080
F860
9830
1830
1838
1838
1838
1838
1830
1830
1830
1C60
0FC0
ENDCHAR
STARTCHAR 03C6
ENCODING 966
SWIDTH 576 0
DWIDTH 16 0
BBX 14 19 1 -6
BITMAP
08C0
31F0
6338
631C
E30C
C30C
C30C
E30C
E30C
6308
6318
3330
1FE0
0300
0300
0300
0300
0300
0300
ENDCHAR
STARTCHAR 03C7
ENCODING 967
SWIDTH 432 0
DWIDTH 12 0
BBX 13 18 0 -5
BITMAP
7870
4860
8CE0
84C0
05C0
0580
0780
0300
0700
0600
0E00
0D00
1D00
1900
3988
3088
70F8
6070
ENDCHAR
STARTCHAR 03C8
ENCODING 968
SWIDTH 612 0
DWIDTH 17 0
BBX 16 19 1 -6
BITMAP
C103
E10E
610C
710C
710C
710C
311C
311C
311C
3118
1918
1930
0760
0180
0100
0100
0100
0100
0100
ENDCHAR
STARTCHAR 03C9
ENCODING 969
SWIDTH 648 0
DWIDTH 18 0
BBX 16 13 1 0
BITMAP
0E30
300C
7006
6186
E183
E183
E183
E183
E183
E083
6187
6146
3E7C
ENDCHAR
STARTCHAR 03CA
ENCODING 970
SWIDTH 252 0
DWIDTH 7 0
BBX 8 17 0 0
BITMAP
E6
E7
46
00
08
78
38
18
18
18
18
18
18
18
19
1A
1E
ENDCHAR
STARTCHAR 03CB
ENCODING 971
SWIDTH 504 0
DWIDTH 14 0
BBX 13 17 0 0
BITMAP
18C0
1CC0
18C0
0000
6080
F860
9830
1830
1838
1838
1838
1838
1830
1830
1830
1C60
0FC0
ENDCHAR
STARTCHAR 03CC
ENCODING 972
SWIDTH 504 0
DWIDTH 14 0
BBX 12 19 1 0
BITMAP
0380
0700
0600
0400
0800
0000
0F00
31C0
60E0
6060
E070
C070
E070
E070
E070
E060
7060
30C0
1F80
ENDCHAR
STARTCHAR 03CD
ENCODING 973
SWIDTH 504 0
DWIDTH 14 0
BBX 13 19 0 0
BITMAP
01C0
0380
0300
0200
0400
0000
6080
F860
9830
1830
1838
1838
1838
1838
1830
1830
1830
1C60
0FC0
ENDCHAR
STARTCHAR 03CE
ENCODING 974
SWIDTH 648 0
DWIDTH 18 0
BBX 16 19 1 0
BITMAP
00E0
00C0
0180
0100
0000
0000
0E30
300C
7006
6186
E183
E183
E183
E183
E183
E083
6187
6146
3E7C
ENDCHAR
STARTCHAR 0401
ENCODING 1025
SWIDTH 612 0
DWIDTH 17 0
BBX 15 23 1 0
BITMAP
0C60
0EE0
0C60
0000
0000
FFFC
3804
3804
3804
3800
3800
3810
3810
3FF0
3810
3810
3800
3800
3800
3802
3806
380C
FFFC
ENDCHAR
STARTCHAR 0402
ENCODING 1026
SWIDTH 756 0
DWIDTH 21 0
BBX 19 18 1 0
BITMAP
FFFC00
870400
870400
070400
070000
070E00
073F80
0763C0
0781C0
0701E0
0700E0
0700E0
0700E0
0700E0
0700E0
0700C0
070180
1FEF00
ENDCHAR
STARTCHAR 0403
ENCODING 1027
SWIDTH 576 0
DWIDTH 16 0
BBX 14 25 1 0
BITMAP
01C0
0180
0300
0200
0000
0000
0000
7FFC
3804
3804
3800
3800
3800
3800
3800
3800
3800
3800
3800
3800
3800
3800
3800
3800
FE00
ENDCHAR
STARTCHAR 0404
ENCODING 1028
SWIDTH 648 0
DWIDTH 18 0
BBX 16 19 1 0
BITMAP
01F0
071F
1C07
3803
3001
7001
7000
E000
E000
FFC0
E000
E000
E000
7000
7000
3801
3801
1E06
07F8
ENDCHAR
STARTCHAR 0405
ENCODING 1029
SWIDTH 540 0
DWIDTH 15 0
BBX 12 19 2 0
BITMAP
1E20
73E0
40E0
C060
C020
C020
F020
F800
7E00
1F80
0FC0
03E0
00F0
8070
8070
8030
C060
E060
BFC0
ENDCHAR
STARTCHAR 0406
ENCODING 1030
SWIDTH 324 0
DWIDTH 9 0
BBX 8 18 1 0
BITMAP
FE
38
38
38
38
38
38
38
38
38
38
38
38
38
38
38
38
FF
ENDCHAR
STARTCHAR 0407
ENCODING 1031
SWIDTH 324 0
DWIDTH 9 0
BBX 8 23 1 0
BITMAP
C6
E6
46
00
00
FE
38
38
38
38
38
38
38
38
38
38
38
38
38
38
38
38
FF
ENDCHAR
STARTCHAR 0408
ENCODING 1032
SWIDTH 396 0
DWIDTH 11 0
BBX 9 18 1 0
BITMAP
3F80
0E00
0E00
0E00
0E00
0E00
0E00
0E00
0E00
0E00
0E00
0E00
0E00
0E00
0E00
CC00
EC00
F800
ENDCHAR
STARTCHAR 0409
ENCODING 1033
SWIDTH 864 0
DWIDTH 24 0
BBX 23 18 0 0
BITMAP
0FFF80
020E00
020E00
020E00
020E00
020E00
020E00
020E00
020FE0
020E3C
020E1E
020E0E
020E0E
020E0E
060E0E
440E1C
FC0E3C
F83FF0
ENDCHAR
STARTCHAR 040A
ENCODING 1034
SWIDTH 864 0
DWIDTH 24 0
BBX 22 18 1 0
BITMAP
FE7F00
381C00
381C00
381C00
381C00
381C00
381C00
381C00
3FFFC0
381C78
381C3C
381C1C
381C1C
381C1C
381C1C
381C38
381C78
FE7FE0
ENDCHAR
STARTCHAR 040B
ENCODING 1035
SWIDTH 756 0
DWIDTH 21 0
BBX 19 18 1 0
BITMAP
FFFC00
870400
870400
070400
070000
070E00
073F00
074780
078380
070380
070380
070380
070380
070380
070380
070380
070380
1FEFE0
ENDCHAR
STARTCHAR 040C
ENCODING 1036
SWIDTH 684 0
DWIDTH 19 0
BBX 17 24 1 0
BITMAP
00E000
00C000
018000
010000
000000
000200
7E0F80
381F00
381000
382000
382000
386000
384000
388000
3F0000
3B8000
39C000
38E000
387000
383000
383800
381C00
380E00
FE0F80
ENDCHAR
STARTCHAR 040D
ENCODING 1037
SWIDTH 720 0
DWIDTH 20 0
BBX 19 24 1 0
BITMAP
038000
018000
008000
004000
000000
000000
7E1FC0
380700
380700
380700
380F00
381700
382700
382700
384700
388700
390700
3B0700
3A0700
3C0700
380700
380700
380700
FE1FE0
ENDCHAR
STARTCHAR 040E
ENCODING 1038
SWIDTH 720 0
DWIDTH 20 0
BBX 18 24 1 0
BITMAP
0C0C00
0E0C00
071800
01E000
000000
000000
FC07C0
380300
380200
1C0200
1C0400
0E0400
070C00
070800
038800
039000
01D000
01F000
00E000
006000
004000
00C000
1F8000
1F0000
ENDCHAR
STARTCHAR 040F
ENCODING 1039
SWIDTH 720 0
DWIDTH 20 0
BBX 19 23 1 -5
BITMAP
7E1FC0
380700
380700
380700
380700
380700
380700
380700
380700
380700
380700
380700
380700
380700
380700
380700
380700
FFFFE0
01E000
00C000
00C000
008000
008000
ENDCHAR
STARTCHAR 0410
ENCODING 1040
SWIDTH 720 0
DWIDTH 20 0
BBX 20 18 0 1
BITMAP
006000
006000
00F000
00F000
01B000
013800
013800
021C00
021C00
060E00
040E00
0FFE00
080700
080700
100380
100380
3003C0
FC0FF0
ENDCHAR
STARTCHAR 0411
ENCODING 1041
SWIDTH 576 0
DWIDTH 16 0
BBX 15 18 0 0
BITMAP
7FFC
1C0C
1C04
1C04
1C00
1C00
1C00
1C00
1FF0
1C3C
1C1C
1C0E
1C0E
1C0E
1C0E
1C1C
1C38
FFF0
ENDCHAR
STARTCHAR 0412
ENCODING 1042
SWIDTH 684 0
DWIDTH 19 0
BBX 17 18 0 0
BITMAP
7FFC00
1C0E00
1C0700
1C0700
1C0700
1C0700
1C0700
1C0E00
1FF800
1C1E00
1C0700
1C0780
1C0380
1C0380
1C0380
1C0700
1C0E00
FFF800
ENDCHAR
STARTCHAR 0413
ENCODING 1043
SWIDTH 576 0
DWIDTH 16 0
BBX 14 18 1 0
BITMAP
7FFC
3804
3804
3800
3800
3800
3800
3800
3800
3800
3800
3800
3800
3800
3800
3800
3800
FE00
ENDCHAR
STARTCHAR 0414
ENCODING 1044
SWIDTH 684 0
DWIDTH 19 0
BBX 18 23 0 -5
BITMAP
0FFFC0
030700
030700
030700
030700
020700
020700
020700
020700
020700
020700
060700
040700
040700
080700
080700
100700
FFFFC0
F001C0
E000C0
C00040
800040
800040
ENDCHAR
STARTCHAR 0415
ENCODING 1045
SWIDTH 612 0
DWIDTH 17 0
BBX 15 18 1 0
BITMAP
FFFC
3804
3804
3804
3800
3800
3810
3810
3FF0
3810
3810
3800
3800
3800
3802
3806
380C
FFFC
ENDCHAR
STARTCHAR 0416
ENCODING 1046
SWIDTH 900 0
DWIDTH 25 0
BBX 25 19 0 0
BITMAP
30000400
787F1F00
7C1C1700
041C3000
021C2000
021C2000
021C6000
011C4000
019CC000
00FF8000
01DDC000
019CC000
031CE000
071C7000
061C3000
0E1C3800
0C1C1800
1C1C1C00
F8FF0F80
ENDCHAR
STARTCHAR 0417
ENCODING 1047
SWIDTH 504 0
DWIDTH 14 0
BBX 12 19 1 0
BITMAP
8F00
FBC0
C0E0
C0E0
8060
8060
00E0
00C0
0380
1F00
01C0
00E0
00E0
0070
0070
00F0
80E0
41E0
3F80
ENDCHAR
STARTCHAR 0418
ENCODING 1048
SWIDTH 720 0
DWIDTH 20 0
BBX 19 18 1 0
BITMAP
7E1FC0
380700
380700
380700
380F00
381700
382700
382700
384700
388700
390700
3B0700
3A0700
3C0700
380700
380700
380700
FE1FE0
ENDCHAR
STARTCHAR 0419
ENCODING 1049
SWIDTH 720 0
DWIDTH 20 0
BBX 19 24 1 0
BITMAP
0C0C00
0E1C00
061800
01E000
000000
000000
7E1FC0
380700
380700
380700
380F00
381700
382700
382700
384700
388700
390700
3B0700
3A0700
3C0700
380700
380700
380700
FE1FE0
ENDCHAR
STARTCHAR 041A
ENCODING 1050
SWIDTH 684 0
DWIDTH 19 0
BBX 17 19 1 0
BITMAP
000200
7E0F80
381F00
381000
382000
382000
386000
384000
388000
3F0000
3B8000
39C000
38E000
387000
383000
383800
381C00
380E00
FE0F80
ENDCHAR
STARTCHAR 041B
ENCODING 1051
SWIDTH 684 0
DWIDTH 19 0
BBX 18 18 0 0
BITMAP
0FFFC0
020700
020700
020700
020700
020700
020700
020700
020700
020700
020700
020700
020700
020700
060700
440700
FC0700
783FC0
ENDCHAR
STARTCHAR 041C
ENCODING 1052
SWIDTH 900 0
DWIDTH 25 0
BBX 24 18 0 0
BITMAP
7C003F
1E003C
1E003C
16005C
17005C
1300DC
13809C
11819C
11C11C
11C31C
10E21C
10E61C
10741C
10741C
10381C
10381C
10181C
FE10FF
ENDCHAR
STARTCHAR 041D
ENCODING 1053
SWIDTH 720 0
DWIDTH 20 0
BBX 19 18 0 0
BITMAP
7F0FE0
1C0380
1C0380
1C0380
1C0380
1C0380
1C0380
1C0380
1FFF80
1C0380
1C0380
1C0380
1C0380
1C0380
1C0380
1C0380
1C0380
FF0FE0
ENDCHAR
STARTCHAR 041E
ENCODING 1054
SWIDTH 720 0
DWIDTH 20 0
BBX 18 19 1 0
BITMAP
01F000
0E3C00
180E00
380700
700380
700380
E001C0
E001C0
E001C0
E001C0
E001C0
E001C0
E001C0
700180
700380
300300
380600
1C0C00
07F800
ENDCHAR
STARTCHAR 041F
ENCODING 1055
SWIDTH 720 0
DWIDTH 20 0
BBX 19 18 1 0
BITMAP
7FFFC0
380700
380700
380700
380700
380700
380700
380700
380700
380700
380700
380700
380700
380700
380700
380700
380700
FE1FE0
ENDCHAR
STARTCHAR 0420
ENCODING 1056
SWIDTH 540 0
DWIDTH 15 0
BBX 14 18 0 0
BITMAP
7FF0
1C38
1C1C
1C1C
1C1C
1C1C
1C1C
1C1C
1C78
1FE0
1C00
1C00
1C00
1C00
1C00
1C00
1C00
FF00
ENDCHAR
STARTCHAR 0421
ENCODING 1057
SWIDTH 684 0
DWIDTH 19 0
BBX 16 19 1 0
BITMAP
01F1
070F
1C07
3803
3001
7001
7000
E000
E000
E000
E000
E000
E000
7000
7000
3801
3802
1E04
07F8
ENDCHAR
STARTCHAR 0422
ENCODING 1058
SWIDTH 612 0
DWIDTH 17 0
BBX 15 18 1 0
BITMAP
FFFE
8382
8382
0380
0380
0380
0380
0380
0380
0380
0380
0380
0380
0380
0380
0380
0380
0FE0
ENDCHAR
STARTCHAR 0423
ENCODING 1059
SWIDTH 720 0
DWIDTH 20 0
BBX 18 18 1 0
BITMAP
FC07C0
380300
380200
1C0200
1C0400
0E0400
070C00
070800
038800
039000
01D000
01F000
00E000
006000
004000
00C000
1F8000
1F0000
ENDCHAR
STARTCHAR 0424
ENCODING 1060
SWIDTH 792 0
DWIDTH 22 0
BBX 20 18 1 0
BITMAP
03F800
006000
03FC00
1E6780
3060C0
7060E0
E06070
E06070
E06070
E06070
E06070
606060
7060E0
3861C0
1FFF00
006000
006000
03FC00
ENDCHAR
STARTCHAR 0425
ENCODING 1061
SWIDTH 720 0
DWIDTH 20 0
BBX 20 18 0 0
BITMAP
7F87E0
0E0100
070300
070600
038400
01C800
01D000
00F000
007000
007000
00B800
011C00
031C00
060E00
040700
080780
180380
FE0FF0
ENDCHAR
STARTCHAR 0426
ENCODING 1062
SWIDTH 720 0
DWIDTH 20 0
BBX 19 23 1 -5
BITMAP
7E1FC0
380700
380700
380700
380700
380700
380700
380700
380700
380700
380700
380700
380700
380700
380700
380700
380700
FFFFE0
0001E0
0000E0
000060
000040
000020
ENDCHAR
STARTCHAR 0427
ENCODING 1063
SWIDTH 648 0
DWIDTH 18 0
BBX 18 18 0 0
BITMAP
FE3F80
380E00
180E00
180E00
180E00
180E00
180E00
180E00
1C0E00
1E7E00
0FCE00
000E00
000E00
000E00
000E00
000E00
000E00
003FC0
ENDCHAR
STARTCHAR 0428
ENCODING 1064
SWIDTH 1008 0
DWIDTH 28 0
BBX 26 18 1 0
BITMAP
FC3F0FC0
380C0700
380C0700
380C0700
380C0700
380C0700
380C0700
380C0700
380C0700
380C0700
380C0700
380C0700
380C0700
380C0700
380C0700
380C0700
380C0700
FFFFFFC0
ENDCHAR
STARTCHAR 0429
ENCODING 1065
SWIDTH 1008 0
DWIDTH 28 0
BBX 26 23 1 -5
BITMAP
FC3F0FC0
380C0700
380C0700
380C0700
380C0700
380C0700
380C0700
380C0700
380C0700
380C0700
380C0700
380C0700
380C0700
380C0700
380C0700
380C0700
380C0700
FFFFFFC0
000003C0
000000C0
00000040
00000040
00000040
ENDCHAR
STARTCHAR 042A
ENCODING 1066
SWIDTH 720 0
DWIDTH 20 0
BBX 18 18 1 0
BITMAP
FFE000
838000
830000
030000
030000
030000
030000
030000
03FE00
030F00
030380
0303C0
0301C0
0301C0
030380
030380
030700
1FFC00
ENDCHAR
STARTCHAR 042B
ENCODING 1067
SWIDTH 864 0
DWIDTH 24 0
BBX 23 18 1 0
BITMAP
7E01FC
380070
380070
380070
380070
380070
380070
380070
3FE070
387870
383870
381C70
381C70
381C70
381C70
383870
387070
FFE1FE
ENDCHAR
STARTCHAR 042C
ENCODING 1068
SWIDTH 576 0
DWIDTH 16 0
BBX 15 18 0 0
BITMAP
7F00
1C00
1C00
1C00
1C00
1C00
1C00
1C00
1FF0
1C3C
1C1C
1C0E
1C0E
1C0E
1C0E
1C1C
1C38
FFF0
ENDCHAR
STARTCHAR 042D
ENCODING 1069
SWIDTH 648 0
DWIDTH 18 0
BBX 16 19 1 0
BITMAP
4780
7870
6018
400C
400E
8006
0007
0007
0007
03FF
0007
0007
0007
0007
000E
800E
401C
2038
1FE0
ENDCHAR
STARTCHAR 042E
ENCODING 1070
SWIDTH 1044 0
DWIDTH 29 0
BBX 27 19 1 0
BITMAP
0001F000
7E071C00
380C0700
38180380
38380380
387001C0
387001C0
387001C0
387001E0
3FF001E0
387001E0
387001C0
387001C0
387001C0
38300180
38380380
38180300
380E0600
FE07F800
ENDCHAR
STARTCHAR 042F
ENCODING 1071
SWIDTH 684 0
DWIDTH 19 0
BBX 18 18 0 0
BITMAP
03FFC0
070700
0E0600
0E0600
0E0600
0E0600
0E0600
070600
01F600
00EE00
01C600
038600
038600
070600
0E0600
0C0600
3C0700
F83FC0
ENDCHAR
STARTCHAR 0430
ENCODING 1072
SWIDTH 432 0
DWIDTH 12 0
BBX 11 13 1 0
BITMAP
1E00
6380
6180
E180
4180
0780
1980
6180
C180
C180
E180
E7E0
79C0
ENDCHAR
STARTCHAR 0431
ENCODING 1073
SWIDTH 504 0
DWIDTH 14 0
BBX 12 19 1 0
BITMAP
01F0
0FE0
1F80
3000
6000
4000
4700
91C0
A0E0
E060
E070
E070
E030
E030
E030
6070
7060
3840
1F80
ENDCHAR
STARTCHAR 0432
ENCODING 1074
SWIDTH 468 0
DWIDTH 13 0
BBX 11 12 1 0
BITMAP
FF80
70C0
70C0
70C0
71C0
7F00
71C0
70E0
7060
70E0
70E0
FF80
ENDCHAR
STARTCHAR 0433
ENCODING 1075
SWIDTH 396 0
DWIDTH 11 0
BBX 11 12 0 0
BITMAP
7FE0
3820
3820
3800
3800
3800
3800
3800
3800
3800
3800
FE00
ENDCHAR
STARTCHAR 0434
ENCODING 1076
SWIDTH 504 0
DWIDTH 14 0
BBX 14 15 0 -3
BITMAP
1FF8
0470
0470
0870
0870
0870
0870
0870
0870
1070
3070
FFFC
C01C
800C
8004
ENDCHAR
STARTCHAR 0435
ENCODING 1077
SWIDTH 432 0
DWIDTH 12 0
BBX 11 13 1 0
BITMAP
0F00
3380
61C0
40C0
FFE0
C000
C000
C000
E020
E040
7040
7F80
1F00
ENDCHAR
STARTCHAR 0436
ENCODING 1078
SWIDTH 684 0
DWIDTH 19 0
BBX 19 13 0 0
BITMAP
200000
71F1C0
78E3C0
08E200
04E400
06E400
07FC00
0EEE00
0CE600
1CE700
18E380
38E380
F1F9E0
ENDCHAR
STARTCHAR 0437
ENCODING 1079
SWIDTH 396 0
DWIDTH 11 0
BBX 9 13 1 0
BITMAP
3C00
C700
8300
8380
0300
0600
1C00
0300
0380
0380
0380
8380
7F00
ENDCHAR
STARTCHAR 0438
ENCODING 1080
SWIDTH 540 0
DWIDTH 15 0
BBX 13 12 1 0
BITMAP
F8F8
7060
7060
70E0
7160
7260
7460
7860
7860
7060
7060
F9F8
ENDCHAR
STARTCHAR 0439
ENCODING 1081
SWIDTH 540 0
DWIDTH 15 0
BBX 13 18 1 0
BITMAP
3060
38E0
1DC0
0200
0000
0000
F8F8
7060
7060
70E0
7160
7260
7460
7860
7860
7060
7060
F9F8
ENDCHAR
STARTCHAR 043A
ENCODING 1082
SWIDTH 504 0
DWIDTH 14 0
BBX 12 12 1 1
BITMAP
F8F0
71E0
7100
7100
7200
7E00
7700
7380
7380
71C0
70C0
FCF0
ENDCHAR
STARTCHAR 043B
ENCODING 1083
SWIDTH 504 0
DWIDTH 14 0
BBX 13 12 0 0
BITMAP
1FF8
0860
0860
0860
0860
0860
0860
0860
0860
0860
F860
F1F8
ENDCHAR
STARTCHAR 043C
ENCODING 1084
SWIDTH 648 0
DWIDTH 18 0
BBX 16 12 1 0
BITMAP
F01E
781C
582C
5C2C
4C2C
4E4C
464C
468C
478C
430C
630C
F13F
ENDCHAR
STARTCHAR 043D
ENCODING 1085
SWIDTH 540 0
DWIDTH 15 0
BBX 13 12 1 0
BITMAP
F8F8
7060
7060
7060
7060
7FE0
7060
7060
7060
7060
7060
FDF8
ENDCHAR
STARTCHAR 043E
ENCODING 1086
SWIDTH 504 0
DWIDTH 14 0
BBX 12 13 1 0
BITMAP
0F00
31C0
60E0
6060
E070
C070
E070
E070
E070
E060
7060
30C0
1F80
ENDCHAR
STARTCHAR 043F
ENCODING 1087
SWIDTH 540 0
DWIDTH 15 0
BBX 13 12 1 0
BITMAP
FFF8
7060
7060
7060
7060
7060
7060
7060
7060
7060
7060
FDF8
ENDCHAR
STARTCHAR 0440
ENCODING 1088
SWIDTH 504 0
DWIDTH 14 0
BBX 13 19 0 -6
BITMAP
11C0
73E0
B4F0
3878
3038
3038
3038
3018
3018
3030
3030
3860
36C0
3100
3000
3000
3000
3000
FC00
ENDCHAR
STARTCHAR 0441
ENCODING 1089
SWIDTH 432 0
DWIDTH 12 0
BBX 10 13 1 0
BITMAP
0F00
3180
61C0
41C0
C000
C000
C000
C000
E000
E040
70C0
7F80
3F00
ENDCHAR
STARTCHAR 0442
ENCODING 1090
SWIDTH 432 0
DWIDTH 12 0
BBX 12 12 0 0
BITMAP
7FF0
8610
8610
0600
0600
0600
0600
0600
0600
0600
0600
1FC0
ENDCHAR
STARTCHAR 0443
ENCODING 1091
SWIDTH 504 0
DWIDTH 14 0
BBX 12 18 1 -6
BITMAP
F070
7020
3060
3040
3840
1880
1C80
0D80
0F00
0700
0600
0200
0600
0400
0400
C800
F800
E000
ENDCHAR
STARTCHAR 0444
ENCODING 1092
SWIDTH 648 0
DWIDTH 18 0
BBX 16 25 1 -6
BITMAP
0180
0780
0180
0180
0180
0180
1DB8
33CC
6186
6186
E187
E187
E187
E187
E187
6186
6186
6184
3FFC
0180
0180
0180
0180
0180
07E0
ENDCHAR
STARTCHAR 0445
ENCODING 1093
SWIDTH 504 0
DWIDTH 14 0
BBX 14 12 0 0
BITMAP
7C70
1C40
1C80
0F00
0700
0700
0780
09C0
08C0
10E0
2070
F0FC
ENDCHAR
STARTCHAR 0446
ENCODING 1094
SWIDTH 540 0
DWIDTH 15 0
BBX 13 15 1 -3
BITMAP
F8F8
7060
7060
7060
7060
7060
7060
7060
7060
7060
7070
FFF8
0018
0008
0008
ENDCHAR
STARTCHAR 0447
ENCODING 1095
SWIDTH 504 0
DWIDTH 14 0
BBX 12 12 1 0
BITMAP
F9F0
60E0
60C0
60C0
60C0
71C0
3EC0
00C0
00C0
00E0
00E0
03F0
ENDCHAR
STARTCHAR 0448
ENCODING 1096
SWIDTH 756 0
DWIDTH 21 0
BBX 20 12 1 0
BITMAP
F9F3E0
7060C0
7060C0
7060C0
7060C0
7060C0
7060C0
7060C0
7060C0
7060C0
7060C0
FFFFF0
ENDCHAR
STARTCHAR 0449
ENCODING 1097
SWIDTH 756 0
DWIDTH 21 0
BBX 20 15 1 -3
BITMAP
F9F3E0
7060C0
7060C0
7060C0
7060C0
7060C0
7060C0
7060C0
7060C0
7060C0
7060C0
FFFFF0
000030
000010
000010
ENDCHAR
STARTCHAR 044A
ENCODING 1098
SWIDTH 504 0
DWIDTH 14 0
BBX 14 12 0 0
BITMAP
7F00
8C00
8C00
0C00
0C00
0FE0
0C38
0C18
0C1C
0C18
0C38
3FE0
ENDCHAR
STARTCHAR 044B
ENCODING 1099
SWIDTH 684 0
DWIDTH 19 0
BBX 17 12 1 0
BITMAP
FC1F80
700600
700600
700600
700600
7F0600
71C600
70E600
70E600
70E600
71C600
FF9F80
ENDCHAR
STARTCHAR 044C
ENCODING 1100
SWIDTH 468 0
DWIDTH 13 0
BBX 11 12 1 0
BITMAP
FC00
7000
7000
7000
7000
7F00
71C0
70E0
70E0
70E0
71C0
FF80
ENDCHAR
STARTCHAR 044D
ENCODING 1101
SWIDTH 432 0
DWIDTH 12 0
BBX 10 13 1 0
BITMAP
1C00
E700
8380
8180
01C0
01C0
1FC0
01C0
01C0
0180
0180
8300
7E00
ENDCHAR
STARTCHAR 044E
ENCODING 1102
SWIDTH 756 0
DWIDTH 21 0
BBX 19 13 1 0
BITMAP
001C00
F86380
70C180
70C1C0
7180E0
7180E0
7F80E0
7180E0
71C0E0
71C0C0
70C0C0
70E180
FC3F00
ENDCHAR
STARTCHAR 044F
ENCODING 1103
SWIDTH 468 0
DWIDTH 13 0
BBX 12 12 0 0
BITMAP
1FF0
38C0
30C0
30C0
38C0
0FC0
0EC0
0CC0
1CC0
38C0
30C0
E3F0
ENDCHAR
STARTCHAR 0451
ENCODING 1105
SWIDTH 432 0
DWIDTH 12 0
BBX 11 18 1 0
BITMAP
3980
39C0
3180
0000
0000
0F00
3380
61C0
40C0
FFE0
C000
C000
C000
E020
E040
7040
7F80
1F00
ENDCHAR
STARTCHAR 0452
ENCODING 1106
SWIDTH 468 0
DWIDTH 13 0
BBX 12 25 0 -6
BITMAP
3800
F800
3800
FFC0
3800
3800
3980
3BE0
3CE0
3860
3870
3870
3870
3870
3870
3870
3870
3870
FC60
0060
0060
00C0
00C0
0180
0600
ENDCHAR
STARTCHAR 0453
ENCODING 1107
SWIDTH 396 0
DWIDTH 11 0
BBX 11 19 0 0
BITMAP
0300
0700
0600
0400
0800
0000
0000
7FE0
3820
3820
3800
3800
3800
3800
3800
3800
3800
3800
FE00
ENDCHAR
STARTCHAR 0454
ENCODING 1108
SWIDTH 432 0
DWIDTH 12 0
BBX 10 13 1 0
BITMAP
0E00
39C0
70C0
6040
E000
E000
FE00
C000
E000
E000
6000
3040
1F80
ENDCHAR
STARTCHAR 0455
ENCODING 1109
SWIDTH 396 0
DWIDTH 11 0
BBX 9 13 1 0
BITMAP
1D00
6300
4100
C100
E000
7800
3E00
1F00
0780
8380
8180
C100
FE00
ENDCHAR
STARTCHAR 0456
ENCODING 1110
SWIDTH 288 0
DWIDTH 8 0
BBX 6 19 1 0
BITMAP
30
30
00
00
00
00
10
F0
30
30
30
30
30
30
30
30
30
30
FC
ENDCHAR
STARTCHAR 0457
ENCODING 1111
SWIDTH 288 0
DWIDTH 8 0
BBX 8 18 0 0
BITMAP
E6
E7
46
00
00
08
78
18
18
18
18
18
18
18
18
18
18
7E
ENDCHAR
STARTCHAR 0458
ENCODING 1112
SWIDTH 288 0
DWIDTH 8 0
BBX 7 25 -2 -6
BITMAP
06
06
00
00
00
00
02
1E
06
06
06
06
06
06
06
06
06
06
06
06
06
06
04
EC
F0
ENDCHAR
STARTCHAR 0459
ENCODING 1113
SWIDTH 720 0
DWIDTH 20 0
BBX 19 12 0 0
BITMAP
1FFC00
043000
043000
043000
043000
043F80
0430E0
043060
043060
043060
E830E0
F0FF80
ENDCHAR
STARTCHAR 045A
ENCODING 1114
SWIDTH 720 0
DWIDTH 20 0
BBX 18 12 1 0
BITMAP
F9F800
706000
706000
706000
706000
7FFF00
7063C0
7061C0
7060C0
7061C0
706180
FDFF00
ENDCHAR
STARTCHAR 045B
ENCODING 1115
SWIDTH 504 0
DWIDTH 14 0
BBX 14 19 0 0
BITMAP
3800
F800
3800
FFC0
3800
3800
38C0
3BE0
3C70
3870
3830
3830
3830
3830
3830
3830
3830
3830
FEFC
ENDCHAR
STARTCHAR 045C
ENCODING 1116
SWIDTH 504 0
DWIDTH 14 0
BBX 12 19 1 0
BITMAP
0300
0700
0600
0400
0800
0000
0000
F8F0
71E0
7100
7100
7200
7E00
7700
7380
7380
71C0
70C0
FCF0
ENDCHAR
STARTCHAR 045D
ENCODING 1117
SWIDTH 540 0
DWIDTH 15 0
BBX 13 19 1 0
BITMAP
1C00
0C00
0600
0200
0000
0000
0000
F8F8
7060
7060
70E0
7160
7260
7460
7860
7860
7060
7060
F9F8
ENDCHAR
STARTCHAR 045E
ENCODING 1118
SWIDTH 504 0
DWIDTH 14 0
BBX 12 24 1 -6
BITMAP
3060
30C0
1D80
0200
0000
0000
F070
7020
3060
3040
3840
1880
1C80
0D80
0F00
0700
0600
0200
0600
0400
0400
C800
F800
E000
ENDCHAR
STARTCHAR 045F
ENCODING 1119
SWIDTH 540 0
DWIDTH 15 0
BBX 13 15 1 -3
BITMAP
F8F8
7060
7060
7060
7060
7060
7060
7060
7060
7060
7060
FFF8
0700
0200
0200
ENDCHAR
STARTCHAR 0490
ENCODING 1168
SWIDTH 468 0
DWIDTH 13 0
BBX 11 21 1 1
BITMAP
0020
0020
00E0
7FE0
3800
3800
3800
3800
3800
3800
3800
3800
3800
3800
3800
3800
3800
3800
3800
3800
FE00
ENDCHAR
STARTCHAR 0491
ENCODING 1169
SWIDTH 360 0
DWIDTH 10 0
BBX 10 15 0 0
BITMAP
0040
0040
01C0
7E00
3800
3800
3800
3800
3800
3800
3800
3800
3800
3800
FE00
ENDCHAR
STARTCHAR 0492
ENCODING 1170
SWIDTH 576 0
DWIDTH 16 0
BBX 15 18 0 0
BITMAP
7FFE
1C02
1C02
1C00
1C00
1C00
1C00
1C00
FFE0
1C00
1C00
1C00
1C00
1C00
1C00
1C00
1C00
FF00
ENDCHAR
STARTCHAR 0493
ENCODING 1171
SWIDTH 396 0
DWIDTH 11 0
BBX 11 12 0 0
BITMAP
7FE0
3820
3820
3800
3800
FF00
3800
3800
3800
3800
3800
FE00
ENDCHAR
STARTCHAR 0496
ENCODING 1174
SWIDTH 900 0
DWIDTH 25 0
BBX 25 24 0 -5
BITMAP
30000600
787F0F00
741C1700
041C3000
021C2000
021C2000
021C6000
011C4000
019CC000
00FF8000
01DDC000
019CC000
031CE000
071C7000
061C3000
0E1C3800
0C1C1800
1C1C1C00
F8FF0F80
00000380
00000180
00000080
00000080
00000080
ENDCHAR
STARTCHAR 0497
ENCODING 1175
SWIDTH 684 0
DWIDTH 19 0
BBX 19 16 0 -3
BITMAP
200000
71F1E0
78E3C0
08E200
04E400
06E400
07FC00
0EEE00
0CE600
1CE700
18E380
38E380
F1F9E0
000060
000020
000020
ENDCHAR
STARTCHAR 049A
ENCODING 1178
SWIDTH 684 0
DWIDTH 19 0
BBX 17 23 1 -5
BITMAP
000200
7E0F80
381F00
381000
382000
382000
386000
384000
388000
3F0000
3B8000
39C000
38E000
387000
383000
383800
381C00
380E00
FE0F80
000180
000080
000080
000080
ENDCHAR
STARTCHAR 049B
ENCODING 1179
SWIDTH 504 0
DWIDTH 14 0
BBX 12 15 1 -2
BITMAP
F8F0
71E0
7100
7100
7200
7E00
7700
7380
7380
71C0
70C0
FCF0
0010
0010
0010
ENDCHAR
STARTCHAR 049C
ENCODING 1180
SWIDTH 684 0
DWIDTH 19 0
BBX 17 19 1 0
BITMAP
000200
7E0F80
381F00
381000
392000
392000
396000
394000
398000
3F0000
3B8000
39C000
39E000
397000
393000
393800
381C00
380E00
FE0F80
ENDCHAR
STARTCHAR 049D
ENCODING 1181
SWIDTH 504 0
DWIDTH 14 0
BBX 12 12 1 1
BITMAP
F8F0
71E0
7500
7500
7600
7E00
7700
7780
7780
75C0
70C0
FCF0
ENDCHAR
STARTCHAR 04A2
ENCODING 1186
SWIDTH 720 0
DWIDTH 20 0
BBX 20 23 0 -5
BITMAP
7F0FE0
1C0380
1C0380
1C0380
1C0380
1C0380
1C0380
1C0380
1FFF80
1C0380
1C0380
1C0380
1C0380
1C0380
1C0380
1C0380
1C0380
FF0FE0
0000F0
000070
000030
000010
000010
ENDCHAR
STARTCHAR 04A3
ENCODING 1187
SWIDTH 540 0
DWIDTH 15 0
BBX 13 15 1 -3
BITMAP
F8F8
7060
7060
7060
7060
7FE0
7060
7060
7060
7060
7060
FDF8
0018
0008
0008
ENDCHAR
STARTCHAR 04AE
ENCODING 1198
SWIDTH 720 0
DWIDTH 20 0
BBX 18 18 1 0
BITMAP
FE07C0
380300
3C0200
1C0400
0E0400
0E0800
071800
039000
03A000
01E000
00C000
00C000
00C000
00C000
00C000
00C000
01C000
07F800
ENDCHAR
STARTCHAR 04AF
ENCODING 1199
SWIDTH 504 0
DWIDTH 14 0
BBX 12 18 1 -6
BITMAP
F870
7020
7040
3040
38C0
1880
1880
1D00
0D00
0F00
0600
0600
0600
0600
0600
0600
0600
3F80
ENDCHAR
STARTCHAR 04B0
ENCODING 1200
SWIDTH 720 0
DWIDTH 20 0
BBX 18 18 1 0
BITMAP
FE07C0
380300
3C0200
1C0400
0E0400
0E0800
071800
039000
03A000
01E000
00C000
3FFE00
00C000
00C000
00C000
00C000
01C000
07F800
ENDCHAR
STARTCHAR 04B1
ENCODING 1201
SWIDTH 504 0
DWIDTH 14 0
BBX 14 18 0 -6
BITMAP
7C38
3810
3820
1820
1C60
0C40
0C40
0E80
0680
0780
0300
FFFC
0300
0300
0300
0300
0300
1FC0
ENDCHAR
STARTCHAR 04B2
ENCODING 1202
SWIDTH 720 0
DWIDTH 20 0
BBX 20 23 0 -5
BITMAP
7F87E0
0E0100
070300
070600
038400
01C800
01D000
00F000
007000
007000
00B800
011C00
031C00
060E00
040700
080780
180380
FE0FF0
0000F0
000070
000030
000010
000010
ENDCHAR
STARTCHAR 04B3
ENCODING 1203
SWIDTH 504 0
DWIDTH 14 0
BBX 14 15 0 -3
BITMAP
7C70
1C40
1C80
0F00
0700
0700
0780
09C0
08C0
10E0
2070
F0FC
001C
0004
0004
ENDCHAR
STARTCHAR 04B8
ENCODING 1208
SWIDTH 648 0
DWIDTH 18 0
BBX 18 18 0 0
BITMAP
FE3F80
380E00
180E00
188E00
188E00
188E00
188E00
188E00
1C8E00
1EFE00
0FCE00
008E00
008E00
008E00
008E00
000E00
000E00
003FC0
ENDCHAR
STARTCHAR 04B9
ENCODING 1209
SWIDTH 504 0
DWIDTH 14 0
BBX 12 12 1 0
BITMAP
F9F0
60E0
60C0
64C0
64C0
75C0
3EC0
04C0
04C0
00E0
00E0
03F0
ENDCHAR
STARTCHAR 04BA
ENCODING 1210
SWIDTH 648 0
DWIDTH 18 0
BBX 17 18 1 0
BITMAP
7E0000
380000
380000
380000
380000
380000
382000
3BFC00
3C1C00
380C00
380C00
380C00
380C00
380C00
380C00
380E00
380E00
FE7F80
ENDCHAR
STARTCHAR 04BB
ENCODING 1211
SWIDTH 504 0
DWIDTH 14 0
BBX 14 19 0 0
BITMAP
3800
F800
3800
3800
3800
3800
38C0
3BE0
3C70
3870
3830
3830
3830
3830
3830
3830
3830
3830
FCFC
ENDCHAR
STARTCHAR 04D8
ENCODING 1240
SWIDTH 720 0
DWIDTH 20 0
BBX 18 19 1 0
BITMAP
01E000
3E1C00
380E00
300700
200300
200380
0003C0
0001C0
0001C0
FFFFC0
E001C0
E001C0
E001C0
E00380
700380
700700
380700
1C0E00
07F800
ENDCHAR
STARTCHAR 04D9
ENCODING 1241
SWIDTH 432 0
DWIDTH 12 0
BBX 11 13 1 0
BITMAP
0E00
3F80
6780
41C0
80C0
00E0
00E0
0060
FFC0
E040
E0C0
7080
3F00
ENDCHAR
STARTCHAR 04E8
ENCODING 1256
SWIDTH 720 0
DWIDTH 20 0
BBX 18 19 1 0
BITMAP
01F000
0E1C00
180600
380700
700380
700380
E001C0
E001C0
E001C0
FFFFC0
E001C0
E001C0
E001C0
700180
700380
300300
380600
1C0C00
07F800
ENDCHAR
STARTCHAR 04E9
ENCODING 1257
SWIDTH 504 0
DWIDTH 14 0
BBX 12 13 1 0
BITMAP
0F00
31C0
60E0
6060
E070
C070
FFF0
E070
E070
E060
7060
30C0
1F80
ENDCHAR
STARTCHAR 05B0
ENCODING 1456
SWIDTH 324 0
DWIDTH 9 0
BBX 2 5 4 -6
BITMAP
C0
C0
00
C0
C0
ENDCHAR
STARTCHAR 05B1
ENCODING 1457
SWIDTH 324 0
DWIDTH 9 0
BBX 9 5 0 -6
BITMAP
ED80
4980
0000
3180
3180
ENDCHAR
STARTCHAR 05B2
ENCODING 1458
SWIDTH 324 0
DWIDTH 9 0
BBX 8 5 1 -6
BITMAP
F7
02
00
07
02
ENDCHAR
STARTCHAR 05B3
ENCODING 1459
SWIDTH 324 0
DWIDTH 9 0
BBX 9 5 0 -6
BITMAP
FD80
2180
3000
3180
0180
ENDCHAR
STARTCHAR 05B4
ENCODING 1460
SWIDTH 324 0
DWIDTH 9 0
BBX 2 2 4 -4
BITMAP
C0
C0
ENDCHAR
STARTCHAR 05B5
ENCODING 1461
SWIDTH 324 0
DWIDTH 9 0
BBX 5 2 2 -4
BITMAP
D8
D8
ENDCHAR
STARTCHAR 05B6
ENCODING 1462
SWIDTH 324 0
DWIDTH 9 0
BBX 5 5 2 -6
BITMAP
D8
D8
00
30
30
ENDCHAR
STARTCHAR 05B7
ENCODING 1463
SWIDTH 324 0
DWIDTH 9 0
BBX 5 2 2 -4
BITMAP
F8
F8
ENDCHAR
STARTCHAR 05B8
ENCODING 1464
SWIDTH 324 0
DWIDTH 9 0
BBX 5 5 2 -6
BITMAP
F8
F8
20
30
30
ENDCHAR
STARTCHAR 05B9
ENCODING 1465
SWIDTH 324 0
DWIDTH 9 0
BBX 3 3 3 16
BITMAP
40
E0
40
ENDCHAR
STARTCHAR 05BA
ENCODING 1466
SWIDTH 324 0
DWIDTH 9 0
BBX 3 3 3 16
BITMAP
40
E0
40
ENDCHAR
STARTCHAR 05BB
ENCODING 1467
SWIDTH 324 0
DWIDTH 9 0
BBX 9 5 0 -6
BITMAP
E000
4800
1C00
0180
0180
ENDCHAR
STARTCHAR 05BC
ENCODING 1468
SWIDTH 324 0
DWIDTH 9 0
BBX 2 2 4 6
BITMAP
C0
C0
ENDCHAR
STARTCHAR 05BD
ENCODING 1469
SWIDTH 324 0
DWIDTH 9 0
BBX 1 5 4 -6
BITMAP
80
80
80
80
80
ENDCHAR
STARTCHAR 05BE
ENCODING 1470
SWIDTH 360 0
DWIDTH 10 0
BBX 8 3 1 11
BITMAP
FF
FF
FF
ENDCHAR
STARTCHAR 05BF
ENCODING 1471
SWIDTH 324 0
DWIDTH 9 0
BBX 5 1 2 17
BITMAP
F8
ENDCHAR
STARTCHAR 05C0
ENCODING 1472
SWIDTH 288 0
DWIDTH 8 0
BBX 2 17 3 -1
BITMAP
C0
C0
C0
C0
C0
C0
C0
C0
C0
C0
C0
C0
C0
C0
C0
C0
C0
ENDCHAR
STARTCHAR 05C1
ENCODING 1473
SWIDTH 360 0
DWIDTH 10 0
BBX 3 3 9 16
BITMAP
40
E0
40
ENDCHAR
STARTCHAR 05C2
ENCODING 1474
SWIDTH 360 0
DWIDTH 10 0
BBX 2 2 -2 17
BITMAP
C0
C0
ENDCHAR
STARTCHAR 05C3
ENCODING 1475
SWIDTH 288 0
DWIDTH 8 0
BBX 3 14 2 1
BITMAP
E0
60
00
00
00
00
00
00
00
00
00
00
E0
60
ENDCHAR
STARTCHAR 05D0
ENCODING 1488
SWIDTH 468 0
DWIDTH 13 0
BBX 11 15 1 0
BITMAP
4100
C1E0
E1E0
70E0
3880
3C80
1F00
6F00
4780
C380
E1C0
60E0
7060
7060
7020
ENDCHAR
STARTCHAR 05D1
ENCODING 1489
SWIDTH 468 0
DWIDTH 13 0
BBX 11 15 1 0
BITMAP
C000
FF80
FFC0
7FC0
00C0
0040
0040
0040
0040
0040
0040
0080
FFE0
FFE0
FFE0
ENDCHAR
STARTCHAR 05D2
ENCODING 1490
SWIDTH 324 0
DWIDTH 9 0
BBX 8 15 1 0
BITMAP
60
F8
7C
3C
0C
04
08
04
04
0C
0E
16
F3
F3
E1
ENDCHAR
STARTCHAR 05D3
ENCODING 1491
SWIDTH 432 0
DWIDTH 12 0
BBX 10 15 1 0
BITMAP
C000
FFC0
FFC0
7F80
0100
0100
0300
0300
0300
0300
0300
0300
0300
0300
0200
ENDCHAR
STARTCHAR 05D4
ENCODING 1492
SWIDTH 468 0
DWIDTH 13 0
BBX 11 15 1 0
BITMAP
C000
FFE0
FFE0
7FE0
0040
0040
0040
0040
0040
6040
4040
C040
C060
4040
40C0
ENDCHAR
STARTCHAR 05D5
ENCODING 1493
SWIDTH 288 0
DWIDTH 8 0
BBX 5 15 1 0
BITMAP
C0
F8
F8
78
08
08
08
08
08
08
08
08
08
08
08
ENDCHAR
STARTCHAR 05D6
ENCODING 1494
SWIDTH 288 0
DWIDTH 8 0
BBX 6 15 1 0
BITMAP
C0
FC
FC
3C
20
20
20
20
20
30
30
30
30
30
20
ENDCHAR
STARTCHAR 05D7
ENCODING 1495
SWIDTH 468 0
DWIDTH 13 0
BBX 11 15 1 0
BITMAP
4000
FFE0
FFE0
3FE0
2040
4040
4040
4040
4040
4040
4040
6060
6060
4060
4040
ENDCHAR
STARTCHAR 05D8
ENCODING 1496
SWIDTH 468 0
DWIDTH 13 0
BBX 11 15 1 0
BITMAP
C000
F3C0
F3C0
77E0
4420
4820
4020
4020
4020
4020
6040
6040
3FC0
3FC0
3F80
ENDCHAR
STARTCHAR 05D9
ENCODING 1497
SWIDTH 252 0
DWIDTH 7 0
BBX 5 8 1 6
BITMAP
C0
F8
F8
78
08
08
08
10
ENDCHAR
STARTCHAR 05DA
ENCODING 1498
SWIDTH 468 0
DWIDTH 13 0
BBX 10 20 1 -5
BITMAP
C000
FFC0
FFC0
7FC0
0080
0080
0080
0080
0080
0080
0080
0080
00C0
00C0
00C0
00C0
00C0
00C0
00C0
0080
ENDCHAR
STARTCHAR 05DB
ENCODING 1499
SWIDTH 432 0
DWIDTH 12 0
BBX 10 15 1 0
BITMAP
C000
FF00
FF80
7F80
0080
00C0
0040
0040
0040
0040
00C0
0080
FF80
FF00
FE00
ENDCHAR
STARTCHAR 05DC
ENCODING 1500
SWIDTH 432 0
DWIDTH 12 0
BBX 11 20 0 1
BITMAP
E000
6000
2000
4000
4000
6000
7FC0
7FE0
1FE0
0060
0020
0020
0060
0040
0080
0100
0200
0600
0600
0600
ENDCHAR
STARTCHAR 05DD
ENCODING 1501
SWIDTH 504 0
DWIDTH 14 0
BBX 12 15 1 0
BITMAP
4000
FFE0
FFE0
3FE0
3030
2030
4030
4030
4030
4030
4030
4030
7FF0
7FF0
7FF0
ENDCHAR
STARTCHAR 05DE
ENCODING 1502
SWIDTH 468 0
DWIDTH 13 0
BBX 11 15 1 0
BITMAP
C000
F180
F3C0
37C0
1860
1020
2020
4020
4020
4020
8020
8020
8FE0
8FE0
8FC0
ENDCHAR
STARTCHAR 05DF
ENCODING 1503
SWIDTH 288 0
DWIDTH 8 0
BBX 5 20 1 -5
BITMAP
C0
F8
F8
78
08
08
18
10
10
10
18
18
18
18
18
18
18
18
18
10
ENDCHAR
STARTCHAR 05E0
ENCODING 1504
SWIDTH 288 0
DWIDTH 8 0
BBX 6 15 1 0
BITMAP
60
7C
7C
3C
04
04
04
08
08
0C
0C
0C
FC
FC
FC
ENDCHAR
STARTCHAR 05E1
ENCODING 1505
SWIDTH 468 0
DWIDTH 13 0
BBX 11 15 1 0
BITMAP
4000
FF80
FFC0
7FC0
4060
4020
4020
4020
C020
C020
C020
6060
7BC0
3FC0
1F80
ENDCHAR
STARTCHAR 05E2
ENCODING 1506
SWIDTH 468 0
DWIDTH 13 0
BBX 11 15 1 0
BITMAP
C100
F3E0
F1E0
70C0
2040
2040
2080
3080
1880
0900
0900
0900
3F00
FF00
FC00
ENDCHAR
STARTCHAR 05E3
ENCODING 1507
SWIDTH 468 0
DWIDTH 13 0
BBX 10 20 1 -5
BITMAP
4000
FF80
FFC0
7FC0
40C0
8040
8040
F040
F040
C040
0040
0040
0040
0040
0040
0040
0040
0040
0040
0040
ENDCHAR
STARTCHAR 05E4
ENCODING 1508
SWIDTH 432 0
DWIDTH 12 0
BBX 10 15 1 0
BITMAP
4000
7F00
7F80
7F80
40C0
4040
F040
F040
C040
0040
0040
00C0
7F80
7F80
FE00
ENDCHAR
STARTCHAR 05E5
ENCODING 1509
SWIDTH 468 0
DWIDTH 13 0
BBX 11 19 1 -5
BITMAP
C180
F9E0
F9E0
78E0
1080
1100
1200
2400
2800
3800
3000
3000
3000
3000
3000
3000
1000
1000
1000
ENDCHAR
STARTCHAR 05E6
ENCODING 1510
SWIDTH 468 0
DWIDTH 13 0
BBX 11 15 1 0
BITMAP
C100
F3E0
F3E0
30C0
1100
1100
1200
1A00
0E00
0700
0380
01C0
7FC0
7FC0
FFC0
ENDCHAR
STARTCHAR 05E7
ENCODING 1511
SWIDTH 468 0
DWIDTH 13 0
BBX 11 19 1 -5
BITMAP
4000
FFC0
FFE0
3FE0
0060
0020
4020
4020
4040
4180
4300
4400
4C00
4800
4800
4000
4000
4000
4000
ENDCHAR
STARTCHAR 05E8
ENCODING 1512
SWIDTH 468 0
DWIDTH 13 0
BBX 11 15 1 0
BITMAP
C000
FF80
FFC0
7FC0
0060
0060
0060
0060
0060
0060
0060
0060
0060
0060
0040
ENDCHAR
STARTCHAR 05E9
ENCODING 1513
SWIDTH 612 0
DWIDTH 17 0
BBX 15 15 1 0
BITMAP
C218
F39E
F3DE
718E
4106
4204
4208
4208
4210
4410
6420
2820
3FE0
3FC0
3FC0
ENDCHAR
STARTCHAR 05EA
ENCODING 1514
SWIDTH 504 0
DWIDTH 14 0
BBX 11 15 1 0
BITMAP
6000
7FC0
7FE0
3FE0
1060
2020
2020
2020
2020
2020
2020
2020
E020
E020
E020
ENDCHAR
STARTCHAR 05F0
ENCODING 1520
SWIDTH 540 0
DWIDTH 15 0
BBX 13 15 1 0
BITMAP
C0C0
F8F0
F8F8
7878
0818
0808
0808
0808
0808
0808
0808
0808
0808
0808
0808
ENDCHAR
STARTCHAR 05F1
ENCODING 1521
SWIDTH 540 0
DWIDTH 15 0
BBX 13 15 1 0
BITMAP
C080
F9F0
F9F0
7878
0818
0818
0818
1018
0018
0018
0018
0018
0018
0018
0010
ENDCHAR
STARTCHAR 05F2
ENCODING 1522
SWIDTH 540 0
DWIDTH 15 0
BBX 13 9 1 6
BITMAP
C080
F9F0
F9F8
7878
0818
0808
0810
1010
0020
ENDCHAR
STARTCHAR 05F3
ENCODING 1523
SWIDTH 216 0
DWIDTH 6 0
BBX 3 7 1 8
BITMAP
60
60
60
60
40
C0
80
ENDCHAR
STARTCHAR 05F4
ENCODING 1524
SWIDTH 360 0
DWIDTH 10 0
BBX 8 7 1 8
BITMAP
63
67
67
66
46
C4
84
ENDCHAR
STARTCHAR 060C
ENCODING 1548
SWIDTH 324 0
DWIDTH 9 0
BBX 5 8 2 4
BITMAP
30
60
40
C0
E0
F8
78
70
ENDCHAR
STARTCHAR 061B
ENCODING 1563
SWIDTH 324 0
DWIDTH 9 0
BBX 5 12 2 5
BITMAP
20
40
C0
C0
F0
F8
70
20
00
30
70
70
ENDCHAR
STARTCHAR 061F
ENCODING 1567
SWIDTH 360 0
DWIDTH 10 0
BBX 8 16 1 4
BITMAP
1C
62
E3
E7
E7
F6
F0
70
38
18
08
08
00
18
3C
18
ENDCHAR
STARTCHAR 0621
ENCODING 1569
SWIDTH 396 0
DWIDTH 11 0
BBX 8 9 2 2
BITMAP
3C
7C
44
C0
E3
FF
7C
60
40
ENDCHAR
STARTCHAR 0622
ENCODING 1570
SWIDTH 216 0
DWIDTH 6 0
BBX 5 19 1 4
BITMAP
C8
30
00
40
60
60
60
60
60
20
20
20
20
30
30
30
30
20
20
ENDCHAR
STARTCHAR 0623
ENCODING 1571
SWIDTH 216 0
DWIDTH 6 0
BBX 4 20 1 4
BITMAP
60
40
60
80
40
60
60
60
60
60
20
20
20
20
30
30
30
30
20
20
ENDCHAR
STARTCHAR 0624
ENCODING 1572
SWIDTH 432 0
DWIDTH 12 0
BBX 11 17 1 -2
BITMAP
0600
0800
0600
0800
0080
01E0
01E0
0320
03A0
01E0
01E0
0020
0060
00C0
0180
8780
7E00
ENDCHAR
STARTCHAR 0625
ENCODING 1573
SWIDTH 216 0
DWIDTH 6 0
BBX 4 23 1 -2
BITMAP
40
60
60
60
60
60
20
20
20
20
30
30
30
30
20
20
00
00
00
60
80
60
80
ENDCHAR
STARTCHAR 0626
ENCODING 1574
SWIDTH 648 0
DWIDTH 18 0
BBX 16 16 1 -1
BITMAP
6000
4000
6006
801F
003B
0021
4040
4040
80FE
807E
8002
8006
801C
E0FC
FFF0
7FC0
ENDCHAR
STARTCHAR 0627
ENCODING 1575
SWIDTH 216 0
DWIDTH 6 0
BBX 3 16 2 5
BITMAP
80
C0
C0
C0
C0
C0
40
40
40
40
60
60
60
60
40
40
ENDCHAR
STARTCHAR 0628
ENCODING 1576
SWIDTH 720 0
DWIDTH 20 0
BBX 19 14 1 -1
BITMAP
400040
8000C0
8000E0
800060
800020
C00020
F80020
7FFFE0
3FFFE0
000000
000000
000000
00E000
00C000
ENDCHAR
STARTCHAR 0629
ENCODING 1577
SWIDTH 288 0
DWIDTH 8 0
BBX 8 14 0 4
BITMAP
08
1C
EC
E0
00
00
10
3C
3E
2E
43
62
7E
7C
ENDCHAR
STARTCHAR 062A
ENCODING 1578
SWIDTH 720 0
DWIDTH 20 0
BBX 19 13 1 4
BITMAP
003000
017000
038000
010000
400040
8000C0
8000E0
800060
800020
C00020
F80020
7FFFE0
3FFFE0
ENDCHAR
STARTCHAR 062B
ENCODING 1579
SWIDTH 720 0
DWIDTH 20 0
BBX 19 16 1 4
BITMAP
010000
01C000
018000
003000
017000
038000
010000
400040
8000C0
8000E0
800060
800020
C00020
F80020
7FFFE0
3FFFE0
ENDCHAR
STARTCHAR 062C
ENCODING 1580
SWIDTH 576 0
DWIDTH 16 0
BBX 13 18 1 -6
BITMAP
3FD8
7FF0
FFF0
0F00
1800
2000
4000
8100
8180
8180
8000
8000
8000
C000
7000
7FC0
1FF8
07E0
ENDCHAR
STARTCHAR 062D
ENCODING 1581
SWIDTH 576 0
DWIDTH 16 0
BBX 13 18 1 -6
BITMAP
3FD8
7FF0
FFF0
0F00
1800
2000
4000
8000
8000
8000
8000
8000
8000
C000
7000
7FC0
1FF8
07E0
ENDCHAR
STARTCHAR 062E
ENCODING 1582
SWIDTH 576 0
DWIDTH 16 0
BBX 13 23 1 -5
BITMAP
0700
0700
0000
0000
0000
3FD8
7FF0
FFF0
0F00
1800
2000
4000
8000
8000
8000
8000
8000
8000
C000
7000
7FC0
1FF8
07E0
ENDCHAR
STARTCHAR 062F
ENCODING 1583
SWIDTH 324 0
DWIDTH 9 0
BBX 8 11 1 4
BITMAP
0C
0E
0E
03
01
01
01
01
C1
FF
7F
ENDCHAR
STARTCHAR 0630
ENCODING 1584
SWIDTH 324 0
DWIDTH 9 0
BBX 8 17 1 4
BITMAP
30
38
10
00
00
00
0C
0E
0E
03
01
01
01
01
C1
FF
7F
ENDCHAR
STARTCHAR 0631
ENCODING 1585
SWIDTH 504 0
DWIDTH 14 0
BBX 13 14 1 -3
BITMAP
0020
0030
0030
0010
0018
0018
0008
0018
0018
0030
0070
00E0
83C0
7F80
ENDCHAR
STARTCHAR 0632
ENCODING 1586
SWIDTH 504 0
DWIDTH 14 0
BBX 13 20 1 -3
BITMAP
0080
00C0
00C0
0000
0000
0000
0020
0030
0030
0010
0018
0018
0008
0018
0018
0030
0070
00E0
83C0
7F80
ENDCHAR
STARTCHAR 0633
ENCODING 1587
SWIDTH 828 0
DWIDTH 23 0
BBX 22 13 1 -1
BITMAP
000808
00184C
401844
400C64
800CF4
8007FC
8007DC
800800
800800
C01800
F1F000
7FE000
3F8000
ENDCHAR
STARTCHAR 0634
ENCODING 1588
SWIDTH 828 0
DWIDTH 23 0
BBX 22 22 1 -2
BITMAP
000080
0001C0
000080
000030
0001F0
000190
000080
000000
000000
000808
00184C
401844
400C64
800CF4
8007FC
8007DC
800800
800800
C01800
F1F000
7FE000
3F8000
ENDCHAR
STARTCHAR 0635
ENCODING 1589
SWIDTH 1116 0
DWIDTH 31 0
BBX 30 13 1 -1
BITMAP
000801F0
001807F8
40180E38
400C301C
800CE03C
8007FFFC
8007FFFC
80080000
80080000
C0180000
F1F00000
7FE00000
3F800000
ENDCHAR
STARTCHAR 0636
ENCODING 1590
SWIDTH 1116 0
DWIDTH 31 0
BBX 30 18 1 -2
BITMAP
00003000
00007000
00001000
00000000
00000000
000801F0
001807F8
40180E38
400C301C
800CE03C
8007FFFC
8007FFFC
80080000
80080000
C0180000
F1F00000
7FE00000
3F800000
ENDCHAR
STARTCHAR 0637
ENCODING 1591
SWIDTH 576 0
DWIDTH 16 0
BBX 17 18 -1 4
BITMAP
080000
0F0000
0E0000
060000
060000
020000
020000
020000
020000
030000
030000
021F00
027F80
03E380
030180
1C0780
FFFF80
FFFF80
ENDCHAR
STARTCHAR 0638
ENCODING 1592
SWIDTH 576 0
DWIDTH 16 0
BBX 17 18 -1 4
BITMAP
080000
0F0000
0E0000
060000
061000
021800
021800
020000
020000
030000
030000
021F00
027F80
03E380
030180
1C0780
FFFF80
FFFF80
ENDCHAR
STARTCHAR 0639
ENCODING 1593
SWIDTH 540 0
DWIDTH 15 0
BBX 13 21 1 -6
BITMAP
1C00
7E00
E000
8000
8020
C1E0
FFC0
7E00
3800
3000
4000
C000
8000
8000
8000
8000
C000
E000
7FC0
3FF8
07C0
ENDCHAR
STARTCHAR 063A
ENCODING 1594
SWIDTH 540 0
DWIDTH 15 0
BBX 13 26 1 -6
BITMAP
1800
1800
0800
0000
0000
1C00
7E00
E000
8000
8020
C1E0
FFC0
7E00
3800
3000
4000
C000
8000
8000
8000
8000
C000
E000
7FC0
3FF8
07C0
ENDCHAR
STARTCHAR 0640
ENCODING 1600
SWIDTH 216 0
DWIDTH 6 0
BBX 7 2 -1 4
BITMAP
FE
FE
ENDCHAR
STARTCHAR 0641
ENCODING 1601
SWIDTH 792 0
DWIDTH 22 0
BBX 21 15 1 4
BITMAP
000080
0001C0
0000C0
000000
000000
000000
800070
8000F0
8000D8
800098
8000D8
C000F8
FC0038
7FFFF8
1FFFF8
ENDCHAR
STARTCHAR 0642
ENCODING 1602
SWIDTH 576 0
DWIDTH 16 0
BBX 15 21 1 -2
BITMAP
0010
0098
00D8
00C0
0000
0000
0000
003C
003C
006E
4046
407E
807E
801A
8002
8002
8006
C00E
F87C
7FF8
1FE0
ENDCHAR
STARTCHAR 0643
ENCODING 1603
SWIDTH 612 0
DWIDTH 17 0
BBX 16 17 1 5
BITMAP
0008
000E
000E
0006
00C4
0184
0106
03C6
01E6
0062
80C2
8F82
8002
8003
F003
FFFF
3FFF
ENDCHAR
STARTCHAR 0644
ENCODING 1604
SWIDTH 504 0
DWIDTH 14 0
BBX 13 22 1 0
BITMAP
0020
0020
0038
0038
0038
0030
0010
0010
0010
0010
0018
4018
4008
4008
8008
8008
8008
8008
C038
FFF0
7FE0
1F00
ENDCHAR
STARTCHAR 0645
ENCODING 1605
SWIDTH 324 0
DWIDTH 9 0
BBX 9 15 0 -6
BITMAP
0E00
1F00
3380
0180
1F80
7F80
7000
4000
C000
4000
4000
6000
2000
2000
2000
ENDCHAR
STARTCHAR 0646
ENCODING 1606
SWIDTH 540 0
DWIDTH 15 0
BBX 14 17 1 -2
BITMAP
0300
0300
0100
0000
0008
0008
401C
400C
400C
8004
8004
8004
800C
C018
F0F8
7FF0
3FC0
ENDCHAR
STARTCHAR 0647
ENCODING 1607
SWIDTH 288 0
DWIDTH 8 0
BBX 6 8 1 4
BITMAP
20
70
7C
5C
84
84
FC
F8
ENDCHAR
STARTCHAR 0648
ENCODING 1608
SWIDTH 432 0
DWIDTH 12 0
BBX 11 13 1 -2
BITMAP
0080
01E0
01E0
0320
03A0
01E0
01E0
0020
0060
00C0
0180
8780
7E00
ENDCHAR
STARTCHAR 0649
ENCODING 1609
SWIDTH 648 0
DWIDTH 18 0
BBX 16 14 1 -1
BITMAP
0006
001F
003B
0021
4040
4040
80FE
807E
8002
8006
801C
E0FC
FFF0
7FC0
ENDCHAR
STARTCHAR 064A
ENCODING 1610
SWIDTH 648 0
DWIDTH 18 0
BBX 16 19 1 -6
BITMAP
0006
001F
003B
0021
4040
4040
80FE
807E
8002
8006
801C
E0FC
FFF0
7FC0
0080
00E0
06C0
0E00
0200
ENDCHAR
STARTCHAR 064B
ENCODING 1611
SWIDTH 216 0
DWIDTH 6 0
BBX 5 5 1 17
BITMAP
08
30
C8
30
C0
ENDCHAR
STARTCHAR 064C
ENCODING 1612
SWIDTH 252 0
DWIDTH 7 0
BBX 6 5 1 17
BITMAP
0C
18
D8
58
60
ENDCHAR
STARTCHAR 064D
ENCODING 1613
SWIDTH 216 0
DWIDTH 6 0
BBX 4 4 1 -4
BITMAP
10
E0
10
E0
ENDCHAR
STARTCHAR 064E
ENCODING 1614
SWIDTH 216 0
DWIDTH 6 0
BBX 4 2 1 20
BITMAP
30
C0
ENDCHAR
STARTCHAR 064F
ENCODING 1615
SWIDTH 216 0
DWIDTH 6 0
BBX 4 6 2 17
BITMAP
20
70
60
70
50
80
ENDCHAR
STARTCHAR 0650
ENCODING 1616
SWIDTH 216 0
DWIDTH 6 0
BBX 4 2 1 -1
BITMAP
10
E0
ENDCHAR
STARTCHAR 0651
ENCODING 1617
SWIDTH 216 0
DWIDTH 6 0
BBX 5 4 1 17
BITMAP
08
A8
B8
C0
ENDCHAR
STARTCHAR 0652
ENCODING 1618
SWIDTH 180 0
DWIDTH 5 0
BBX 4 4 1 17
BITMAP
60
B0
90
E0
ENDCHAR
STARTCHAR 0653
ENCODING 1619
SWIDTH 216 0
DWIDTH 6 0
BBX 4 2 1 19
BITMAP
80
70
ENDCHAR
STARTCHAR 0654
ENCODING 1620
SWIDTH 216 0
DWIDTH 6 0
BBX 3 4 1 20
BITMAP
60
40
60
80
ENDCHAR
STARTCHAR 0655
ENCODING 1621
SWIDTH 216 0
DWIDTH 6 0
BBX 4 4 1 -2
BITMAP
20
C0
70
40
ENDCHAR
STARTCHAR 0660
ENCODING 1632
SWIDTH 540 0
DWIDTH 15 0
BBX 4 6 5 7
BITMAP
60
70
F0
F0
70
10
ENDCHAR
STARTCHAR 0661
ENCODING 1633
SWIDTH 540 0
DWIDTH 15 0
BBX 5 16 4 4
BITMAP
40
60
E0
F0
70
30
38
18
18
08
08
08
08
08
08
08
ENDCHAR
STARTCHAR 0662
ENCODING 1634
SWIDTH 540 0
DWIDTH 15 0
BBX 8 16 3 4
BITMAP
81
C1
E3
FF
7E
3C
38
18
18
18
08
08
0C
0C
04
08
ENDCHAR
STARTCHAR 0663
ENCODING 1635
SWIDTH 540 0
DWIDTH 15 0
BBX 11 16 2 4
BITMAP
0220
C320
E7E0
FFE0
FDC0
7000
3000
3000
1800
1800
1800
0800
0800
0800
0800
0800
ENDCHAR
STARTCHAR 0664
ENCODING 1636
SWIDTH 540 0
DWIDTH 15 0
BBX 7 16 4 4
BITMAP
04
08
18
20
40
E0
F8
FC
18
10
20
40
60
FE
7E
3C
ENDCHAR
STARTCHAR 0665
ENCODING 1637
SWIDTH 540 0
DWIDTH 15 0
BBX 9 10 3 7
BITMAP
1C00
3F00
6F80
8380
8180
8080
8080
F700
FF00
7C00
ENDCHAR
STARTCHAR 0666
ENCODING 1638
SWIDTH 540 0
DWIDTH 15 0
BBX 9 15 2 4
BITMAP
8000
C200
FE00
FE00
7E00
0200
0200
0200
0200
0300
0300
0380
0380
0180
0180
ENDCHAR
STARTCHAR 0667
ENCODING 1639
SWIDTH 540 0
DWIDTH 15 0
BBX 11 15 2 5
BITMAP
8020
C060
E060
E0C0
70C0
3180
3900
1900
1A00
0E00
0E00
0400
0400
0400
0400
ENDCHAR
STARTCHAR 0668
ENCODING 1640
SWIDTH 540 0
DWIDTH 15 0
BBX 11 15 2 5
BITMAP
0400
0400
0C00
0E00
0E00
1200
1300
1380
3180
61C0
60E0
C0E0
C060
8060
0020
ENDCHAR
STARTCHAR 0669
ENCODING 1641
SWIDTH 540 0
DWIDTH 15 0
BBX 8 16 3 4
BITMAP
3C
7C
6E
C6
86
FE
FE
7E
02
02
02
02
03
03
03
01
ENDCHAR
STARTCHAR 066A
ENCODING 1642
SWIDTH 540 0
DWIDTH 15 0
BBX 11 20 2 2
BITMAP
2060
F040
F0C0
6080
0180
0100
0300
0200
0600
0400
0C00
0800
1800
1000
3000
2000
61C0
41C0
C1C0
0080
ENDCHAR
STARTCHAR 066B
ENCODING 1643
SWIDTH 324 0
DWIDTH 9 0
BBX 3 6 3 1
BITMAP
E0
E0
E0
60
40
80
ENDCHAR
STARTCHAR 066C
ENCODING 1644
SWIDTH 324 0
DWIDTH 9 0
BBX 5 8 2 4
BITMAP
30
60
40
C0
E0
F8
78
70
ENDCHAR
STARTCHAR 066D
ENCODING 1645
SWIDTH 540 0
DWIDTH 15 0
BBX 9 9 3 12
BITMAP
5800
7F00
7600
DB80
FF80
3600
7F00
5A00
1800
ENDCHAR
STARTCHAR 066E
ENCODING 1646
SWIDTH 720 0
DWIDTH 20 0
BBX 19 9 1 4
BITMAP
400040
8000C0
8000E0
800060
800020
C00020
F80020
7FFFE0
3FFFE0
ENDCHAR
STARTCHAR 066F
ENCODING 1647
SWIDTH 576 0
DWIDTH 16 0
BBX 15 14 1 -2
BITMAP
003C
003C
006E
4046
407E
807E
801A
8002
8002
8006
C00E
F87C
7FF8
1FE0
ENDCHAR
STARTCHAR 0670
ENCODING 1648
SWIDTH 0 0
DWIDTH 0 0
BBX 2 7 -1 14
BITMAP
80
80
80
40
40
40
40
ENDCHAR
STARTCHAR 0671
ENCODING 1649
SWIDTH 216 0
DWIDTH 6 0
BBX 6 21 0 4
BITMAP
08
34
7C
F0
00
20
30
30
30
30
30
10
10
10
10
18
18
18
18
10
10
ENDCHAR
STARTCHAR 0672
ENCODING 1650
SWIDTH 216 0
DWIDTH 6 0
BBX 5 21 0 4
BITMAP
10
30
20
F0
00
20
30
30
30
30
30
10
10
10
10
18
18
18
18
10
10
ENDCHAR
STARTCHAR 0673
ENCODING 1651
SWIDTH 216 0
DWIDTH 6 0
BBX 4 22 1 -1
BITMAP
40
60
60
60
60
60
20
20
20
20
30
30
30
30
20
20
00
00
10
30
60
F0
ENDCHAR
STARTCHAR 0674
ENCODING 1652
SWIDTH 216 0
DWIDTH 6 0
BBX 3 4 1 20
BITMAP
60
40
60
80
ENDCHAR
STARTCHAR 0675
ENCODING 1653
SWIDTH 216 0
DWIDTH 6 0
BBX 6 16 2 5
BITMAP
8C
D0
CC
F0
C0
C0
40
40
40
40
60
60
60
60
40
40
ENDCHAR
STARTCHAR 0676
ENCODING 1654
SWIDTH 432 0
DWIDTH 12 0
BBX 13 18 1 -1
BITMAP
0038
0020
0038
0000
0000
0080
01E0
01E0
0320
03A0
01E0
01E0
0020
0060
00C0
0180
8780
7E00
ENDCHAR
STARTCHAR 0677
ENCODING 1655
SWIDTH 432 0
DWIDTH 12 0
BBX 13 19 1 -2
BITMAP
0600
0638
0620
0338
0400
1800
0080
01E0
01E0
0320
03A0
01E0
01E0
0020
0060
00C0
0180
8780
7E00
ENDCHAR
STARTCHAR 0678
ENCODING 1656
SWIDTH 648 0
DWIDTH 18 0
BBX 17 20 1 -1
BITMAP
000180
000200
000380
000200
000000
000000
000600
001F00
003B00
002100
404000
404000
80FE00
807E00
800200
800600
801C00
E0FC00
FFF000
7FC000
ENDCHAR
STARTCHAR 0679
ENCODING 1657
SWIDTH 720 0
DWIDTH 20 0
BBX 19 19 1 4
BITMAP
010000
018000
010000
008000
008000
00B800
00C800
07F800
07F800
000000
400040
8000C0
8000E0
800060
800020
C00020
F80020
7FFFE0
3FFFE0
ENDCHAR
STARTCHAR 067A
ENCODING 1658
SWIDTH 720 0
DWIDTH 20 0
BBX 19 17 1 4
BITMAP
008000
00C000
00C000
000000
00E000
00E000
000000
000000
400040
8000C0
8000E0
800060
800020
C00020
F80020
7FFFE0
3FFFE0
ENDCHAR
STARTCHAR 067B
ENCODING 1659
SWIDTH 720 0
DWIDTH 20 0
BBX 19 17 1 -5
BITMAP
400040
8000C0
8000E0
800060
800020
C00020
F80020
7FFFE0
3FFFE0
000000
000000
004000
00E000
006000
000000
007000
006000
ENDCHAR
STARTCHAR 067C
ENCODING 1660
SWIDTH 720 0
DWIDTH 20 0
BBX 19 16 1 1
BITMAP
003000
017000
038000
010000
400040
8000C0
8000E0
800060
800020
C00020
F80020
7FFFE0
3FFFE0
00B000
009000
00E000
ENDCHAR
STARTCHAR 067D
ENCODING 1661
SWIDTH 720 0
DWIDTH 20 0
BBX 19 17 1 4
BITMAP
002000
007000
03B000
038000
006000
007000
002000
000000
400040
8000C0
8000E0
800060
800020
C00020
F80020
7FFFE0
3FFFE0
ENDCHAR
STARTCHAR 067E
ENCODING 1662
SWIDTH 720 0
DWIDTH 20 0
BBX 19 18 1 -5
BITMAP
400040
8000C0
8000E0
800060
800020
C00020
F80020
7FFFE0
3FFFE0
000000
000000
002000
013800
01F000
018000
003000
007000
001000
ENDCHAR
STARTCHAR 067F
ENCODING 1663
SWIDTH 720 0
DWIDTH 20 0
BBX 19 17 1 4
BITMAP
002000
007000
03A000
030000
003000
01F000
039000
008000
400040
8000C0
8000E0
800060
800020
C00020
F80020
7FFFE0
3FFFE0
ENDCHAR
STARTCHAR 0680
ENCODING 1664
SWIDTH 720 0
DWIDTH 20 0
BBX 19 19 1 -6
BITMAP
400040
8000C0
8000E0
800060
800020
C00020
F80020
7FFFE0
3FFFE0
000000
000000
002000
013000
01B000
018000
003800
01B800
01C000
008000
ENDCHAR
STARTCHAR 0681
ENCODING 1665
SWIDTH 576 0
DWIDTH 16 0
BBX 13 25 1 -6
BITMAP
0180
0200
0380
0200
0000
0000
0000
3FD8
7FF0
FFF0
0F00
1800
2000
4000
8000
8000
8000
8000
8000
8000
C000
7000
7FC0
1FF8
07E0
ENDCHAR
STARTCHAR 0682
ENCODING 1666
SWIDTH 576 0
DWIDTH 16 0
BBX 13 27 1 -6
BITMAP
0400
0700
0600
0000
0300
0700
0000
0000
0000
3FD8
7FF0
FFF0
0F00
1800
2000
4000
8000
8000
8000
8000
8000
8000
C000
7000
7FC0
1FF8
07E0
ENDCHAR
STARTCHAR 0683
ENCODING 1667
SWIDTH 576 0
DWIDTH 16 0
BBX 13 18 1 -6
BITMAP
3FD8
7FF0
FFF0
0F00
1800
2000
4000
8080
80E0
86C0
8E00
8200
8000
C000
7000
7FC0
1FF8
07E0
ENDCHAR
STARTCHAR 0684
ENCODING 1668
SWIDTH 576 0
DWIDTH 16 0
BBX 13 18 1 -6
BITMAP
3FD8
7FF0
FFF0
0F00
1800
2000
4000
8300
8300
8100
8100
8380
8180
C000
7000
7FC0
1FF8
07E0
ENDCHAR
STARTCHAR 0685
ENCODING 1669
SWIDTH 576 0
DWIDTH 16 0
BBX 13 27 1 -6
BITMAP
0400
0700
0600
00C0
05C0
0E00
0400
0000
0000
3FD8
7FF0
FFF0
0F00
1800
2000
4000
8000
8000
8000
8000
8000
8000
C000
7000
7FC0
1FF8
07E0
ENDCHAR
STARTCHAR 0686
ENCODING 1670
SWIDTH 576 0
DWIDTH 16 0
BBX 13 18 1 -6
BITMAP
3FD8
7FF0
FFF0
0F00
1800
2000
4080
84C0
86C0
8600
81C0
81C0
8000
C000
7000
7FC0
1FF8
07E0
ENDCHAR
STARTCHAR 0687
ENCODING 1671
SWIDTH 576 0
DWIDTH 16 0
BBX 13 18 1 -6
BITMAP
3FD8
7FF0
FFF0
0F00
1800
2000
40E0
86C0
8700
8240
82E0
8320
8300
C000
7000
7FC0
1FF8
07E0
ENDCHAR
STARTCHAR 0688
ENCODING 1672
SWIDTH 324 0
DWIDTH 9 0
BBX 8 20 1 5
BITMAP
20
20
20
20
20
1F
23
FF
00
0C
0E
0E
03
01
01
01
01
C1
FF
7F
ENDCHAR
STARTCHAR 0689
ENCODING 1673
SWIDTH 324 0
DWIDTH 9 0
BBX 8 14 1 1
BITMAP
0C
0E
0E
03
01
01
01
01
C1
FF
7F
16
14
1C
ENDCHAR
STARTCHAR 068A
ENCODING 1674
SWIDTH 324 0
DWIDTH 9 0
BBX 8 16 1 -1
BITMAP
0C
0E
0E
03
01
01
01
01
C1
FF
7F
00
00
08
1C
0C
ENDCHAR
STARTCHAR 068B
ENCODING 1675
SWIDTH 324 0
DWIDTH 9 0
BBX 8 25 1 0
BITMAP
20
20
20
20
20
1F
23
FF
00
0C
0E
0E
03
01
01
01
01
C1
FF
7F
00
00
08
1C
0C
ENDCHAR
STARTCHAR 068C
ENCODING 1676
SWIDTH 324 0
DWIDTH 9 0
BBX 8 17 1 4
BITMAP
08
4E
7C
60
00
00
0C
0E
0E
03
01
01
01
01
C1
FF
7F
ENDCHAR
STARTCHAR 068D
ENCODING 1677
SWIDTH 324 0
DWIDTH 9 0
BBX 8 17 1 -2
BITMAP
0C
0E
0E
03
01
01
01
01
C1
FF
7F
00
00
04
06
36
70
ENDCHAR
STARTCHAR 068E
ENCODING 1678
SWIDTH 324 0
DWIDTH 9 0
BBX 8 19 1 5
BITMAP
30
70
0C
6E
74
20
00
00
0C
0E
0E
03
01
01
01
01
C1
FF
7F
ENDCHAR
STARTCHAR 068F
ENCODING 1679
SWIDTH 324 0
DWIDTH 9 0
BBX 8 19 1 5
BITMAP
1C
DC
E0
50
18
18
00
00
0C
0E
0E
03
01
01
01
01
C1
FF
7F
ENDCHAR
STARTCHAR 0690
ENCODING 1680
SWIDTH 324 0
DWIDTH 9 0
BBX 8 19 1 5
BITMAP
0C
FC
E0
0C
4E
74
20
00
0C
0E
0E
03
01
01
01
01
C1
FF
7F
ENDCHAR
STARTCHAR 0691
ENCODING 1681
SWIDTH 504 0
DWIDTH 14 0
BBX 13 25 1 -3
BITMAP
0200
0200
0200
0200
0200
0260
0190
0FF0
0FF0
0000
0000
0020
0030
0030
0010
0018
0018
0008
0018
0018
0030
0070
00E0
83C0
7F80
ENDCHAR
STARTCHAR 0692
ENCODING 1682
SWIDTH 504 0
DWIDTH 14 0
BBX 13 20 1 -3
BITMAP
0120
0140
00C0
0080
0000
0000
0020
0030
0030
0010
0018
0018
0008
0018
0018
0030
0070
00E0
83C0
7F80
ENDCHAR
STARTCHAR 0693
ENCODING 1683
SWIDTH 504 0
DWIDTH 14 0
BBX 13 16 1 -4
BITMAP
0020
0030
0030
0010
0018
0018
0008
0018
0018
0030
0070
00F0
83F0
7F88
0070
0020
ENDCHAR
STARTCHAR 0694
ENCODING 1684
SWIDTH 504 0
DWIDTH 14 0
BBX 13 16 1 -4
BITMAP
0020
0030
0030
0010
0018
0018
0008
0018
0018
0030
0070
00E0
83C0
7F90
0038
0010
ENDCHAR
STARTCHAR 0695
ENCODING 1685
SWIDTH 504 0
DWIDTH 14 0
BBX 13 17 1 -5
BITMAP
0020
0030
0030
0010
0018
0018
0008
0018
0018
0030
0070
00E0
83C0
7F80
0090
0050
0060
ENDCHAR
STARTCHAR 0696
ENCODING 1686
SWIDTH 504 0
DWIDTH 14 0
BBX 13 16 1 -4
BITMAP
0020
0030
0030
0010
0018
0018
0408
0E18
0418
0030
0070
00E0
83C0
7F90
0038
0010
ENDCHAR
STARTCHAR 0697
ENCODING 1687
SWIDTH 504 0
DWIDTH 14 0
BBX 13 19 1 -2
BITMAP
00E0
06C0
0700
0000
0000
0020
0030
0030
0010
0018
0018
0008
0018
0018
0030
0070
00E0
83C0
7F80
ENDCHAR
STARTCHAR 0698
ENCODING 1688
SWIDTH 504 0
DWIDTH 14 0
BBX 13 22 1 -3
BITMAP
0100
0180
0180
0070
03F0
0380
0000
0000
0020
0030
0030
0010
0018
0018
0008
0018
0018
0030
0070
00E0
83C0
7F80
ENDCHAR
STARTCHAR 0699
ENCODING 1689
SWIDTH 504 0
DWIDTH 14 0
BBX 13 23 1 -3
BITMAP
0080
05C0
0EC0
0600
00E0
06C0
0700
0000
0000
0020
0030
0030
0010
0018
0018
0008
0018
0018
0030
0070
00E0
83C0
7F80
ENDCHAR
STARTCHAR 069A
ENCODING 1690
SWIDTH 828 0
DWIDTH 23 0
BBX 22 18 1 -2
BITMAP
0001C0
0001C0
000000
000000
000000
000808
00184C
401844
400C64
800CF4
8007FC
8007DC
800800
800800
C01820
F1F038
7FE030
3F8000
ENDCHAR
STARTCHAR 069B
ENCODING 1691
SWIDTH 828 0
DWIDTH 23 0
BBX 22 16 1 -4
BITMAP
000808
00184C
401844
400C64
800CF4
8007FC
8007DC
800800
800800
C01810
F1F09C
7FE0F8
3F80C0
000018
000038
000008
ENDCHAR
STARTCHAR 069C
ENCODING 1692
SWIDTH 828 0
DWIDTH 23 0
BBX 22 25 1 -5
BITMAP
000200
000300
000300
0000E0
0007E0
000700
000000
000000
000000
000808
00184C
401844
400C64
800CF4
8007FC
8007DC
800800
800800
C01810
F1F09C
7FE0F8
3F80C0
000018
000038
000008
ENDCHAR
STARTCHAR 069D
ENCODING 1693
SWIDTH 1116 0
DWIDTH 31 0
BBX 30 13 1 -1
BITMAP
000801F0
001807F8
40180E38
400C301C
800CE03C
8007FFFC
8007FFFC
80080000
80080000
C0180200
F1F01300
7FE01B00
3F801800
ENDCHAR
STARTCHAR 069E
ENCODING 1694
SWIDTH 1116 0
DWIDTH 31 0
BBX 30 22 1 -2
BITMAP
00000800
00001C00
00000A00
00000380
00001B00
00003800
00000800
00000000
00000000
000801F0
001807F8
40180E38
400C301C
800CE03C
8007FFFC
8007FFFC
80080000
80080000
C0180000
F1F00000
7FE00000
3F800000
ENDCHAR
STARTCHAR 069F
ENCODING 1695
SWIDTH 576 0
DWIDTH 16 0
BBX 17 18 -1 4
BITMAP
080000
0F0000
0E1000
063800
061000
020700
023600
023000
021000
030000
030000
021F00
027F80
03E380
030180
1C0780
FFFF80
FFFF80
ENDCHAR
STARTCHAR 06A0
ENCODING 1696
SWIDTH 540 0
DWIDTH 15 0
BBX 13 29 1 -5
BITMAP
3000
7000
0C00
6E00
7400
2000
0000
0000
1C00
7E00
E000
8000
8020
C1E0
FFC0
7E00
3800
3000
4000
C000
8000
8000
8000
8000
C000
E000
7FC0
3FF8
07C0
ENDCHAR
STARTCHAR 06A1
ENCODING 1697
SWIDTH 792 0
DWIDTH 22 0
BBX 21 9 1 4
BITMAP
800070
8000F0
8000D8
800098
8000D8
C000F8
FC0038
7FFFF8
1FFFF8
ENDCHAR
STARTCHAR 06A2
ENCODING 1698
SWIDTH 792 0
DWIDTH 22 0
BBX 21 14 1 -1
BITMAP
800070
8000F0
8000D8
800098
8000D8
C000F8
FC0038
7FFFF8
1FFFF8
000000
000000
000020
000070
000030
ENDCHAR
STARTCHAR 06A3
ENCODING 1699
SWIDTH 792 0
DWIDTH 22 0
BBX 21 19 1 -1
BITMAP
000040
0000E0
000060
000000
000000
800070
8000F0
8000D8
800098
8000D8
C000F8
FC0038
7FFFF8
1FFFF8
000000
000000
002000
003000
003000
ENDCHAR
STARTCHAR 06A4
ENCODING 1700
SWIDTH 792 0
DWIDTH 22 0
BBX 21 17 1 4
BITMAP
0001C0
0001C0
0000A0
000130
0001B0
000180
000000
000000
800070
8000F0
8000D8
800098
8000D8
C000F8
FC0038
7FFFF8
1FFFF8
ENDCHAR
STARTCHAR 06A5
ENCODING 1701
SWIDTH 792 0
DWIDTH 22 0
BBX 22 18 1 -5
BITMAP
800070
8000F0
8000D8
800098
8000D8
C000F8
FC0038
7FFFF8
1FFFF8
000000
000000
000010
00009C
0000F8
0000C0
000018
000038
000008
ENDCHAR
STARTCHAR 06A6
ENCODING 1702
SWIDTH 792 0
DWIDTH 22 0
BBX 21 18 1 4
BITMAP
000020
000370
0003A0
000120
000138
0001F0
000180
000000
000000
800070
8000F0
8000D8
800098
8000D8
C000F8
FC0038
7FFFF8
1FFFF8
ENDCHAR
STARTCHAR 06A7
ENCODING 1703
SWIDTH 576 0
DWIDTH 16 0
BBX 15 19 1 -2
BITMAP
0030
0070
0000
0000
0000
003C
003C
006E
4046
407E
807E
801A
8002
8002
8006
C00E
F87C
7FF8
1FE0
ENDCHAR
STARTCHAR 06A8
ENCODING 1704
SWIDTH 576 0
DWIDTH 16 0
BBX 15 22 1 -2
BITMAP
00C0
00C0
0040
0038
01F8
01C0
0000
0000
003C
003C
006E
4046
407E
807E
801A
8002
8002
8006
C00E
F87C
7FF8
1FE0
ENDCHAR
STARTCHAR 06A9
ENCODING 1705
SWIDTH 828 0
DWIDTH 23 0
BBX 23 16 0 4
BITMAP
000018
000078
0001F0
000380
000600
000600
000700
000780
0003E0
400070
800030
800018
C0000C
F80006
7FFFFE
3FFFFE
ENDCHAR
STARTCHAR 06AA
ENCODING 1706
SWIDTH 828 0
DWIDTH 23 0
BBX 23 14 0 5
BITMAP
003800
00F800
03E000
070000
040000
0E0000
07E000
03FF00
001FF0
8000F8
C0000C
F00004
7FFFFE
3FFFFE
ENDCHAR
STARTCHAR 06AB
ENCODING 1707
SWIDTH 828 0
DWIDTH 23 0
BBX 23 16 0 4
BITMAP
000018
000078
0001F8
0003C8
000638
000630
000700
000780
0003E0
400070
800030
800018
C0000C
F80006
7FFFFE
3FFFFE
ENDCHAR
STARTCHAR 06AC
ENCODING 1708
SWIDTH 612 0
DWIDTH 17 0
BBX 16 17 1 5
BITMAP
0388
038E
000E
0006
00C4
0184
0106
03C6
01E6
0062
80C2
8F82
8002
8003
F003
FFFF
3FFF
ENDCHAR
STARTCHAR 06AD
ENCODING 1709
SWIDTH 612 0
DWIDTH 17 0
BBX 16 20 1 4
BITMAP
0600
0700
0280
04C8
06CE
060E
0006
00C4
0184
0106
03C6
01E6
0062
80C2
8F82
8002
8003
F003
FFFF
3FFF
ENDCHAR
STARTCHAR 06AE
ENCODING 1710
SWIDTH 612 0
DWIDTH 17 0
BBX 16 26 1 -4
BITMAP
0008
000E
000E
0006
00C4
0184
0106
03C6
01E6
0062
80C2
8F82
8002
8003
F003
FFFF
3FFF
0000
0000
0040
00E0
0740
0600
00C0
01C0
0040
ENDCHAR
STARTCHAR 06AF
ENCODING 1711
SWIDTH 828 0
DWIDTH 23 0
BBX 23 20 0 4
BITMAP
000008
000038
0000F0
0003C0
000718
000C78
0001F0
000380
000600
000600
000700
000780
0003E0
400070
800030
800018
C0000C
F80006
7FFFFE
3FFFFE
ENDCHAR
STARTCHAR 06B0
ENCODING 1712
SWIDTH 828 0
DWIDTH 23 0
BBX 23 20 0 4
BITMAP
000008
000038
0000F0
0003C0
000718
000C78
0001F8
0003C8
000638
000630
000700
000780
0003E0
400070
800030
800018
C0000C
F80006
7FFFFE
3FFFFE
ENDCHAR
STARTCHAR 06B1
ENCODING 1713
SWIDTH 828 0
DWIDTH 23 0
BBX 23 21 0 4
BITMAP
000080
0001C8
000638
0000F0
0003C0
000718
000C78
0001F0
000380
000600
000600
000700
000780
0003E0
400070
800030
800018
C0000C
F80006
7FFFFE
3FFFFE
ENDCHAR
STARTCHAR 06B2
ENCODING 1714
SWIDTH 828 0
DWIDTH 23 0
BBX 23 26 0 -2
BITMAP
000008
000038
0000F0
0003C0
000718
000C78
0001F0
000380
000600
000600
000700
000780
0003E0
400070
800030
800018
C0000C
F80006
7FFFFE
3FFFFE
000000
000000
000400
002600
003600
003000
ENDCHAR
STARTCHAR 06B3
ENCODING 1715
SWIDTH 828 0
DWIDTH 23 0
BBX 23 28 0 -5
BITMAP
000008
000038
0000F0
0003C0
000718
000C78
0001F0
000380
000600
000600
000700
000780
0003E0
400070
800030
800018
C0000C
F80006
7FFFFE
3FFFFE
000000
000000
001000
001C00
001800
000000
000C00
001C00
ENDCHAR
STARTCHAR 06B4
ENCODING 1716
SWIDTH 828 0
DWIDTH 23 0
BBX 23 21 0 4
BITMAP
000400
0006C8
0004B8
000CF0
0003C0
000718
000C78
0001F0
000380
000600
000600
000700
000780
0003E0
400070
800030
800018
C0000C
F80006
7FFFFE
3FFFFE
ENDCHAR
STARTCHAR 06B5
ENCODING 1717
SWIDTH 504 0
DWIDTH 14 0
BBX 13 25 1 0
BITMAP
0090
0050
0060
0020
0020
0038
0038
0038
0030
0010
0010
0010
0010
0018
4018
4008
4008
8008
8008
8008
8008
C038
FFF0
7FE0
1F00
ENDCHAR
STARTCHAR 06B6
ENCODING 1718
SWIDTH 504 0
DWIDTH 14 0
BBX 13 25 1 0
BITMAP
0020
0030
0030
0020
0020
0038
0038
0038
0030
0010
0010
0010
0010
0018
4018
4008
4008
8008
8008
8008
8008
C038
FFF0
7FE0
1F00
ENDCHAR
STARTCHAR 06B7
ENCODING 1719
SWIDTH 504 0
DWIDTH 14 0
BBX 13 25 1 0
BITMAP
0040
00D8
00D0
00A0
0020
0038
0038
0038
0030
0010
0010
0010
0010
0018
4018
4008
4008
8008
8008
8008
8008
C038
FFF0
7FE0
1F00
ENDCHAR
STARTCHAR 06B8
ENCODING 1720
SWIDTH 504 0
DWIDTH 14 0
BBX 13 27 1 -6
BITMAP
0020
0020
0038
0038
0038
0030
0010
0010
0010
0010
0018
4018
4008
4008
8008
8008
8008
8008
C038
FFF0
7FE0
1F00
0100
0180
0C80
0D00
0380
ENDCHAR
STARTCHAR 06B9
ENCODING 1721
SWIDTH 540 0
DWIDTH 15 0
BBX 14 21 1 -6
BITMAP
0300
0300
0100
0000
0008
0008
401C
400C
400C
8004
8004
8004
800C
C018
F0F8
7FF0
3FC0
0000
0300
0300
0100
ENDCHAR
STARTCHAR 06BA
ENCODING 1722
SWIDTH 540 0
DWIDTH 15 0
BBX 14 13 1 -1
BITMAP
0008
0008
401C
400C
400C
8004
8004
8004
800C
C018
F0F8
7FF0
3FC0
ENDCHAR
STARTCHAR 06BB
ENCODING 1723
SWIDTH 540 0
DWIDTH 15 0
BBX 14 24 1 -2
BITMAP
0400
0400
0400
0400
0200
04C0
0360
0C60
1FE0
0000
0000
0008
0008
401C
400C
400C
8004
8004
8004
800C
C018
F0F8
7FF0
3FC0
ENDCHAR
STARTCHAR 06BC
ENCODING 1724
SWIDTH 540 0
DWIDTH 15 0
BBX 14 20 1 -5
BITMAP
0300
0300
0100
0000
0008
0008
401C
400C
400C
8004
8004
8004
800C
C018
F0F8
7FF0
3FC0
0900
0900
0600
ENDCHAR
STARTCHAR 06BD
ENCODING 1725
SWIDTH 540 0
DWIDTH 15 0
BBX 14 22 1 -2
BITMAP
0400
0E00
0500
01C0
0D80
1C00
0400
0000
0000
0008
0008
401C
400C
400C
8004
8004
8004
800C
C018
F0F8
7FF0
3FC0
ENDCHAR
STARTCHAR 06BE
ENCODING 1726
SWIDTH 468 0
DWIDTH 13 0
BBX 12 11 -1 3
BITMAP
0600
0600
0700
0780
0FC0
11C0
1160
1F60
1F30
FFF0
F1E0
ENDCHAR
STARTCHAR 06BF
ENCODING 1727
SWIDTH 576 0
DWIDTH 16 0
BBX 13 23 1 -5
BITMAP
0700
0700
0000
0000
0000
3FD8
7FF0
FFF0
0F00
1800
2000
4080
84C0
86C0
8600
81C0
81C0
8000
C000
7000
7FC0
1FF8
07E0
ENDCHAR
STARTCHAR 06C0
ENCODING 1728
SWIDTH 288 0
DWIDTH 8 0
BBX 6 14 1 4
BITMAP
10
30
60
30
40
00
20
70
7C
5C
84
84
FC
F8
ENDCHAR
STARTCHAR 06C1
ENCODING 1729
SWIDTH 396 0
DWIDTH 11 0
BBX 11 7 0 2
BITMAP
0E00
1F00
33C0
21E0
40E0
4000
8000
ENDCHAR
STARTCHAR 06C2
ENCODING 1730
SWIDTH 396 0
DWIDTH 11 0
BBX 11 13 0 2
BITMAP
0400
1800
0E00
1800
0000
0000
0E00
1F00
33C0
21E0
40E0
4000
8000
ENDCHAR
STARTCHAR 06C3
ENCODING 1731
SWIDTH 396 0
DWIDTH 11 0
BBX 11 13 0 2
BITMAP
0700
3700
3800
1000
0000
0000
0E00
1F00
33C0
21E0
40E0
4000
8000
ENDCHAR
STARTCHAR 06C4
ENCODING 1732
SWIDTH 432 0
DWIDTH 12 0
BBX 11 13 1 -2
BITMAP
0080
01E0
01E0
0320
03A0
01E0
01E0
0020
0660
0BC0
0980
8F80
7E00
ENDCHAR
STARTCHAR 06C5
ENCODING 1733
SWIDTH 432 0
DWIDTH 12 0
BBX 11 13 1 -2
BITMAP
00C0
01E0
01E0
0320
03A0
01E0
01E0
0C20
07E0
00C0
0180
8780
7E00
ENDCHAR
STARTCHAR 06C6
ENCODING 1734
SWIDTH 432 0
DWIDTH 12 0
BBX 11 18 1 -2
BITMAP
0160
00C0
0080
0000
0000
0080
01E0
01E0
0320
03A0
01E0
01E0
0020
0060
00C0
0180
8780
7E00
ENDCHAR
STARTCHAR 06C7
ENCODING 1735
SWIDTH 432 0
DWIDTH 12 0
BBX 11 20 1 -2
BITMAP
00C0
00C0
00C0
00C0
0100
0200
0000
0080
01E0
01E0
0320
03A0
01E0
01E0
0020
0060
00C0
0180
8780
7E00
ENDCHAR
STARTCHAR 06C8
ENCODING 1736
SWIDTH 432 0
DWIDTH 12 0
BBX 11 22 1 -1
BITMAP
0100
0080
0080
0080
0080
0080
0080
0000
0000
0080
01E0
01E0
0320
03A0
01E0
01E0
0020
0060
00C0
0180
8780
7E00
ENDCHAR
STARTCHAR 06C9
ENCODING 1737
SWIDTH 432 0
DWIDTH 12 0
BBX 11 18 1 -2
BITMAP
00C0
01C0
0120
0000
0000
0080
01E0
01E0
0320
03A0
01E0
01E0
0020
0060
00C0
0180
8780
7E00
ENDCHAR
STARTCHAR 06CA
ENCODING 1738
SWIDTH 432 0
DWIDTH 12 0
BBX 11 19 1 -2
BITMAP
00C0
06E0
0740
0200
0000
0000
0080
01E0
01E0
0320
03A0
01E0
01E0
0020
0060
00C0
0180
8780
7E00
ENDCHAR
STARTCHAR 06CB
ENCODING 1739
SWIDTH 432 0
DWIDTH 12 0
BBX 11 22 1 -2
BITMAP
0200
0300
0300
00C0
06E0
0740
0200
0000
0000
0080
01E0
01E0
0320
03A0
01E0
01E0
0020
0060
00C0
0180
8780
7E00
ENDCHAR
STARTCHAR 06CC
ENCODING 1740
SWIDTH 648 0
DWIDTH 18 0
BBX 16 14 1 -1
BITMAP
0006
001F
003B
0021
4040
4040
80FE
807E
8002
8006
801C
E0FC
FFF0
7FC0
ENDCHAR
STARTCHAR 06CD
ENCODING 1741
SWIDTH 648 0
DWIDTH 18 0
BBX 18 14 -1 -1
BITMAP
000180
0007C0
000EC0
100840
701000
901000
203F80
201F80
200180
200180
200700
383F00
3FFC00
1FF000
ENDCHAR
STARTCHAR 06CE
ENCODING 1742
SWIDTH 648 0
DWIDTH 18 0
BBX 16 16 1 -1
BITMAP
0900
0500
0606
021F
003B
0021
4040
4040
80FE
807E
8002
8006
801C
E0FC
FFF0
7FC0
ENDCHAR
STARTCHAR 06CF
ENCODING 1743
SWIDTH 432 0
DWIDTH 12 0
BBX 11 18 1 -2
BITMAP
0300
0380
0100
0000
0000
0080
01E0
01E0
0320
03A0
01E0
01E0
0020
0060
00C0
0180
8780
7E00
ENDCHAR
STARTCHAR 06D0
ENCODING 1744
SWIDTH 648 0
DWIDTH 18 0
BBX 16 18 1 -5
BITMAP
0006
001F
003B
0021
4040
4040
80FE
807E
8002
8006
801C
E0FC
FFF0
7FC0
0000
0200
0200
0200
ENDCHAR
STARTCHAR 06D1
ENCODING 1745
SWIDTH 648 0
DWIDTH 18 0
BBX 16 17 1 -5
BITMAP
0006
001F
003B
0021
4040
4040
80FE
807E
8002
8006
801C
E0FC
FFF0
7FC0
0000
0180
0700
ENDCHAR
STARTCHAR 06D2
ENCODING 1746
SWIDTH 828 0
DWIDTH 23 0
BBX 22 11 1 -1
BITMAP
006000
00E000
012000
060000
1E0000
380000
600000
800000
FFFFFC
FFFFF0
FFFFC0
ENDCHAR
STARTCHAR 06D3
ENCODING 1747
SWIDTH 828 0
DWIDTH 23 0
BBX 22 14 1 0
BITMAP
060000
040000
070000
006000
00E000
012000
060000
1E0000
380000
600000
800000
FFFFFC
FFFFF0
FFFFC0
ENDCHAR
STARTCHAR 06D4
ENCODING 1748
SWIDTH 216 0
DWIDTH 6 0
BBX 4 2 1 4
BITMAP
F0
F0
ENDCHAR
STARTCHAR 06D5
ENCODING 1749
SWIDTH 288 0
DWIDTH 8 0
BBX 6 8 1 4
BITMAP
20
70
7C
5C
84
84
FC
F8
ENDCHAR
STARTCHAR 06D6
ENCODING 1750
SWIDTH 0 0
DWIDTH 0 0
BBX 12 10 -6 15
BITMAP
1000
1000
1000
1070
1490
3FF0
4000
8000
FFC0
FFC0
ENDCHAR
STARTCHAR 06D7
ENCODING 1751
SWIDTH 0 0
DWIDTH 0 0
BBX 10 10 -5 15
BITMAP
0B00
0900
0B80
0B80
0980
1F80
6000
8000
FFC0
FFC0
ENDCHAR
STARTCHAR 06D8
ENCODING 1752
SWIDTH 0 0
DWIDTH 0 0
BBX 6 4 -3 14
BITMAP
08
14
FC
C4
ENDCHAR
STARTCHAR 06D9
ENCODING 1753
SWIDTH 0 0
DWIDTH 0 0
BBX 6 9 -3 14
BITMAP
80
C4
48
28
18
08
18
28
30
ENDCHAR
STARTCHAR 06DA
ENCODING 1754
SWIDTH 0 0
DWIDTH 0 0
BBX 6 9 -3 14
BITMAP
FC
38
40
80
90
80
80
7C
18
ENDCHAR
STARTCHAR 06DB
ENCODING 1755
SWIDTH 0 0
DWIDTH 0 0
BBX 2 3 -1 15
BITMAP
80
C0
80
ENDCHAR
STARTCHAR 06DC
ENCODING 1756
SWIDTH 0 0
DWIDTH 0 0
BBX 10 6 -5 15
BITMAP
0440
84C0
8340
8400
FC00
3000
ENDCHAR
STARTCHAR 06DD
ENCODING 1757
SWIDTH 1116 0
DWIDTH 31 0
BBX 30 30 1 -5
BITMAP
00020000
007FF000
07E01F00
04FFFD00
0DFFFD80
1A0002C0
10000060
30000020
60000030
60000010
C0000018
C0000018
80000008
80000008
8000000C
8000000C
8000000C
80000008
C0000008
C0000018
40000018
60000010
20000030
30000060
180000C0
0F000380
04FFFD00
04800D00
03F87F00
003FE000
ENDCHAR
STARTCHAR 06DE
ENCODING 1758
SWIDTH 1080 0
DWIDTH 30 0
BBX 28 28 1 -3
BITMAP
00060000
00090000
00108000
00204000
0FFFFF00
08801100
09000900
0A000500
0C000300
08000100
18000180
280F0140
48198120
88108110
C8108130
68090160
380601C0
18000180
0C000300
0E000700
0B000D00
09801900
08C03100
0FFFFF00
0030C000
00198000
000F0000
00060000
ENDCHAR
STARTCHAR 06DF
ENCODING 1759
SWIDTH 0 0
DWIDTH 0 0
BBX 2 1 -1 14
BITMAP
C0
ENDCHAR
STARTCHAR 06E0
ENCODING 1760
SWIDTH 0 0
DWIDTH 0 0
BBX 2 2 -1 14
BITMAP
C0
C0
ENDCHAR
STARTCHAR 06E1
ENCODING 1761
SWIDTH 0 0
DWIDTH 0 0
BBX 8 4 -4 14
BITMAP
38
0C
FF
FF
ENDCHAR
STARTCHAR 06E2
ENCODING 1762
SWIDTH 0 0
DWIDTH 0 0
BBX 4 7 -2 14
BITMAP
60
10
70
80
80
80
80
ENDCHAR
STARTCHAR 06E3
ENCODING 1763
SWIDTH 0 0
DWIDTH 0 0
BBX 10 6 -5 -4
BITMAP
0440
84C0
83C0
8400
8C00
F800
ENDCHAR
STARTCHAR 06E4
ENCODING 1764
SWIDTH 0 0
DWIDTH 0 0
BBX 1 1 0 15
BITMAP
80
ENDCHAR
STARTCHAR 06E5
ENCODING 1765
SWIDTH 180 0
DWIDTH 5 0
BBX 4 6 1 14
BITMAP
30
30
10
10
30
C0
ENDCHAR
STARTCHAR 06E6
ENCODING 1766
SWIDTH 360 0
DWIDTH 10 0
BBX 10 6 0 14
BITMAP
0800
1800
2000
C000
FFC0
FF80
ENDCHAR
STARTCHAR 06E7
ENCODING 1767
SWIDTH 0 0
DWIDTH 0 0
BBX 10 6 -5 14
BITMAP
0800
1800
2000
C000
FFC0
FF80
ENDCHAR
STARTCHAR 06E8
ENCODING 1768
SWIDTH 0 0
DWIDTH 0 0
BBX 6 8 -3 15
BITMAP
10
04
04
84
84
84
FC
20
ENDCHAR
STARTCHAR 06E9
ENCODING 1769
SWIDTH 612 0
DWIDTH 17 0
BBX 15 23 1 0
BITMAP
0100
0380
04C0
0960
12B0
2558
4AAC
9456
9456
54A4
2CC8
1CD0
1CD0
1CD0
1CD0
1CD0
1CD0
1CD0
1CD0
1B50
2FC8
4004
FFFE
ENDCHAR
STARTCHAR 06EA
ENCODING 1770
SWIDTH 0 0
DWIDTH 0 0
BBX 4 3 -2 -4
BITMAP
E0
90
60
ENDCHAR
STARTCHAR 06EB
ENCODING 1771
SWIDTH 0 0
DWIDTH 0 0
BBX 4 3 -2 15
BITMAP
E0
90
60
ENDCHAR
STARTCHAR 06EC
ENCODING 1772
SWIDTH 0 0
DWIDTH 0 0
BBX 2 1 -1 14
BITMAP
C0
ENDCHAR
STARTCHAR 06ED
ENCODING 1773
SWIDTH 0 0
DWIDTH 0 0
BBX 4 6 -2 -4
BITMAP
70
70
80
80
80
80
ENDCHAR
STARTCHAR 06F0
ENCODING 1776
SWIDTH 540 0
DWIDTH 15 0
BBX 4 6 5 7
BITMAP
60
70
F0
F0
70
10
ENDCHAR
STARTCHAR 06F1
ENCODING 1777
SWIDTH 540 0
DWIDTH 15 0
BBX 5 16 4 4
BITMAP
40
60
E0
F0
70
30
38
18
18
08
08
08
08
08
08
08
ENDCHAR
STARTCHAR 06F2
ENCODING 1778
SWIDTH 540 0
DWIDTH 15 0
BBX 8 16 3 4
BITMAP
81
C1
E3
FF
7E
3C
38
18
18
18
08
08
0C
0C
04
08
ENDCHAR
STARTCHAR 06F3
ENCODING 1779
SWIDTH 540 0
DWIDTH 15 0
BBX 11 16 2 4
BITMAP
0220
C320
E7E0
FFE0
FDC0
7000
3000
3000
1800
1800
1800
0800
0800
0800
0800
0800
ENDCHAR
STARTCHAR 06F4
ENCODING 1780
SWIDTH 540 0
DWIDTH 15 0
BBX 11 15 2 4
BITMAP
0380
4640
E400
E820
78C0
3FC0
3F80
3800
1800
1800
1800
0800
0800
0800
0800
ENDCHAR
STARTCHAR 06F5
ENCODING 1781
SWIDTH 540 0
DWIDTH 15 0
BBX 10 15 2 5
BITMAP
0C00
0E00
0F00
0700
0B80
1180
21C0
20C0
4040
4040
C040
E6C0
FF80
7F80
3000
ENDCHAR
STARTCHAR 06F6
ENCODING 1782
SWIDTH 540 0
DWIDTH 15 0
BBX 9 15 3 4
BITMAP
0C00
3E00
2100
4000
C080
FF80
FF80
3E00
1C00
1800
3000
3000
2000
2000
4000
ENDCHAR
STARTCHAR 06F7
ENCODING 1783
SWIDTH 540 0
DWIDTH 15 0
BBX 11 15 2 5
BITMAP
8020
C060
E060
E0C0
70C0
3180
3900
1900
1A00
0E00
0E00
0400
0400
0400
0400
ENDCHAR
STARTCHAR 06F8
ENCODING 1784
SWIDTH 540 0
DWIDTH 15 0
BBX 11 15 2 5
BITMAP
0400
0400
0C00
0E00
0E00
1200
1300
1380
3180
61C0
60E0
C0E0
C060
8060
0020
ENDCHAR
STARTCHAR 06F9
ENCODING 1785
SWIDTH 540 0
DWIDTH 15 0
BBX 8 16 3 4
BITMAP
3C
7C
6E
C6
86
FE
FE
7E
02
02
02
02
03
03
03
01
ENDCHAR
STARTCHAR 06FA
ENCODING 1786
SWIDTH 828 0
DWIDTH 23 0
BBX 22 22 1 -2
BITMAP
000200
000300
000300
0000E0
0007E0
000700
000000
000000
000000
000808
00184C
401844
400C64
800CF4
8007FC
8007DC
800800
800800
C01820
F1F038
7FE030
3F8000
ENDCHAR
STARTCHAR 06FB
ENCODING 1787
SWIDTH 1116 0
DWIDTH 31 0
BBX 30 18 1 -2
BITMAP
00003000
00007000
00001000
00000000
00000000
000801F0
001807F8
40180E38
400C301C
800CE03C
8007FFFC
8007FFFC
80080000
80080000
C0180000
F1F00E00
7FE00C00
3F800000
ENDCHAR
STARTCHAR 06FC
ENCODING 1788
SWIDTH 540 0
DWIDTH 15 0
BBX 13 26 1 -6
BITMAP
1800
1800
0800
0000
0000
1C00
7E00
E000
8000
8020
C1E0
FFC0
7E00
3800
3000
4000
C000
8180
81C0
8080
8000
C000
E000
7FC0
3FF8
07C0
ENDCHAR
STARTCHAR 06FD
ENCODING 1789
SWIDTH 396 0
DWIDTH 11 0
BBX 8 15 2 -4
BITMAP
3C
7C
44
C0
E3
FF
7C
60
40
34
34
34
34
34
34
ENDCHAR
STARTCHAR 06FE
ENCODING 1790
SWIDTH 324 0
DWIDTH 9 0
BBX 9 15 0 -6
BITMAP
0E00
1F00
3380
0180
1F80
7F80
7000
4000
CD00
4D00
4D00
6D00
2D00
2D00
2000
ENDCHAR
STARTCHAR 1E80
ENCODING 7808
SWIDTH 936 0
DWIDTH 26 0
BBX 25 25 1 0
BITMAP
00700000
00380000
00180000
00080000
00000000
00000000
00000000
FC7E0F80
30380200
381C0600
381C0400
181C0400
1C1E0800
1C1E0800
0C160800
0E371000
0E271000
06231000
0763A000
0743A000
03C1A000
0381C000
0181C000
0180C000
01008000
ENDCHAR
STARTCHAR 1E81
ENCODING 7809
SWIDTH 720 0
DWIDTH 20 0
BBX 18 19 1 0
BITMAP
038000
018000
00C000
004000
000000
000000
000000
F1F1C0
60C080
70E080
306100
30F100
38B100
193200
1D3A00
0E1C00
0E1C00
0C0C00
040800
ENDCHAR
STARTCHAR 1E82
ENCODING 7810
SWIDTH 936 0
DWIDTH 26 0
BBX 25 25 1 0
BITMAP
000E0000
000C0000
00180000
00100000
00000000
00000000
00000000
FC7E0F80
30380200
381C0600
381C0400
181C0400
1C1E0800
1C1E0800
0C160800
0E371000
0E271000
06231000
0763A000
0743A000
03C1A000
0381C000
0181C000
0180C000
01008000
ENDCHAR
STARTCHAR 1E83
ENCODING 7811
SWIDTH 720 0
DWIDTH 20 0
BBX 18 19 1 0
BITMAP
007000
006000
00C000
008000
000000
000000
000000
F1F1C0
60C080
70E080
306100
30F100
38B100
193200
1D3A00
0E1C00
0E1C00
0C0C00
040800
ENDCHAR
STARTCHAR 1E84
ENCODING 7812
SWIDTH 936 0
DWIDTH 26 0
BBX 25 23 1 0
BITMAP
00670000
00E70000
00420000
00000000
00000000
FC7E0F80
30380200
381C0600
381C0400
181C0400
1C1E0800
1C1E0800
0C160800
0E371000
0E271000
06231000
0763A000
0743A000
03C1A000
0381C000
0181C000
0180C000
01008000
ENDCHAR
STARTCHAR 1E85
ENCODING 7813
SWIDTH 720 0
DWIDTH 20 0
BBX 18 18 1 0
BITMAP
073800
073800
021000
000000
000000
000000
F1F1C0
60C080
70E080
306100
30F100
38B100
193200
1D3A00
0E1C00
0E1C00
0C0C00
040800
ENDCHAR
STARTCHAR 1EA0
ENCODING 7840
SWIDTH 720 0
DWIDTH 20 0
BBX 20 23 0 -4
BITMAP
006000
006000
00F000
00F000
01B000
013800
013800
021C00
021C00
060E00
040E00
0FFE00
080700
080700
100380
100380
3003C0
FC0FF0
000000
000000
00E000
00E000
004000
ENDCHAR
STARTCHAR 1EA1
ENCODING 7841
SWIDTH 432 0
DWIDTH 12 0
BBX 11 18 1 -5
BITMAP
1E00
6380
6180
E180
4180
0780
1980
6180
C180
C180
E180
E7E0
79C0
0000
0000
1C00
1C00
0800
ENDCHAR
STARTCHAR 1EA2
ENCODING 7842
SWIDTH 720 0
DWIDTH 20 0
BBX 20 25 0 0
BITMAP
006000
009000
001000
002000
000000
000000
000000
006000
006000
00F000
00F000
01B000
013800
013800
021C00
021C00
060E00
040E00
0FFE00
080700
080700
100380
100380
3003C0
FC0FF0
ENDCHAR
STARTCHAR 1EA3
ENCODING 7843
SWIDTH 432 0
DWIDTH 12 0
BBX 11 19 1 0
BITMAP
0C00
1200
0200
0400
0000
0000
1E00
6380
6180
E180
4180
0780
1980
6180
C180
C180
E180
E7E0
79C0
ENDCHAR
STARTCHAR 1EA4
ENCODING 7844
SWIDTH 720 0
DWIDTH 20 0
BBX 20 25 0 0
BITMAP
003000
006000
000000
00F000
010800
000000
000000
006000
006000
00F000
00F000
01B000
013800
013800
021C00
021C00
060E00
040E00
0FFE00
080700
080700
100380
100380
3003C0
FC0FF0
ENDCHAR
STARTCHAR 1EA5
ENCODING 7845
SWIDTH 432 0
DWIDTH 12 0
BBX 11 25 1 0
BITMAP
0700
0600
0400
0C00
0800
0000
0E00
1E00
1300
2100
0080
0000
1E00
6380
6180
E180
4180
0780
1980
6180
C180
C180
E180
E7E0
79C0
ENDCHAR
STARTCHAR 1EA6
ENCODING 7846
SWIDTH 720 0
DWIDTH 20 0
BBX 20 25 0 0
BITMAP
01C000
004000
000000
00F000
010800
000000
000000
006000
006000
00F000
00F000
01B000
013800
013800
021C00
021C00
060E00
040E00
0FFE00
080700
080700
100380
100380
3003C0
FC0FF0
ENDCHAR
STARTCHAR 1EA7
ENCODING 7847
SWIDTH 432 0
DWIDTH 12 0
BBX 11 25 1 0
BITMAP
3800
1800
0C00
0400
0000
0000
0E00
1E00
1300
2100
0080
0000
1E00
6380
6180
E180
4180
0780
1980
6180
C180
C180
E180
E7E0
79C0
ENDCHAR
STARTCHAR 1EA8
ENCODING 7848
SWIDTH 720 0
DWIDTH 20 0
BBX 20 25 0 0
BITMAP
006000
003000
000000
00F000
010800
000000
000000
006000
006000
00F000
00F000
01B000
013800
013800
021C00
021C00
060E00
040E00
0FFE00
080700
080700
100380
100380
3003C0
FC0FF0
ENDCHAR
STARTCHAR 1EA9
ENCODING 7849
SWIDTH 432 0
DWIDTH 12 0
BBX 11 25 1 0
BITMAP
0600
0B00
0200
0400
0400
0000
0E00
1E00
1300
2100
0080
0000
1E00
6380
6180
E180
4180
0780
1980
6180
C180
C180
E180
E7E0
79C0
ENDCHAR
STARTCHAR 1EAA
ENCODING 7850
SWIDTH 720 0
DWIDTH 20 0
BBX 20 25 0 0
BITMAP
01C400
02F800
000000
00F000
010800
000000
000000
006000
006000
00F000
00F000
01B000
013800
013800
021C00
021C00
060E00
040E00
0FFE00
080700
080700
100380
100380
3003C0
FC0FF0
ENDCHAR
STARTCHAR 1EAB
ENCODING 7851
SWIDTH 432 0
DWIDTH 12 0
BBX 11 24 1 0
BITMAP
3000
7C80
4F80
0700
0000
0E00
1E00
1300
2100
0080
0000
1E00
6380
6180
E180
4180
0780
1980
6180
C180
C180
E180
E7E0
79C0
ENDCHAR
STARTCHAR 1EAC
ENCODING 7852
SWIDTH 720 0
DWIDTH 20 0
BBX 20 27 0 -5
BITMAP
00F000
010800
000000
000000
006000
006000
00F000
00F000
01B000
013800
013800
021C00
021C00
060E00
040E00
0FFE00
080700
080700
100380
100380
3003C0
FC0FF0
000000
000000
00E000
00E000
004000
ENDCHAR
STARTCHAR 1EAD
ENCODING 7853
SWIDTH 432 0
DWIDTH 12 0
BBX 11 24 1 -5
BITMAP
0E00
1E00
1300
2100
0080
0000
1E00
6380
6180
E180
4180
0780
1980
6180
C180
C180
E180
E7E0
79C0
0000
0000
1C00
1C00
0800
ENDCHAR
STARTCHAR 1EAE
ENCODING 7854
SWIDTH 720 0
DWIDTH 20 0
BBX 20 25 0 0
BITMAP
003000
006000
000000
019800
00E000
000000
000000
006000
006000
00F000
00F000
01B000
013800
013800
021C00
021C00
060E00
040E00
0FFE00
080700
080700
100380
100380
3003C0
FC0FF0
ENDCHAR
STARTCHAR 1EAF
ENCODING 7855
SWIDTH 432 0
DWIDTH 12 0
BBX 11 25 1 0
BITMAP
0700
0600
0C00
0800
0000
0000
0000
4080
3F00
1F00
0000
0000
1E00
6380
6180
E180
4180
0780
1980
6180
C180
C180
E180
E7E0
79C0
ENDCHAR
STARTCHAR 1EB0
ENCODING 7856
SWIDTH 720 0
DWIDTH 20 0
BBX 20 25 0 0
BITMAP
01C000
004000
000000
019800
00E000
000000
000000
006000
006000
00F000
00F000
01B000
013800
013800
021C00
021C00
060E00
040E00
0FFE00
080700
080700
100380
100380
3003C0
FC0FF0
ENDCHAR
STARTCHAR 1EB1
ENCODING 7857
SWIDTH 432 0
DWIDTH 12 0
BBX 11 25 1 0
BITMAP
3800
1C00
0C00
0400
0200
0000
0000
4080
3F00
1F00
0000
0000
1E00
6380
6180
E180
4180
0780
1980
6180
C180
C180
E180
E7E0
79C0
ENDCHAR
STARTCHAR 1EB2
ENCODING 7858
SWIDTH 720 0
DWIDTH 20 0
BBX 20 25 0 0
BITMAP
006000
003000
000000
019800
00E000
000000
000000
006000
006000
00F000
00F000
01B000
013800
013800
021C00
021C00
060E00
040E00
0FFE00
080700
080700
100380
100380
3003C0
FC0FF0
ENDCHAR
STARTCHAR 1EB3
ENCODING 7859
SWIDTH 432 0
DWIDTH 12 0
BBX 11 25 1 0
BITMAP
0C00
1200
0200
0400
0000
0000
0000
4080
3F00
1F00
0000
0000
1E00
6380
6180
E180
4180
0780
1980
6180
C180
C180
E180
E7E0
79C0
ENDCHAR
STARTCHAR 1EB4
ENCODING 7860
SWIDTH 720 0
DWIDTH 20 0
BBX 20 25 0 0
BITMAP
01C400
02F800
000000
019800
00E000
000000
000000
006000
006000
00F000
00F000
01B000
013800
013800
021C00
021C00
060E00
040E00
0FFE00
080700
080700
100380
100380
3003C0
FC0FF0
ENDCHAR
STARTCHAR 1EB5
ENCODING 7861
SWIDTH 432 0
DWIDTH 12 0
BBX 11 24 1 0
BITMAP
3000
7C80
4F80
0700
0000
0000
4080
3F00
1F00
0000
0000
1E00
6380
6180
E180
4180
0780
1980
6180
C180
C180
E180
E7E0
79C0
ENDCHAR
STARTCHAR 1EB6
ENCODING 7862
SWIDTH 720 0
DWIDTH 20 0
BBX 20 27 0 -5
BITMAP
019800
00E000
000000
000000
006000
006000
00F000
00F000
01B000
013800
013800
021C00
021C00
060E00
040E00
0FFE00
080700
080700
100380
100380
3003C0
FC0FF0
000000
000000
00E000
00E000
004000
ENDCHAR
STARTCHAR 1EB7
ENCODING 7863
SWIDTH 432 0
DWIDTH 12 0
BBX 11 23 1 -5
BITMAP
4080
3F00
1F00
0000
0000
1E00
6380
6180
E180
4180
0780
1980
6180
C180
C180
E180
E7E0
79C0
0000
0000
1C00
1C00
0800
ENDCHAR
STARTCHAR 1EB8
ENCODING 7864
SWIDTH 612 0
DWIDTH 17 0
BBX 15 23 1 -5
BITMAP
FFFC
3804
3804
3804
3800
3800
3810
3810
3FF0
3810
3810
3800
3800
3800
3802
3806
380C
FFFC
0000
0000
0380
0380
0100
ENDCHAR
STARTCHAR 1EB9
ENCODING 7865
SWIDTH 432 0
DWIDTH 12 0
BBX 11 18 1 -5
BITMAP
0F00
3380
61C0
40C0
FFE0
C000
C000
C000
E020
E040
7040
7F80
1F00
0000
0000
0E00
0E00
0400
ENDCHAR
STARTCHAR 1EBA
ENCODING 7866
SWIDTH 612 0
DWIDTH 17 0
BBX 15 25 1 0
BITMAP
0180
0240
0040
0080
0000
0000
0000
FFFC
3804
3804
3804
3800
3800
3810
3810
3FF0
3810
3810
3800
3800
3800
3802
3806
380C
FFFC
ENDCHAR
STARTCHAR 1EBB
ENCODING 7867
SWIDTH 432 0
DWIDTH 12 0
BBX 11 19 1 0
BITMAP
0600
0B00
0200
0400
0400
0000
0F00
3380
61C0
40C0
FFE0
C000
C000
C000
E020
E040
7040
7F80
1F00
ENDCHAR
STARTCHAR 1EBC
ENCODING 7868
SWIDTH 612 0
DWIDTH 17 0
BBX 15 23 1 0
BITMAP
0F90
0BF0
10E0
0000
0000
FFFC
3804
3804
3804
3800
3800
3810
3810
3FF0
3810
3810
3800
3800
3800
3802
3806
380C
FFFC
ENDCHAR
STARTCHAR 1EBD
ENCODING 7869
SWIDTH 432 0
DWIDTH 12 0
BBX 11 18 1 0
BITMAP
3C40
4FC0
4780
0000
0000
0F00
3380
61C0
40C0
FFE0
C000
C000
C000
E020
E040
7040
7F80
1F00
ENDCHAR
STARTCHAR 1EBE
ENCODING 7870
SWIDTH 612 0
DWIDTH 17 0
BBX 15 25 1 0
BITMAP
00E0
0080
0000
03C0
0420
0000
0000
FFFC
3804
3804
3804
3800
3800
3810
3810
3FF0
3810
3810
3800
3800
3800
3802
3806
380C
FFFC
ENDCHAR
STARTCHAR 1EBF
ENCODING 7871
SWIDTH 432 0
DWIDTH 12 0
BBX 11 25 1 0
BITMAP
0380
0700
0600
0400
0000
0000
0E00
0F00
1B00
1080
2000
0000
0F00
3380
61C0
40C0
FFE0
C000
C000
C000
E020
E040
7040
7F80
1F00
ENDCHAR
STARTCHAR 1EC0
ENCODING 7872
SWIDTH 612 0
DWIDTH 17 0
BBX 15 25 1 0
BITMAP
0300
0180
0000
03C0
0420
0000
0000
FFFC
3804
3804
3804
3800
3800
3810
3810
3FF0
3810
3810
3800
3800
3800
3802
3806
380C
FFFC
ENDCHAR
STARTCHAR 1EC1
ENCODING 7873
SWIDTH 432 0
DWIDTH 12 0
BBX 11 25 1 0
BITMAP
1C00
0C00
0C00
0600
0200
0000
0E00
0F00
1B00
1080
2000
0000
0F00
3380
61C0
40C0
FFE0
C000
C000
C000
E020
E040
7040
7F80
1F00
ENDCHAR
STARTCHAR 1EC2
ENCODING 7874
SWIDTH 612 0
DWIDTH 17 0
BBX 15 25 1 0
BITMAP
01C0
0040
0080
03C0
0420
0000
0000
FFFC
3804
3804
3804
3800
3800
3810
3810
3FF0
3810
3810
3800
3800
3800
3802
3806
380C
FFFC
ENDCHAR
STARTCHAR 1EC3
ENCODING 7875
SWIDTH 432 0
DWIDTH 12 0
BBX 11 25 1 0
BITMAP
0600
0900
0100
0200
0000
0000
0E00
0F00
1B00
1080
2000
0000
0F00
3380
61C0
40C0
FFE0
C000
C000
C000
E020
E040
7040
7F80
1F00
ENDCHAR
STARTCHAR 1EC4
ENCODING 7876
SWIDTH 612 0
DWIDTH 17 0
BBX 15 25 1 0
BITMAP
0700
09F0
0000
03C0
0420
0000
0000
FFFC
3804
3804
3804
3800
3800
3810
3810
3FF0
3810
3810
3800
3800
3800
3802
3806
380C
FFFC
ENDCHAR
STARTCHAR 1EC5
ENCODING 7877
SWIDTH 432 0
DWIDTH 12 0
BBX 11 24 1 0
BITMAP
1800
3E40
4FC0
4300
0000
0E00
0F00
1B00
1080
2000
0000
0F00
3380
61C0
40C0
FFE0
C000
C000
C000
E020
E040
7040
7F80
1F00
ENDCHAR
STARTCHAR 1EC6
ENCODING 7878
SWIDTH 612 0
DWIDTH 17 0
BBX 15 27 1 -5
BITMAP
03C0
0420
0000
0000
FFFC
3804
3804
3804
3800
3800
3810
3810
3FF0
3810
3810
3800
3800
3800
3802
3806
380C
FFFC
0000
0000
0380
0380
0100
ENDCHAR
STARTCHAR 1EC7
ENCODING 7879
SWIDTH 432 0
DWIDTH 12 0
BBX 11 24 1 -5
BITMAP
0E00
0F00
1B00
1080
2000
0000
0F00
3380
61C0
40C0
FFE0
C000
C000
C000
E020
E040
7040
7F80
1F00
0000
0000
0E00
0E00
0400
ENDCHAR
STARTCHAR 1EC8
ENCODING 7880
SWIDTH 324 0
DWIDTH 9 0
BBX 8 25 1 0
BITMAP
18
24
04
08
00
00
00
FE
38
38
38
38
38
38
38
38
38
38
38
38
38
38
38
38
FF
ENDCHAR
STARTCHAR 1EC9
ENCODING 7881
SWIDTH 288 0
DWIDTH 8 0
BBX 6 19 1 0
BITMAP
30
48
08
10
00
00
10
F0
30
30
30
30
30
30
30
30
30
30
FC
ENDCHAR
STARTCHAR 1ECA
ENCODING 7882
SWIDTH 324 0
DWIDTH 9 0
BBX 8 23 1 -5
BITMAP
FE
38
38
38
38
38
38
38
38
38
38
38
38
38
38
38
38
FF
00
00
38
38
10
ENDCHAR
STARTCHAR 1ECB
ENCODING 7883
SWIDTH 288 0
DWIDTH 8 0
BBX 6 23 1 -5
BITMAP
30
30
00
00
00
00
10
F0
30
30
30
30
30
30
30
30
30
30
FC
00
00
30
30
ENDCHAR
STARTCHAR 1ECC
ENCODING 7884
SWIDTH 720 0
DWIDTH 20 0
BBX 18 23 1 -5
BITMAP
01F000
0E3C00
180E00
380700
700380
700380
E001C0
E001C0
E001C0
E001C0
E001C0
E001C0
E001C0
700180
700380
300300
380600
1C0C00
07F800
000000
000000
00C000
01C000
ENDCHAR
STARTCHAR 1ECD
ENCODING 7885
SWIDTH 504 0
DWIDTH 14 0
BBX 12 17 1 -5
BITMAP
0F00
31C0
60E0
6060
E070
C070
E070
E070
E070
E060
7060
30C0
1F80
0000
0000
0600
0E00
ENDCHAR
STARTCHAR 1ECE
ENCODING 7886
SWIDTH 720 0
DWIDTH 20 0
BBX 18 25 1 0
BITMAP
00C000
012000
002000
004000
000000
000000
01F000
0E3C00
180E00
380700
700380
700380
E001C0
E001C0
E001C0
E001C0
E001C0
E001C0
E001C0
700180
700380
300300
380600
1C0C00
07F800
ENDCHAR
STARTCHAR 1ECF
ENCODING 7887
SWIDTH 504 0
DWIDTH 14 0
BBX 12 19 1 0
BITMAP
0600
0900
0100
0200
0000
0000
0F00
31C0
60E0
6060
E070
C070
E070
E070
E070
E060
7060
30C0
1F80
ENDCHAR
STARTCHAR 1ED0
ENCODING 7888
SWIDTH 720 0
DWIDTH 20 0
BBX 18 25 1 0
BITMAP
007000
004000
000000
01E000
021000
000000
01F000
0E3C00
180E00
380700
700380
700380
E001C0
E001C0
E001C0
E001C0
E001C0
E001C0
E001C0
700180
700380
300300
380600
1C0C00
07F800
ENDCHAR
STARTCHAR 1ED1
ENCODING 7889
SWIDTH 504 0
DWIDTH 14 0
BBX 12 25 1 0
BITMAP
0380
0300
0200
0400
0400
0000
0700
0F00
0980
1080
2040
0000
0F00
31C0
60E0
6060
E070
C070
E070
E070
E070
E060
7060
30C0
1F80
ENDCHAR
STARTCHAR 1ED2
ENCODING 7890
SWIDTH 720 0
DWIDTH 20 0
BBX 18 25 1 0
BITMAP
01C000
00C000
000000
01E000
021000
000000
01F000
0E3C00
180E00
380700
700380
700380
E001C0
E001C0
E001C0
E001C0
E001C0
E001C0
E001C0
700180
700380
300300
380600
1C0C00
07F800
ENDCHAR
STARTCHAR 1ED3
ENCODING 7891
SWIDTH 504 0
DWIDTH 14 0
BBX 12 25 1 0
BITMAP
1C00
0C00
0600
0200
0000
0000
0700
0F00
0980
1080
2040
0000
0F00
31C0
60E0
6060
E070
C070
E070
E070
E070
E060
7060
30C0
1F80
ENDCHAR
STARTCHAR 1ED4
ENCODING 7892
SWIDTH 720 0
DWIDTH 20 0
BBX 18 25 1 0
BITMAP
00E000
002000
004000
01E000
021000
000000
01F000
0E3C00
180E00
380700
700380
700380
E001C0
E001C0
E001C0
E001C0
E001C0
E001C0
E001C0
700180
700380
300300
380600
1C0C00
07F800
ENDCHAR
STARTCHAR 1ED5
ENCODING 7893
SWIDTH 504 0
DWIDTH 14 0
BBX 12 25 1 0
BITMAP
0700
0500
0100
0200
0200
0000
0700
0F00
0980
1080
2040
0000
0F00
31C0
60E0
6060
E070
C070
E070
E070
E070
E060
7060
30C0
1F80
ENDCHAR
STARTCHAR 1ED6
ENCODING 7894
SWIDTH 720 0
DWIDTH 20 0
BBX 18 25 1 0
BITMAP
038000
04F800
000000
01E000
021000
000000
01F000
0E3C00
180E00
380700
700380
700380
E001C0
E001C0
E001C0
E001C0
E001C0
E001C0
E001C0
700180
700380
300300
380600
1C0C00
07F800
ENDCHAR
STARTCHAR 1ED7
ENCODING 7895
SWIDTH 504 0
DWIDTH 14 0
BBX 12 24 1 0
BITMAP
1C20
3E40
27C0
0180
0000
0700
0F00
0980
1080
2040
0000
0F00
31C0
60E0
6060
E070
C070
E070
E070
E070
E060
7060
30C0
1F80
ENDCHAR
STARTCHAR 1ED8
ENCODING 7896
SWIDTH 720 0
DWIDTH 20 0
BBX 18 26 1 -5
BITMAP
01E000
021000
000000
01F000
0E3C00
180E00
380700
700380
700380
E001C0
E001C0
E001C0
E001C0
E001C0
E001C0
E001C0
700180
700380
300300
380600
1C0C00
07F800
000000
000000
00C000
01C000
ENDCHAR
STARTCHAR 1ED9
ENCODING 7897
SWIDTH 504 0
DWIDTH 14 0
BBX 12 23 1 -5
BITMAP
0700
0F00
0980
1080
2040
0000
0F00
31C0
60E0
6060
E070
C070
E070
E070
E070
E060
7060
30C0
1F80
0000
0000
0600
0E00
ENDCHAR
STARTCHAR 1EDA
ENCODING 7898
SWIDTH 720 0
DWIDTH 20 0
BBX 18 24 1 0
BITMAP
003800
003000
002000
004180
000180
01E080
0E1F00
180600
380700
700380
700380
E001C0
E001C0
E001C0
E001C0
E001C0
E001C0
E001C0
700180
700380
300300
380600
1C0C00
07F800
ENDCHAR
STARTCHAR 1EDB
ENCODING 7899
SWIDTH 540 0
DWIDTH 15 0
BBX 14 19 1 0
BITMAP
0380
0300
0200
0600
0400
0000
0F1C
31DC
60E8
6070
E070
C070
E070
E070
E070
E060
7060
30C0
1F80
ENDCHAR
STARTCHAR 1EDC
ENCODING 7900
SWIDTH 720 0
DWIDTH 20 0
BBX 18 24 1 0
BITMAP
01C000
00C000
004000
002180
000180
01E080
0E1F00
180600
380700
700380
700380
E001C0
E001C0
E001C0
E001C0
E001C0
E001C0
E001C0
700180
700380
300300
380600
1C0C00
07F800
ENDCHAR
STARTCHAR 1EDD
ENCODING 7901
SWIDTH 540 0
DWIDTH 15 0
BBX 14 19 1 0
BITMAP
1C00
0C00
0600
0200
0000
0000
0F1C
31DC
60E8
6070
E070
C070
E070
E070
E070
E060
7060
30C0
1F80
ENDCHAR
STARTCHAR 1EDE
ENCODING 7902
SWIDTH 720 0
DWIDTH 20 0
BBX 18 25 1 0
BITMAP
006000
009000
001000
002000
000180
000180
01E080
0E1F00
180600
380700
700380
700380
E001C0
E001C0
E001C0
E001C0
E001C0
E001C0
E001C0
700180
700380
300300
380600
1C0C00
07F800
ENDCHAR
STARTCHAR 1EDF
ENCODING 7903
SWIDTH 540 0
DWIDTH 15 0
BBX 14 19 1 0
BITMAP
0600
0900
0100
0200
0000
0000
0F1C
31DC
60E8
6070
E070
C070
E070
E070
E070
E060
7060
30C0
1F80
ENDCHAR
STARTCHAR 1EE0
ENCODING 7904
SWIDTH 720 0
DWIDTH 20 0
BBX 18 23 1 0
BITMAP
03C400
02FC00
043980
000180
01E080
0E1F00
180600
380700
700380
700380
E001C0
E001C0
E001C0
E001C0
E001C0
E001C0
E001C0
700180
700380
300300
380600
1C0C00
07F800
ENDCHAR
STARTCHAR 1EE1
ENCODING 7905
SWIDTH 540 0
DWIDTH 15 0
BBX 14 18 1 0
BITMAP
3E40
2FC0
4380
0000
0000
0F1C
31DC
60E8
6070
E070
C070
E070
E070
E070
E060
7060
30C0
1F80
ENDCHAR
STARTCHAR 1EE2
ENCODING 7906
SWIDTH 720 0
DWIDTH 20 0
BBX 18 26 1 -5
BITMAP
000180
000180
01E080
0E1F00
180600
380700
700380
700380
E001C0
E001C0
E001C0
E001C0
E001C0
E001C0
E001C0
700180
700380
300300
380600
1C0C00
07F800
000000
000000
00E000
00E000
004000
ENDCHAR
STARTCHAR 1EE3
ENCODING 7907
SWIDTH 540 0
DWIDTH 15 0
BBX 14 17 1 -5
BITMAP
0F1C
31DC
60E8
6070
E070
C070
E070
E070
E070
E060
7060
30C0
1F80
0000
0000
0600
0E00
ENDCHAR
STARTCHAR 1EE4
ENCODING 7908
SWIDTH 720 0
DWIDTH 20 0
BBX 18 23 1 -5
BITMAP
FE07C0
380100
300100
300100
300100
300100
300100
300100
300100
300100
300100
300100
380100
380100
380300
180200
1C0C00
07F800
000000
000000
01C000
01C000
008000
ENDCHAR
STARTCHAR 1EE5
ENCODING 7909
SWIDTH 504 0
DWIDTH 14 0
BBX 13 17 1 -5
BITMAP
E1E0
60E0
6060
6060
6060
6060
6060
6060
6060
70E0
3B68
3E70
0000
0000
0E00
0E00
0400
ENDCHAR
STARTCHAR 1EE6
ENCODING 7910
SWIDTH 720 0
DWIDTH 20 0
BBX 18 25 1 0
BITMAP
00C000
012000
002000
004000
000000
000000
000000
FE07C0
380100
300100
300100
300100
300100
300100
300100
300100
300100
300100
300100
380100
380100
380300
180200
1C0C00
07F800
ENDCHAR
STARTCHAR 1EE7
ENCODING 7911
SWIDTH 504 0
DWIDTH 14 0
BBX 13 19 1 0
BITMAP
0600
0900
0300
0200
0000
0000
0000
E1E0
60E0
6060
6060
6060
6060
6060
6060
6060
70E0
3B68
3E70
ENDCHAR
STARTCHAR 1EE8
ENCODING 7912
SWIDTH 792 0
DWIDTH 22 0
BBX 21 24 1 0
BITMAP
007000
00C000
00C000
008018
000018
000018
FE07E0
380100
300100
300100
300100
300100
300100
300100
300100
300100
300100
300100
380100
380100
380300
180200
1C0C00
07F800
ENDCHAR
STARTCHAR 1EE9
ENCODING 7913
SWIDTH 540 0
DWIDTH 15 0
BBX 14 19 1 0
BITMAP
0300
0700
0600
0400
0800
0000
001C
E1FC
60EC
6070
6060
6060
6060
6060
6060
6060
70E0
3B68
3E70
ENDCHAR
STARTCHAR 1EEA
ENCODING 7914
SWIDTH 792 0
DWIDTH 22 0
BBX 21 24 1 0
BITMAP
01C000
00C000
004000
002018
000018
000018
FE07E0
380100
300100
300100
300100
300100
300100
300100
300100
300100
300100
300100
380100
380100
380300
180200
1C0C00
07F800
ENDCHAR
STARTCHAR 1EEB
ENCODING 7915
SWIDTH 540 0
DWIDTH 15 0
BBX 14 19 1 0
BITMAP
1C00
0C00
0600
0200
0000
0000
001C
E1FC
60EC
6070
6060
6060
6060
6060
6060
6060
70E0
3B68
3E70
ENDCHAR
STARTCHAR 1EEC
ENCODING 7916
SWIDTH 792 0
DWIDTH 22 0
BBX 21 25 1 0
BITMAP
00C000
012000
002000
004000
000018
000018
000018
FE07E0
380100
300100
300100
300100
300100
300100
300100
300100
300100
300100
300100
380100
380100
380300
180200
1C0C00
07F800
ENDCHAR
STARTCHAR 1EED
ENCODING 7917
SWIDTH 540 0
DWIDTH 15 0
BBX 14 19 1 0
BITMAP
0600
0900
0300
0200
0000
0000
001C
E1FC
60EC
6070
6060
6060
6060
6060
6060
6060
70E0
3B68
3E70
ENDCHAR
STARTCHAR 1EEE
ENCODING 7918
SWIDTH 792 0
DWIDTH 22 0
BBX 21 23 1 0
BITMAP
03C800
05F800
087818
000018
000018
FE07E0
380100
300100
300100
300100
300100
300100
300100
300100
300100
300100
300100
380100
380100
380300
180200
1C0C00
07F800
ENDCHAR
STARTCHAR 1EEF
ENCODING 7919
SWIDTH 540 0
DWIDTH 15 0
BBX 14 18 1 0
BITMAP
3E40
2FC0
4380
0000
0000
001C
E1FC
60EC
6070
6060
6060
6060
6060
6060
6060
70E0
3B68
3E70
ENDCHAR
STARTCHAR 1EF0
ENCODING 7920
SWIDTH 792 0
DWIDTH 22 0
BBX 21 26 1 -4
BITMAP
000018
000018
000018
FE07E0
380100
300100
300100
300100
300100
300100
300100
300100
300100
300100
300100
380100
380100
380300
180200
1C0C00
07F800
000000
000000
01C000
01C000
008000
ENDCHAR
STARTCHAR 1EF1
ENCODING 7921
SWIDTH 540 0
DWIDTH 15 0
BBX 14 18 1 -5
BITMAP
001C
E1FC
60EC
6070
6060
6060
6060
6060
6060
6060
70E0
3B68
3E70
0000
0000
0E00
0E00
0400
ENDCHAR
STARTCHAR 1EF2
ENCODING 7922
SWIDTH 720 0
DWIDTH 20 0
BBX 18 25 1 0
BITMAP
038000
018000
00C000
004000
000000
000000
000000
FE07C0
380300
3C0200
1C0400
0E0400
0E0800
071800
039000
03A000
01E000
00C000
00C000
00C000
00C000
00C000
00C000
01C000
07F800
ENDCHAR
STARTCHAR 1EF3
ENCODING 7923
SWIDTH 504 0
DWIDTH 14 0
BBX 12 25 1 -6
BITMAP
1C00
0C00
0600
0200
0000
0000
0000
F070
7020
3060
3040
3840
1880
1C80
0D80
0F00
0700
0600
0200
0600
0400
0400
C800
F800
E000
ENDCHAR
STARTCHAR 1EF4
ENCODING 7924
SWIDTH 720 0
DWIDTH 20 0
BBX 18 22 1 -5
BITMAP
FE07C0
380300
3C0200
1C0400
0E0400
0E0800
071800
039000
03A000
01E000
00C000
00C000
00C000
00C000
00C000
00C000
01C000
07F800
000000
000000
00C000
01C000
ENDCHAR
STARTCHAR 1EF5
ENCODING 7925
SWIDTH 504 0
DWIDTH 14 0
BBX 12 18 1 -6
BITMAP
F070
7020
3060
3040
3840
1880
1C80
0D80
0F00
0700
0600
0200
0600
0400
04C0
C8C0
F800
E000
ENDCHAR
STARTCHAR 1EF6
ENCODING 7926
SWIDTH 720 0
DWIDTH 20 0
BBX 18 25 1 0
BITMAP
00C000
012000
006000
004000
000000
000000
000000
FE07C0
380300
3C0200
1C0400
0E0400
0E0800
071800
039000
03A000
01E000
00C000
00C000
00C000
00C000
00C000
00C000
01C000
07F800
ENDCHAR
STARTCHAR 1EF7
ENCODING 7927
SWIDTH 504 0
DWIDTH 14 0
BBX 12 25 1 -6
BITMAP
0600
0500
0100
0200
0200
0000
0000
F070
7020
3060
3040
3840
1880
1C80
0D80
0F00
0700
0600
0200
0600
0400
0400
C800
F800
E000
ENDCHAR
STARTCHAR 1EF8
ENCODING 7928
SWIDTH 720 0
DWIDTH 20 0
BBX 18 23 1 0
BITMAP
07C800
05F800
087000
000000
000000
FE07C0
380300
3C0200
1C0400
0E0400
0E0800
071800
039000
03A000
01E000
00C000
00C000
00C000
00C000
00C000
00C000
01C000
07F800
ENDCHAR
STARTCHAR 1EF9
ENCODING 7929
SWIDTH 504 0
DWIDTH 14 0
BBX 12 24 1 -6
BITMAP
3E40
2FC0
4380
0000
0000
0000
F070
7020
3060
3040
3840
1880
1C80
0D80
0F00
0700
0600
0200
0600
0400
0400
C800
F800
E000
ENDCHAR
STARTCHAR 200C
ENCODING 8204
SWIDTH 0 0
DWIDTH 0 0
BBX 1 21 -1 -4
BITMAP
80
80
80
80
80
80
80
80
80
80
80
80
80
80
80
80
80
80
80
80
80
ENDCHAR
STARTCHAR 200D
ENCODING 8205
SWIDTH 0 0
DWIDTH 0 0
BBX 6 23 -3 -4
BITMAP
84
48
30
30
68
A4
20
20
20
20
20
20
20
20
20
20
20
20
20
20
20
20
20
ENDCHAR
STARTCHAR 200E
ENCODING 8206
SWIDTH 0 0
DWIDTH 0 0
BBX 6 5 0 -4
BITMAP
30
18
FC
08
10
ENDCHAR
STARTCHAR 200F
ENCODING 8207
SWIDTH 0 0
DWIDTH 0 0
BBX 6 23 -6 -4
BITMAP
30
60
FC
44
24
04
04
04
04
04
04
04
04
04
04
04
04
04
04
04
04
04
04
ENDCHAR
STARTCHAR 2013
ENCODING 8211
SWIDTH 504 0
DWIDTH 14 0
BBX 14 1 0 7
BITMAP
FFFC
ENDCHAR
STARTCHAR 2014
ENCODING 8212
SWIDTH 1008 0
DWIDTH 28 0
BBX 28 1 0 6
BITMAP
FFFFFFF0
ENDCHAR
STARTCHAR 2015
ENCODING 8213
SWIDTH 1008 0
DWIDTH 28 0
BBX 26 2 1 6
BITMAP
FFFFFFC0
FFFFFFC0
ENDCHAR
STARTCHAR 2017
ENCODING 8215
SWIDTH 504 0
DWIDTH 14 0
BBX 14 3 0 -6
BITMAP
FFFC
0000
FFFC
ENDCHAR
STARTCHAR 2018
ENCODING 8216
SWIDTH 324 0
DWIDTH 9 0
BBX 4 7 3 12
BITMAP
20
40
80
80
E0
F0
E0
ENDCHAR
STARTCHAR 2019
ENCODING 8217
SWIDTH 324 0
DWIDTH 9 0
BBX 4 7 3 12
BITMAP
C0
E0
F0
30
20
20
C0
ENDCHAR
STARTCHAR 201A
ENCODING 8218
SWIDTH 324 0
DWIDTH 9 0
BBX 4 8 3 -5
BITMAP
40
E0
F0
10
10
20
40
80
ENDCHAR
STARTCHAR 201B
ENCODING 8219
SWIDTH 324 0
DWIDTH 9 0
BBX 4 7 3 12
BITMAP
60
F0
E0
80
80
C0
20
ENDCHAR
STARTCHAR 201C
ENCODING 8220
SWIDTH 432 0
DWIDTH 12 0
BBX 11 7 1 12
BITMAP
0040
6080
8100
8100
E3C0
F1E0
71C0
ENDCHAR
STARTCHAR 201D
ENCODING 8221
SWIDTH 432 0
DWIDTH 12 0
BBX 11 7 1 12
BITMAP
6180
F3C0
F1E0
1040
1040
2040
4180
ENDCHAR
STARTCHAR 201E
ENCODING 8222
SWIDTH 432 0
DWIDTH 12 0
BBX 11 7 1 -4
BITMAP
6080
F3C0
F1E0
1060
1040
2040
4180
ENDCHAR
STARTCHAR 2020
ENCODING 8224
SWIDTH 504 0
DWIDTH 14 0
BBX 12 24 1 -6
BITMAP
0600
0E00
0E00
0600
0600
6460
FFF0
64E0
0400
0600
0E00
0600
0600
0600
0600
0600
0400
0400
0400
0400
0400
0400
0400
0400
ENDCHAR
STARTCHAR 2021
ENCODING 8225
SWIDTH 504 0
DWIDTH 14 0
BBX 10 25 2 -6
BITMAP
0C00
0C00
0C00
0C00
4880
FFC0
4880
0C00
0C00
0C00
0800
0800
0800
0800
0800
0C00
1C00
0C00
E9C0
FFC0
0800
0C00
0C00
0C00
0C00
ENDCHAR
STARTCHAR 2022
ENCODING 8226
SWIDTH 360 0
DWIDTH 10 0
BBX 6 6 2 7
BITMAP
F8
FC
FC
FC
FC
78
ENDCHAR
STARTCHAR 2026
ENCODING 8230
SWIDTH 1008 0
DWIDTH 28 0
BBX 22 3 3 0
BITMAP
400000
E0701C
E0701C
ENDCHAR
STARTCHAR 202A
ENCODING 8234
SWIDTH 756 0
DWIDTH 21 0
BBX 14 17 3 0
BITMAP
FFFC
8004
8004
8004
8004
8004
8004
8004
8004
8004
8004
8004
8004
8004
8004
8004
FFFC
ENDCHAR
STARTCHAR 202B
ENCODING 8235
SWIDTH 756 0
DWIDTH 21 0
BBX 14 17 3 0
BITMAP
FFFC
8004
8004
8004
8004
8004
8004
8004
8004
8004
8004
8004
8004
8004
8004
8004
FFFC
ENDCHAR
STARTCHAR 202C
ENCODING 8236
SWIDTH 756 0
DWIDTH 21 0
BBX 14 17 3 0
BITMAP
FFFC
8004
8004
8004
8004
8004
8004
8004
8004
8004
8004
8004
8004
8004
8004
8004
FFFC
ENDCHAR
STARTCHAR 202D
ENCODING 8237
SWIDTH 756 0
DWIDTH 21 0
BBX 14 17 3 0
BITMAP
FFFC
8004
8004
8004
8004
8004
8004
8004
8004
8004
8004
8004
8004
8004
8004
8004
FFFC
ENDCHAR
STARTCHAR 202E
ENCODING 8238
SWIDTH 756 0
DWIDTH 21 0
BBX 14 17 3 0
BITMAP
FFFC
8004
8004
8004
8004
8004
8004
8004
8004
8004
8004
8004
8004
8004
8004
8004
FFFC
ENDCHAR
STARTCHAR 2030
ENCODING 8240
SWIDTH 1008 0
DWIDTH 28 0
BBX 26 20 1 -1
BITMAP
38020000
66060000
C6040000
C7080000
C3180000
C3100000
C3200000
C6600000
66400000
3C800000
019E0F00
01331980
026330C0
0661B0C0
0461B0C0
0861B0C0
1861B0C0
10231980
20331980
600C0600
ENDCHAR
STARTCHAR 2032
ENCODING 8242
SWIDTH 216 0
DWIDTH 6 0
BBX 3 8 2 11
BITMAP
20
60
E0
E0
C0
C0
80
80
ENDCHAR
STARTCHAR 2033
ENCODING 8243
SWIDTH 432 0
DWIDTH 12 0
BBX 8 8 2 11
BITMAP
31
73
67
67
46
C6
C4
84
ENDCHAR
STARTCHAR 2039
ENCODING 8249
SWIDTH 324 0
DWIDTH 9 0
BBX 6 13 2 0
BITMAP
04
08
18
30
60
60
C0
E0
60
30
10
08
08
ENDCHAR
STARTCHAR 203A
ENCODING 8250
SWIDTH 324 0
DWIDTH 9 0
BBX 5 12 2 1
BITMAP
80
40
60
30
38
18
38
30
60
60
C0
80
ENDCHAR
STARTCHAR 203C
ENCODING 8252
SWIDTH 576 0
DWIDTH 16 0
BBX 10 19 3 0
BITMAP
4180
E1C0
E1C0
E1C0
E1C0
E180
6180
6180
6180
4180
4080
4080
4080
4080
0000
0000
4080
E1C0
E1C0
ENDCHAR
STARTCHAR 203E
ENCODING 8254
SWIDTH 324 0
DWIDTH 9 0
BBX 11 2 -1 15
BITMAP
FFE0
FFE0
ENDCHAR
STARTCHAR 2044
ENCODING 8260
SWIDTH 180 0
DWIDTH 5 0
BBX 13 20 -4 -1
BITMAP
0008
0010
0010
0020
0040
0040
0080
0180
0100
0200
0600
0400
0800
1800
1000
2000
6000
4000
8000
8000
ENDCHAR
STARTCHAR 206A
ENCODING 8298
SWIDTH 756 0
DWIDTH 21 0
BBX 14 17 3 0
BITMAP
FFFC
8004
8004
8004
8004
8004
8004
8004
8004
8004
8004
8004
8004
8004
8004
8004
FFFC
ENDCHAR
STARTCHAR 206B
ENCODING 8299
SWIDTH 756 0
DWIDTH 21 0
BBX 14 17 3 0
BITMAP
FFFC
8004
8004
8004
8004
8004
8004
8004
8004
8004
8004
8004
8004
8004
8004
8004
FFFC
ENDCHAR
STARTCHAR 206C
ENCODING 8300
SWIDTH 756 0
DWIDTH 21 0
BBX 14 17 3 0
BITMAP
FFFC
8004
8004
8004
8004
8004
8004
8004
8004
8004
8004
8004
8004
8004
8004
8004
FFFC
ENDCHAR
STARTCHAR 206D
ENCODING 8301
SWIDTH 756 0
DWIDTH 21 0
BBX 14 17 3 0
BITMAP
FFFC
8004
8004
8004
8004
8004
8004
8004
8004
8004
8004
8004
8004
8004
8004
8004
FFFC
ENDCHAR
STARTCHAR 206E
ENCODING 8302
SWIDTH 756 0
DWIDTH 21 0
BBX 14 17 3 0
BITMAP
FFFC
8004
8004
8004
8004
8004
8004
8004
8004
8004
8004
8004
8004
8004
8004
8004
FFFC
ENDCHAR
STARTCHAR 206F
ENCODING 8303
SWIDTH 756 0
DWIDTH 21 0
BBX 14 17 3 0
BITMAP
FFFC
8004
8004
8004
8004
8004
8004
8004
8004
8004
8004
8004
8004
8004
8004
8004
FFFC
ENDCHAR
STARTCHAR 207F
ENCODING 8319
SWIDTH 324 0
DWIDTH 9 0
BBX 8 7 0 8
BITMAP
FE
62
63
63
63
63
77
ENDCHAR
STARTCHAR 20A3
ENCODING 8355
SWIDTH 504 0
DWIDTH 14 0
BBX 13 18 0 0
BITMAP
7FF8
1C18
1C08
1C08
1C00
1C20
1C20
1C60
1FE0
1C20
1C20
1C20
1C00
FF80
1C00
1C00
1C00
FF00
ENDCHAR
STARTCHAR 20A4
ENCODING 8356
SWIDTH 504 0
DWIDTH 14 0
BBX 12 19 1 0
BITMAP
0380
0460
0860
1860
1800
1800
1800
FF80
FF80
1800
FF80
1800
1800
1800
1800
3810
FE10
9FE0
E3E0
ENDCHAR
STARTCHAR 20A7
ENCODING 8359
SWIDTH 972 0
DWIDTH 27 0
BBX 26 18 1 0
BITMAP
FFE00000
38700000
38390000
383B0000
383F0000
383F0E00
383F9180
38772080
38F72080
3FC73000
38073C00
38071F00
38070780
38070380
380741C0
38072080
38076180
FE03BF00
ENDCHAR
STARTCHAR 20AA
ENCODING 8362
SWIDTH 792 0
DWIDTH 22 0
BBX 18 14 2 0
BITMAP
FFE1C0
C031C0
C031C0
C031C0
C031C0
C631C0
C631C0
C631C0
C631C0
C601C0
C601C0
C60180
C60380
C7FF00
ENDCHAR
STARTCHAR 20AB
ENCODING 8363
SWIDTH 504 0
DWIDTH 14 0
BBX 10 15 2 4
BITMAP
0300
0100
0FC0
0100
1D00
2300
6100
4100
4100
4100
6100
6100
3F80
0000
FFC0
ENDCHAR
STARTCHAR 20AC
ENCODING 8364
SWIDTH 504 0
DWIDTH 14 0
BBX 13 19 0 0
BITMAP
01E0
0638
1C08
1808
3808
3000
7000
7000
FFF0
7000
FFE0
7000
7000
7000
3000
3800
1808
1C10
0FE0
ENDCHAR
STARTCHAR 2105
ENCODING 8453
SWIDTH 828 0
DWIDTH 23 0
BBX 21 20 1 -1
BITMAP
3C0080
460100
C60300
800200
800400
C00C00
C10800
C21000
7E3000
3C20C0
004330
008618
008418
010418
020C08
020608
040618
080610
1803A0
100040
ENDCHAR
STARTCHAR 2113
ENCODING 8467
SWIDTH 468 0
DWIDTH 13 0
BBX 11 19 1 0
BITMAP
0700
0C80
1880
1880
1880
1880
1900
1900
1A00
1C00
1800
1800
3800
5800
9800
1800
1820
1C40
0F80
ENDCHAR
STARTCHAR 2116
ENCODING 8470
SWIDTH 972 0
DWIDTH 27 0
BBX 26 19 0 0
BITMAP
00004000
1E01E000
0703E000
07820000
07820000
05C20000
05C20E00
04E23300
04E23180
04723180
047271C0
043A3080
043A3080
041E1900
040E0E00
040E0000
04060000
FC067FC0
F8027FC0
ENDCHAR
STARTCHAR 2122
ENCODING 8482
SWIDTH 972 0
DWIDTH 27 0
BBX 27 11 0 7
BITMAP
7FEF01C0
8E278380
0E058380
0E05C580
0E05C580
0E04C980
0E04E980
0E047180
0E047180
0E042180
1F0F27E0
ENDCHAR
STARTCHAR 2126
ENCODING 8486
SWIDTH 756 0
DWIDTH 21 0
BBX 19 19 1 0
BITMAP
01F000
0F1E00
1C0700
380380
7801C0
7001C0
7001E0
7001E0
F000E0
7001E0
7001E0
7001C0
3801C0
380380
0E0700
830C20
FF1FE0
FF1FE0
FF1FE0
ENDCHAR
STARTCHAR 212E
ENCODING 8494
SWIDTH 612 0
DWIDTH 17 0
BBX 15 15 1 0
BITMAP
0780
1870
3018
601C
601C
601C
E01C
FFFE
E000
E000
6000
6000
2008
3010
0FE0
ENDCHAR
STARTCHAR 2153
ENCODING 8531
SWIDTH 756 0
DWIDTH 21 0
BBX 18 20 2 -1
BITMAP
200200
E00400
600400
600800
601000
601000
602000
604000
604000
708000
018F00
011180
020180
060100
040780
0801C0
1800C0
100080
201980
600E00
ENDCHAR
STARTCHAR 2154
ENCODING 8532
SWIDTH 756 0
DWIDTH 21 0
BBX 20 20 0 -1
BITMAP
380080
6E0100
860100
060200
060400
040400
080800
101000
211000
FE2000
0063C0
004460
008060
018040
0101E0
020070
060030
040020
080660
180380
ENDCHAR
STARTCHAR 215B
ENCODING 8539
SWIDTH 756 0
DWIDTH 21 0
BBX 18 20 2 -1
BITMAP
200200
E00600
600400
600800
600800
601000
602000
602000
604000
F08000
008F80
0108C0
0308C0
020D80
040700
0C0D80
0808C0
1018C0
3008C0
200700
ENDCHAR
STARTCHAR 215C
ENCODING 8540
SWIDTH 756 0
DWIDTH 21 0
BBX 19 20 1 -1
BITMAP
300100
D80200
080600
080400
100800
3C1800
0C1000
042000
0C2000
F04000
0087C0
008460
010460
0206C0
020380
0406C0
0C0460
080C60
100460
300380
ENDCHAR
STARTCHAR 215D
ENCODING 8541
SWIDTH 756 0
DWIDTH 21 0
BBX 19 20 1 -1
BITMAP
3C0100
3C0200
400600
F00400
380800
0C1800
041000
042000
086000
F04000
0087C0
018460
010460
0206C0
020380
0406C0
080460
080C60
100460
300380
ENDCHAR
STARTCHAR 215E
ENCODING 8542
SWIDTH 756 0
DWIDTH 21 0
BBX 19 20 1 -1
BITMAP
7E0100
FC0200
840600
040400
080800
081800
101000
102000
106000
204000
0087C0
018460
010460
0206C0
020380
0406C0
080460
080C60
100460
300380
ENDCHAR
STARTCHAR 2190
ENCODING 8592
SWIDTH 1008 0
DWIDTH 28 0
BBX 26 10 1 2
BITMAP
06000000
0C000000
18000000
38000000
FFFFFFC0
7FFFFFC0
38000000
1C000000
0C000000
06000000
ENDCHAR
STARTCHAR 2191
ENCODING 8593
SWIDTH 504 0
DWIDTH 14 0
BBX 10 24 2 -6
BITMAP
0C00
0C00
1E00
3F00
6F80
CCC0
0C00
0C00
0C00
0C00
0C00
0C00
0C00
0C00
0C00
0C00
0C00
0C00
0C00
0C00
0C00
0C00
0C00
0C00
ENDCHAR
STARTCHAR 2192
ENCODING 8594
SWIDTH 1008 0
DWIDTH 28 0
BBX 25 10 1 2
BITMAP
00001000
00000800
00000E00
00000700
FFFFFF80
FFFFFF80
00000700
00000C00
00000800
00001000
ENDCHAR
STARTCHAR 2193
ENCODING 8595
SWIDTH 504 0
DWIDTH 14 0
BBX 10 24 2 -6
BITMAP
0C00
0C00
0C00
0C00
0C00
0C00
0C00
0C00
0C00
0C00
0C00
0C00
0C00
0C00
0C00
0C00
0C00
8C40
CDC0
7F00
3E00
1E00
0C00
0800
ENDCHAR
STARTCHAR 2194
ENCODING 8596
SWIDTH 1008 0
DWIDTH 28 0
BBX 25 10 1 2
BITMAP
06001800
0C000C00
18000E00
38000700
FFFFFF80
FFFFFF80
38000700
18000C00
0C000800
06001800
ENDCHAR
STARTCHAR 2195
ENCODING 8597
SWIDTH 504 0
DWIDTH 14 0
BBX 10 26 2 -6
BITMAP
0800
0C00
1E00
3F00
7F80
CDC0
8C40
0C00
0C00
0C00
0C00
0C00
0C00
0C00
0C00
0C00
0C00
0C00
0C00
8C40
EDC0
7F00
3E00
1E00
0C00
0800
ENDCHAR
STARTCHAR 21A8
ENCODING 8616
SWIDTH 504 0
DWIDTH 14 0
BBX 10 28 2 -8
BITMAP
0800
0C00
1E00
3F00
7F80
CDC0
8C40
0C00
0C00
0C00
0C00
0C00
0C00
0C00
0C00
0C00
0C00
0C00
0C00
8C40
EDC0
7F00
3E00
1E00
0C00
0800
0000
FFC0
ENDCHAR
STARTCHAR 2202
ENCODING 8706
SWIDTH 504 0
DWIDTH 14 0
BBX 12 19 1 0
BITMAP
07C0
0FE0
1030
2010
0010
0010
0010
0FD0
1830
3010
6010
6010
E010
C020
C020
C040
C040
6080
7E00
ENDCHAR
STARTCHAR 2206
ENCODING 8710
SWIDTH 612 0
DWIDTH 17 0
BBX 15 18 1 1
BITMAP
0100
0180
0380
03C0
07C0
04C0
04E0
0860
0870
1070
1038
2038
2018
601C
401C
C00E
800E
FFFE
ENDCHAR
STARTCHAR 220F
ENCODING 8719
SWIDTH 828 0
DWIDTH 23 0
BBX 21 25 1 -6
BITMAP
FFFFF8
3800E0
3800E0
3800E0
3800E0
3800E0
3800E0
3800E0
3800E0
3800E0
3800E0
3800E0
3800E0
3800E0
3800E0
3800E0
3800E0
3800E0
3800E0
3800E0
3800E0
3800E0
3800E0
3800E0
FF07F8
ENDCHAR
STARTCHAR 2211
ENCODING 8721
SWIDTH 720 0
DWIDTH 20 0
BBX 18 25 1 -6
BITMAP
FFFF80
700180
780080
380080
1C0000
0E0000
0F0000
070000
038000
01C000
01C000
00E000
00C000
008000
010000
030000
020000
040000
080000
180000
100040
200040
4003C0
FFFFC0
FFFF80
ENDCHAR
STARTCHAR 2212
ENCODING 8722
SWIDTH 576 0
DWIDTH 16 0
BBX 14 1 1 9
BITMAP
FFFC
ENDCHAR
STARTCHAR 2215
ENCODING 8725
SWIDTH 180 0
DWIDTH 5 0
BBX 13 20 -4 -1
BITMAP
0008
0010
0010
0020
0040
0040
0080
0180
0100
0200
0600
0400
0800
1800
1000
2000
6000
4000
8000
8000
ENDCHAR
STARTCHAR 2219
ENCODING 8729
SWIDTH 252 0
DWIDTH 7 0
BBX 3 3 2 8
BITMAP
40
E0
E0
ENDCHAR
STARTCHAR 221A
ENCODING 8730
SWIDTH 540 0
DWIDTH 15 0
BBX 14 25 1 -1
BITMAP
0004
0004
0004
0004
0008
0008
0008
0008
0008
0008
0010
3810
F810
0C10
0C10
0610
0610
0320
0320
01A0
01A0
00E0
00E0
0040
0040
ENDCHAR
STARTCHAR 221E
ENCODING 8734
SWIDTH 720 0
DWIDTH 20 0
BBX 18 12 1 1
BITMAP
001E00
3C7B00
466080
81C040
81C040
81C040
818040
81C040
834040
472080
3C1F00
000400
ENDCHAR
STARTCHAR 221F
ENCODING 8735
SWIDTH 972 0
DWIDTH 27 0
BBX 17 17 5 0
BITMAP
800000
800000
800000
800000
800000
800000
800000
800000
800000
800000
800000
800000
800000
800000
800000
800000
FFFF80
ENDCHAR
STARTCHAR 2229
ENCODING 8745
SWIDTH 720 0
DWIDTH 20 0
BBX 14 19 3 0
BITMAP
0780
1FE0
3030
6018
C00C
C00C
8004
8004
8004
8004
8004
8004
8004
8004
8004
8004
8004
8004
8004
ENDCHAR
STARTCHAR 222B
ENCODING 8747
SWIDTH 288 0
DWIDTH 8 0
BBX 8 28 0 -3
BITMAP
0E
0F
12
10
10
10
18
18
18
18
18
18
18
18
18
18
18
18
18
18
18
18
18
18
10
D0
F0
E0
ENDCHAR
STARTCHAR 2248
ENCODING 8776
SWIDTH 540 0
DWIDTH 15 0
BBX 15 10 0 4
BITMAP
3C02
4782
80FC
8010
0000
0000
0000
7E02
4384
807C
ENDCHAR
STARTCHAR 2260
ENCODING 8800
SWIDTH 540 0
DWIDTH 15 0
BBX 15 22 0 -4
BITMAP
0010
0010
0020
0020
0060
0040
0040
FFFE
0080
0080
0100
0100
0200
FFFE
0200
0400
0400
0800
0800
0800
1000
1000
ENDCHAR
STARTCHAR 2261
ENCODING 8801
SWIDTH 576 0
DWIDTH 16 0
BBX 14 10 1 4
BITMAP
FFFC
0000
0000
0000
FFFC
0000
0000
0000
0000
FFFC
ENDCHAR
STARTCHAR 2264
ENCODING 8804
SWIDTH 540 0
DWIDTH 15 0
BBX 15 19 0 -2
BITMAP
0002
000E
0078
01C0
0700
3800
E000
E000
1C00
0700
01E0
0038
000E
0002
0000
0000
0000
0000
FFFE
ENDCHAR
STARTCHAR 2265
ENCODING 8805
SWIDTH 540 0
DWIDTH 15 0
BBX 15 19 0 -2
BITMAP
8000
E000
1C00
0700
01C0
0038
000E
000E
0078
01C0
0700
3800
E000
8000
0000
0000
0000
0000
FFFE
ENDCHAR
STARTCHAR 2302
ENCODING 8962
SWIDTH 612 0
DWIDTH 17 0
BBX 13 15 2 1
BITMAP
0600
0D00
0880
10C0
2060
4030
C018
8018
8018
8018
8018
8018
8018
8018
FFF8
ENDCHAR
STARTCHAR 2310
ENCODING 8976
SWIDTH 576 0
DWIDTH 16 0
BBX 14 6 1 6
BITMAP
FFFC
8000
8000
8000
8000
8000
ENDCHAR
STARTCHAR 2320
ENCODING 8992
SWIDTH 612 0
DWIDTH 17 0
BBX 6 31 7 -7
BITMAP
08
3C
4C
40
40
C0
C0
C0
C0
C0
C0
C0
C0
C0
C0
C0
C0
C0
C0
C0
C0
C0
C0
C0
C0
C0
C0
C0
C0
C0
C0
ENDCHAR
STARTCHAR 2321
ENCODING 8993
SWIDTH 612 0
DWIDTH 17 0
BBX 5 31 4 -7
BITMAP
18
18
18
18
18
18
18
18
18
18
18
18
18
18
18
18
18
18
18
18
18
18
18
18
18
18
18
18
D8
F0
E0
ENDCHAR
STARTCHAR 2500
ENCODING 9472
SWIDTH 720 0
DWIDTH 20 0
BBX 20 3 0 7
BITMAP
FFFFF0
FFFFF0
FFFFF0
ENDCHAR
STARTCHAR 2502
ENCODING 9474
SWIDTH 720 0
DWIDTH 20 0
BBX 2 33 9 -8
BITMAP
C0
C0
C0
C0
C0
C0
C0
C0
C0
C0
C0
C0
C0
C0
C0
C0
C0
C0
C0
C0
C0
C0
C0
C0
C0
C0
C0
C0
C0
C0
C0
C0
C0
ENDCHAR
STARTCHAR 250C
ENCODING 9484
SWIDTH 720 0
DWIDTH 20 0
BBX 11 18 9 -8
BITMAP
FFE0
FFE0
FFE0
C000
C000
C000
C000
C000
C000
C000
C000
C000
C000
C000
C000
C000
C000
C000
ENDCHAR
STARTCHAR 2510
ENCODING 9488
SWIDTH 720 0
DWIDTH 20 0
BBX 11 18 0 -8
BITMAP
FFE0
FFE0
FFE0
0060
0060
0060
0060
0060
0060
0060
0060
0060
0060
0060
0060
0060
0060
0060
ENDCHAR
STARTCHAR 2514
ENCODING 9492
SWIDTH 720 0
DWIDTH 20 0
BBX 11 18 9 7
BITMAP
C000
C000
C000
C000
C000
C000
C000
C000
C000
C000
C000
C000
C000
C000
C000
FFE0
FFE0
FFE0
ENDCHAR
STARTCHAR 2518
ENCODING 9496
SWIDTH 720 0
DWIDTH 20 0
BBX 11 18 0 7
BITMAP
0060
0060
0060
0060
0060
0060
0060
0060
0060
0060
0060
0060
0060
0060
0060
FFE0
FFE0
FFE0
ENDCHAR
STARTCHAR 251C
ENCODING 9500
SWIDTH 720 0
DWIDTH 20 0
BBX 11 33 9 -8
BITMAP
C000
C000
C000
C000
C000
C000
C000
C000
C000
C000
C000
C000
C000
C000
C000
FFE0
FFE0
FFE0
C000
C000
C000
C000
C000
C000
C000
C000
C000
C000
C000
C000
C000
C000
C000
ENDCHAR
STARTCHAR 2524
ENCODING 9508
SWIDTH 720 0
DWIDTH 20 0
BBX 11 33 0 -8
BITMAP
0060
0060
0060
0060
0060
0060
0060
0060
0060
0060
0060
0060
0060
0060
0060
FFE0
FFE0
FFE0
0060
0060
0060
0060
0060
0060
0060
0060
0060
0060
0060
0060
0060
0060
0060
ENDCHAR
STARTCHAR 252C
ENCODING 9516
SWIDTH 720 0
DWIDTH 20 0
BBX 20 18 0 -8
BITMAP
FFFFF0
FFFFF0
FFFFF0
006000
006000
006000
006000
006000
006000
006000
006000
006000
006000
006000
006000
006000
006000
006000
ENDCHAR
STARTCHAR 2534
ENCODING 9524
SWIDTH 720 0
DWIDTH 20 0
BBX 20 18 0 7
BITMAP
006000
006000
006000
006000
006000
006000
006000
006000
006000
006000
006000
006000
006000
006000
006000
FFFFF0
FFFFF0
FFFFF0
ENDCHAR
STARTCHAR 253C
ENCODING 9532
SWIDTH 720 0
DWIDTH 20 0
BBX 20 33 0 -8
BITMAP
006000
006000
006000
006000
006000
006000
006000
006000
006000
006000
006000
006000
006000
006000
006000
FFFFF0
FFFFF0
FFFFF0
006000
006000
006000
006000
006000
006000
006000
006000
006000
006000
006000
006000
006000
006000
006000
ENDCHAR
STARTCHAR 2550
ENCODING 9552
SWIDTH 720 0
DWIDTH 20 0
BBX 20 7 0 5
BITMAP
FFFFF0
FFFFF0
000000
000000
000000
FFFFF0
FFFFF0
ENDCHAR
STARTCHAR 2551
ENCODING 9553
SWIDTH 720 0
DWIDTH 20 0
BBX 8 33 6 -8
BITMAP
C7
C7
C7
C7
C7
C7
C7
C7
C7
C7
C7
C7
C7
C7
C7
C7
C7
C7
C7
C7
C7
C7
C7
C7
C7
C7
C7
C7
C7
C7
C7
C7
C7
ENDCHAR
STARTCHAR 2552
ENCODING 9554
SWIDTH 720 0
DWIDTH 20 0
BBX 11 20 9 -8
BITMAP
FFE0
FFE0
C000
C000
C000
FFE0
FFE0
C000
C000
C000
C000
C000
C000
C000
C000
C000
C000
C000
C000
C000
ENDCHAR
STARTCHAR 2553
ENCODING 9555
SWIDTH 720 0
DWIDTH 20 0
BBX 14 18 6 -8
BITMAP
FFFC
FFFC
FFFC
C700
C700
C700
C700
C700
C700
C700
C700
C700
C700
C700
C700
C700
C700
C700
ENDCHAR
STARTCHAR 2554
ENCODING 9556
SWIDTH 720 0
DWIDTH 20 0
BBX 14 20 6 -8
BITMAP
FFFC
FFFC
C000
C000
C000
C7FC
C7FC
C700
C700
C700
C700
C700
C700
C700
C700
C700
C700
C700
C700
C700
ENDCHAR
STARTCHAR 2555
ENCODING 9557
SWIDTH 720 0
DWIDTH 20 0
BBX 11 20 0 -8
BITMAP
FFE0
FFE0
0060
0060
0060
FFE0
FFE0
0060
0060
0060
0060
0060
0060
0060
0060
0060
0060
0060
0060
0060
ENDCHAR
STARTCHAR 2556
ENCODING 9558
SWIDTH 720 0
DWIDTH 20 0
BBX 14 18 0 -8
BITMAP
FFFC
FFFC
FFFC
031C
031C
031C
031C
031C
031C
031C
031C
031C
031C
031C
031C
031C
031C
031C
ENDCHAR
STARTCHAR 2557
ENCODING 9559
SWIDTH 720 0
DWIDTH 20 0
BBX 14 20 0 -8
BITMAP
FFFC
FFFC
001C
001C
001C
FF1C
FF1C
031C
031C
031C
031C
031C
031C
031C
031C
031C
031C
031C
031C
031C
ENDCHAR
STARTCHAR 2558
ENCODING 9560
SWIDTH 720 0
DWIDTH 20 0
BBX 11 20 9 5
BITMAP
C000
C000
C000
C000
C000
C000
C000
C000
C000
C000
C000
C000
C000
FFE0
FFE0
C000
C000
C000
FFE0
FFE0
ENDCHAR
STARTCHAR 2559
ENCODING 9561
SWIDTH 720 0
DWIDTH 20 0
BBX 14 18 6 7
BITMAP
C700
C700
C700
C700
C700
C700
C700
C700
C700
C700
C700
C700
C700
C700
C700
FFFC
FFFC
FFFC
ENDCHAR
STARTCHAR 255A
ENCODING 9562
SWIDTH 720 0
DWIDTH 20 0
BBX 14 20 6 5
BITMAP
C700
C700
C700
C700
C700
C700
C700
C700
C700
C700
C700
C700
C700
C7FC
C7FC
C000
C000
C000
FFFC
FFFC
ENDCHAR
STARTCHAR 255B
ENCODING 9563
SWIDTH 720 0
DWIDTH 20 0
BBX 11 20 0 5
BITMAP
0060
0060
0060
0060
0060
0060
0060
0060
0060
0060
0060
0060
0060
FFE0
FFE0
0060
0060
0060
FFE0
FFE0
ENDCHAR
STARTCHAR 255C
ENCODING 9564
SWIDTH 720 0
DWIDTH 20 0
BBX 14 18 0 7
BITMAP
031C
031C
031C
031C
031C
031C
031C
031C
031C
031C
031C
031C
031C
031C
031C
FFFC
FFFC
FFFC
ENDCHAR
STARTCHAR 255D
ENCODING 9565
SWIDTH 720 0
DWIDTH 20 0
BBX 14 20 0 5
BITMAP
031C
031C
031C
031C
031C
031C
031C
031C
031C
031C
031C
031C
031C
FF1C
FF1C
001C
001C
001C
FFFC
FFFC
ENDCHAR
STARTCHAR 255E
ENCODING 9566
SWIDTH 720 0
DWIDTH 20 0
BBX 11 33 9 -8
BITMAP
C000
C000
C000
C000
C000
C000
C000
C000
C000
C000
C000
C000
C000
FFE0
FFE0
C000
C000
C000
FFE0
FFE0
C000
C000
C000
C000
C000
C000
C000
C000
C000
C000
C000
C000
C000
ENDCHAR
STARTCHAR 255F
ENCODING 9567
SWIDTH 720 0
DWIDTH 20 0
BBX 14 33 6 -8
BITMAP
C700
C700
C700
C700
C700
C700
C700
C700
C700
C700
C700
C700
C700
C700
C700
C7FC
C7FC
C7FC
C700
C700
C700
C700
C700
C700
C700
C700
C700
C700
C700
C700
C700
C700
C700
ENDCHAR
STARTCHAR 2560
ENCODING 9568
SWIDTH 720 0
DWIDTH 20 0
BBX 14 33 6 -8
BITMAP
C700
C700
C700
C700
C700
C700
C700
C700
C700
C700
C700
C700
C700
C7FC
C7FC
C000
C000
C000
C7FC
C7FC
C700
C700
C700
C700
C700
C700
C700
C700
C700
C700
C700
C700
C700
ENDCHAR
STARTCHAR 2561
ENCODING 9569
SWIDTH 720 0
DWIDTH 20 0
BBX 11 33 0 -8
BITMAP
0060
0060
0060
0060
0060
0060
0060
0060
0060
0060
0060
0060
0060
FFE0
FFE0
0060
0060
0060
FFE0
FFE0
0060
0060
0060
0060
0060
0060
0060
0060
0060
0060
0060
0060
0060
ENDCHAR
STARTCHAR 2562
ENCODING 9570
SWIDTH 720 0
DWIDTH 20 0
BBX 14 33 0 -8
BITMAP
031C
031C
031C
031C
031C
031C
031C
031C
031C
031C
031C
031C
031C
031C
031C
FF1C
FF1C
FF1C
031C
031C
031C
031C
031C
031C
031C
031C
031C
031C
031C
031C
031C
031C
031C
ENDCHAR
STARTCHAR 2563
ENCODING 9571
SWIDTH 720 0
DWIDTH 20 0
BBX 14 33 0 -8
BITMAP
031C
031C
031C
031C
031C
031C
031C
031C
031C
031C
031C
031C
031C
FF1C
FF1C
001C
001C
001C
FF1C
FF1C
031C
031C
031C
031C
031C
031C
031C
031C
031C
031C
031C
031C
031C
ENDCHAR
STARTCHAR 2564
ENCODING 9572
SWIDTH 720 0
DWIDTH 20 0
BBX 20 20 0 -8
BITMAP
FFFFF0
FFFFF0
000000
000000
000000
FFFFF0
FFFFF0
006000
006000
006000
006000
006000
006000
006000
006000
006000
006000
006000
006000
006000
ENDCHAR
STARTCHAR 2565
ENCODING 9573
SWIDTH 720 0
DWIDTH 20 0
BBX 20 18 0 -8
BITMAP
FFFFF0
FFFFF0
FFFFF0
031C00
031C00
031C00
031C00
031C00
031C00
031C00
031C00
031C00
031C00
031C00
031C00
031C00
031C00
031C00
ENDCHAR
STARTCHAR 2566
ENCODING 9574
SWIDTH 720 0
DWIDTH 20 0
BBX 20 20 0 -8
BITMAP
FFFFF0
FFFFF0
000000
000000
000000
FF1FF0
FF1FF0
031C00
031C00
031C00
031C00
031C00
031C00
031C00
031C00
031C00
031C00
031C00
031C00
031C00
ENDCHAR
STARTCHAR 2567
ENCODING 9575
SWIDTH 720 0
DWIDTH 20 0
BBX 20 20 0 5
BITMAP
006000
006000
006000
006000
006000
006000
006000
006000
006000
006000
006000
006000
006000
FFFFF0
FFFFF0
000000
000000
000000
FFFFF0
FFFFF0
ENDCHAR
STARTCHAR 2568
ENCODING 9576
SWIDTH 720 0
DWIDTH 20 0
BBX 20 18 0 7
BITMAP
031C00
031C00
031C00
031C00
031C00
031C00
031C00
031C00
031C00
031C00
031C00
031C00
031C00
031C00
031C00
FFFFF0
FFFFF0
FFFFF0
ENDCHAR
STARTCHAR 2569
ENCODING 9577
SWIDTH 720 0
DWIDTH 20 0
BBX 20 20 0 5
BITMAP
031C00
031C00
031C00
031C00
031C00
031C00
031C00
031C00
031C00
031C00
031C00
031C00
031C00
FF1FF0
FF1FF0
000000
000000
000000
FFFFF0
FFFFF0
ENDCHAR
STARTCHAR 256A
ENCODING 9578
SWIDTH 720 0
DWIDTH 20 0
BBX 20 33 0 -8
BITMAP
006000
006000
006000
006000
006000
006000
006000
006000
006000
006000
006000
006000
006000
FFFFF0
FFFFF0
006000
006000
006000
FFFFF0
FFFFF0
006000
006000
006000
006000
006000
006000
006000
006000
006000
006000
006000
006000
006000
ENDCHAR
STARTCHAR 256B
ENCODING 9579
SWIDTH 720 0
DWIDTH 20 0
BBX 20 33 0 -8
BITMAP
031C00
031C00
031C00
031C00
031C00
031C00
031C00
031C00
031C00
031C00
031C00
031C00
031C00
031C00
031C00
FFFFF0
FFFFF0
FFFFF0
031C00
031C00
031C00
031C00
031C00
031C00
031C00
031C00
031C00
031C00
031C00
031C00
031C00
031C00
031C00
ENDCHAR
STARTCHAR 256C
ENCODING 9580
SWIDTH 720 0
DWIDTH 20 0
BBX 20 33 0 -8
BITMAP
031C00
031C00
031C00
031C00
031C00
031C00
031C00
031C00
031C00
031C00
031C00
031C00
031C00
FF1FF0
FF1FF0
000000
000000
000000
FF1FF0
FF1FF0
031C00
031C00
031C00
031C00
031C00
031C00
031C00
031C00
031C00
031C00
031C00
031C00
031C00
ENDCHAR
STARTCHAR 2580
ENCODING 9600
SWIDTH 720 0
DWIDTH 20 0
BBX 20 17 0 8
BITMAP
FFFFF0
FFFFF0
FFFFF0
FFFFF0
FFFFF0
FFFFF0
FFFFF0
FFFFF0
FFFFF0
FFFFF0
FFFFF0
FFFFF0
FFFFF0
FFFFF0
FFFFF0
FFFFF0
FFFFF0
ENDCHAR
STARTCHAR 2584
ENCODING 9604
SWIDTH 720 0
DWIDTH 20 0
BBX 20 16 0 -8
BITMAP
FFFFF0
FFFFF0
FFFFF0
FFFFF0
FFFFF0
FFFFF0
FFFFF0
FFFFF0
FFFFF0
FFFFF0
FFFFF0
FFFFF0
FFFFF0
FFFFF0
FFFFF0
FFFFF0
ENDCHAR
STARTCHAR 2588
ENCODING 9608
SWIDTH 720 0
DWIDTH 20 0
BBX 20 33 0 -8
BITMAP
FFFFF0
FFFFF0
FFFFF0
FFFFF0
FFFFF0
FFFFF0
FFFFF0
FFFFF0
FFFFF0
FFFFF0
FFFFF0
FFFFF0
FFFFF0
FFFFF0
FFFFF0
FFFFF0
FFFFF0
FFFFF0
FFFFF0
FFFFF0
FFFFF0
FFFFF0
FFFFF0
FFFFF0
FFFFF0
FFFFF0
FFFFF0
FFFFF0
FFFFF0
FFFFF0
FFFFF0
FFFFF0
FFFFF0
ENDCHAR
STARTCHAR 258C
ENCODING 9612
SWIDTH 720 0
DWIDTH 20 0
BBX 10 33 0 -8
BITMAP
FFC0
FFC0
FFC0
FFC0
FFC0
FFC0
FFC0
FFC0
FFC0
FFC0
FFC0
FFC0
FFC0
FFC0
FFC0
FFC0
FFC0
FFC0
FFC0
FFC0
FFC0
FFC0
FFC0
FFC0
FFC0
FFC0
FFC0
FFC0
FFC0
FFC0
FFC0
FFC0
FFC0
ENDCHAR
STARTCHAR 2590
ENCODING 9616
SWIDTH 720 0
DWIDTH 20 0
BBX 10 33 10 -8
BITMAP
FFC0
FFC0
FFC0
FFC0
FFC0
FFC0
FFC0
FFC0
FFC0
FFC0
FFC0
FFC0
FFC0
FFC0
FFC0
FFC0
FFC0
FFC0
FFC0
FFC0
FFC0
FFC0
FFC0
FFC0
FFC0
FFC0
FFC0
FFC0
FFC0
FFC0
FFC0
FFC0
FFC0
ENDCHAR
STARTCHAR 2591
ENCODING 9617
SWIDTH 720 0
DWIDTH 20 0
BBX 19 32 1 -7
BITMAP
C18300
000000
000000
081060
081060
000000
C18300
C18300
000000
000000
081060
081060
000000
C18300
C18300
000000
000000
081060
000000
000000
C18300
C18300
000000
081060
081060
000000
000000
C18300
000000
000000
081060
081060
ENDCHAR
STARTCHAR 2592
ENCODING 9618
SWIDTH 720 0
DWIDTH 20 0
BBX 20 32 0 -7
BITMAP
64C9B0
000000
000000
9B3640
9B3640
000000
64C9B0
64C9B0
000000
000000
9B3640
9B3640
000000
64C9B0
64C9B0
000000
000000
9B3640
000000
000000
64C9B0
64C9B0
000000
9B3640
9B3640
000000
000000
64C9B0
000000
000000
9B3640
9B3640
ENDCHAR
STARTCHAR 2593
ENCODING 9619
SWIDTH 720 0
DWIDTH 20 0
BBX 20 34 0 -9
BITMAP
26CD90
FFFFF0
FFFFF0
D93660
D93660
FFFFF0
26CD90
26CD90
FFFFF0
FFFFF0
D93660
D93660
FFFFF0
26CD90
26CD90
FFFFF0
FFFFF0
D93660
FFFFF0
FFFFF0
26CD90
26CD90
FFFFF0
D93660
D93660
FFFFF0
FFFFF0
26CD90
FFFFF0
FFFFF0
D93660
D93660
FFFFF0
FFFFF0
ENDCHAR
STARTCHAR 25A0
ENCODING 9632
SWIDTH 612 0
DWIDTH 17 0
BBX 13 13 2 0
BITMAP
FFF8
FFF8
FFF8
FFF8
FFF8
FFF8
FFF8
FFF8
FFF8
FFF8
FFF8
FFF8
FFF8
ENDCHAR
STARTCHAR 25A1
ENCODING 9633
SWIDTH 612 0
DWIDTH 17 0
BBX 13 13 2 0
BITMAP
FFF8
8008
8008
8008
8008
8008
8008
8008
8008
8008
8008
8008
FFF8
ENDCHAR
STARTCHAR 25AA
ENCODING 9642
SWIDTH 360 0
DWIDTH 10 0
BBX 6 6 2 6
BITMAP
FC
FC
FC
FC
FC
FC
ENDCHAR
STARTCHAR 25AB
ENCODING 9643
SWIDTH 360 0
DWIDTH 10 0
BBX 6 6 2 6
BITMAP
FC
84
84
84
84
FC
ENDCHAR
STARTCHAR 25AC
ENCODING 9644
SWIDTH 1008 0
DWIDTH 28 0
BBX 28 6 0 4
BITMAP
FFFFFFF0
FFFFFFF0
FFFFFFF0
FFFFFFF0
FFFFFFF0
FFFFFFF0
ENDCHAR
STARTCHAR 25B2
ENCODING 9650
SWIDTH 1008 0
DWIDTH 28 0
BBX 19 19 4 0
BITMAP
004000
006000
00E000
00F000
01F000
01F800
03F800
03FC00
07FC00
07FE00
0FFE00
0FFF00
1FFF00
1FFF80
3FFF80
3FFFC0
7FFFC0
7FFFE0
FFFFE0
ENDCHAR
STARTCHAR 25BA
ENCODING 9658
SWIDTH 1008 0
DWIDTH 28 0
BBX 19 19 4 0
BITMAP
800000
E00000
F80000
FE0000
FF8000
FFE000
FFF800
FFFE00
FFFF80
FFFFE0
FFFFC0
FFFF00
FFFC00
FFF000
FFC000
FF0000
FC0000
F00000
C00000
ENDCHAR
STARTCHAR 25BC
ENCODING 9660
SWIDTH 1008 0
DWIDTH 28 0
BBX 19 19 4 0
BITMAP
FFFFE0
7FFFE0
7FFFC0
3FFFC0
3FFF80
1FFF80
1FFF00
0FFF00
0FFE00
07FE00
07FC00
03FC00
03F800
01F800
01F000
00F000
00E000
006000
004000
ENDCHAR
STARTCHAR 25C4
ENCODING 9668
SWIDTH 1008 0
DWIDTH 28 0
BBX 20 19 4 0
BITMAP
000030
0000F0
0003F0
000FF0
003FF0
00FFF0
03FFF0
0FFFF0
3FFFF0
FFFFF0
3FFFF0
0FFFF0
03FFF0
00FFF0
003FF0
000FF0
0003F0
0000F0
000030
ENDCHAR
STARTCHAR 25CA
ENCODING 9674
SWIDTH 504 0
DWIDTH 14 0
BBX 12 19 1 0
BITMAP
0600
0B00
1900
1180
3080
20C0
6040
4060
C030
8010
C020
4060
6040
20C0
3080
1180
0B00
0E00
0600
ENDCHAR
STARTCHAR 25CB
ENCODING 9675
SWIDTH 612 0
DWIDTH 17 0
BBX 12 12 2 2
BITMAP
0700
18C0
2020
4010
4010
8010
8010
4010
4010
6020
3060
0F80
ENDCHAR
STARTCHAR 25CF
ENCODING 9679
SWIDTH 612 0
DWIDTH 17 0
BBX 12 12 2 2
BITMAP
0700
1FC0
3FE0
7FF0
7FF0
FFF0
FFF0
7FF0
7FF0
7FE0
3FE0
0F80
ENDCHAR
STARTCHAR 25D8
ENCODING 9688
SWIDTH 612 0
DWIDTH 17 0
BBX 13 13 2 0
BITMAP
FFF8
FFF8
FFF8
FFF8
F0F8
F078
F078
F078
F8F8
FFF8
FFF8
FFF8
FFF8
ENDCHAR
STARTCHAR 25D9
ENCODING 9689
SWIDTH 612 0
DWIDTH 17 0
BBX 15 16 1 0
BITMAP
FFFE
FFFE
FC7E
F39E
EFEE
DFF6
DFF6
9FF6
BFF6
DFF6
DFF6
CFEE
E7CE
F83E
FFFE
FFFE
ENDCHAR
STARTCHAR 25E6
ENCODING 9702
SWIDTH 360 0
DWIDTH 10 0
BBX 6 6 2 7
BITMAP
F8
84
84
84
84
78
ENDCHAR
STARTCHAR 263A
ENCODING 9786
SWIDTH 1008 0
DWIDTH 28 0
BBX 17 18 6 -2
BITMAP
01C000
0FF800
380C00
200600
400300
C00100
8C1180
8C3980
800080
800080
800180
801100
C43100
43E300
200600
380C00
0FF000
018000
ENDCHAR
STARTCHAR 263B
ENCODING 9787
SWIDTH 1044 0
DWIDTH 29 0
BBX 17 18 6 -2
BITMAP
01C000
0FF800
1FFC00
3FFE00
7FFF00
7FFF80
F3E780
F3E780
FFFF80
FFFF80
FFFF80
FBFF80
7BEF80
7C1F00
3FFE00
1FFC00
0FF800
008000
ENDCHAR
STARTCHAR 263C
ENCODING 9788
SWIDTH 900 0
DWIDTH 25 0
BBX 25 25 0 -3
BITMAP
00080000
00080000
00080000
10080600
08080C00
047F9800
0380F000
01002000
02003000
04001000
04001800
04000800
FC000F80
04000800
04001000
04001000
02003000
01002000
0380F000
067F9000
0C080800
10080400
00080000
00080000
00080000
ENDCHAR
STARTCHAR 2640
ENCODING 9792
SWIDTH 756 0
DWIDTH 21 0
BBX 15 26 3 -6
BITMAP
0FE0
1010
2008
4004
8004
8004
8002
8004
8004
4004
4008
2008
1830
07C0
0100
0100
0100
0100
0100
7FFC
0100
0100
0100
0100
0100
0100
ENDCHAR
STARTCHAR 2642
ENCODING 9794
SWIDTH 756 0
DWIDTH 21 0
BBX 17 26 2 -4
BITMAP
000200
001E00
006500
018500
020900
000900
001080
001080
002080
002000
004000
074000
18E000
201000
400800
800800
800800
800400
000400
800400
800800
800800
401000
203000
18C000
070000
ENDCHAR
STARTCHAR 2660
ENCODING 9824
SWIDTH 540 0
DWIDTH 15 0
BBX 13 16 1 1
BITMAP
0200
0200
0700
0F80
1FC0
3FE0
7FF0
FFF8
FFF8
FFF8
FFF8
7AF0
0200
0600
0700
7FF0
ENDCHAR
STARTCHAR 2663
ENCODING 9827
SWIDTH 648 0
DWIDTH 18 0
BBX 16 17 1 0
BITMAP
0180
07E0
07F0
0FF0
0FF0
07E0
7FFE
FFFF
FFFF
FFFF
FFFF
FF7F
7CBE
0180
01C0
03E0
1FFC
ENDCHAR
STARTCHAR 2665
ENCODING 9829
SWIDTH 612 0
DWIDTH 17 0
BBX 15 17 1 0
BITMAP
3030
7CFC
FEFC
FFFE
FFFE
FFFC
7FFC
7FF8
3FF8
1FF0
1FE0
0FC0
07C0
0380
0300
0100
0100
ENDCHAR
STARTCHAR 2666
ENCODING 9830
SWIDTH 504 0
DWIDTH 14 0
BBX 12 16 1 1
BITMAP
0600
0700
0F00
1F80
1FC0
3FC0
7FE0
FFF0
FFF0
7FE0
3FC0
1F80
0F80
0F00
0600
0200
ENDCHAR
STARTCHAR 266A
ENCODING 9834
SWIDTH 504 0
DWIDTH 14 0
BBX 12 18 1 -1
BITMAP
03E0
03F0
03F0
0230
0210
0210
0200
0200
0200
0200
0200
0200
7A00
FE00
FE00
FE00
FE00
FC00
ENDCHAR
STARTCHAR 266B
ENCODING 9835
SWIDTH 756 0
DWIDTH 21 0
BBX 17 22 1 -1
BITMAP
000380
003F80
01FF80
03FE80
03F080
038080
030080
030080
030080
030080
030080
030080
030080
031F80
033F80
1B3F80
7F3F80
FF3F00
FF1E00
FE0000
7E0000
380000
ENDCHAR
STARTCHAR E801
ENCODING 59393
SWIDTH 288 0
DWIDTH 8 0
BBX 7 18 -1 1
BITMAP
C0
80
00
30
3E
3E
1E
02
02
02
02
02
02
02
02
02
02
02
ENDCHAR
STARTCHAR E802
ENCODING 59394
SWIDTH 468 0
DWIDTH 13 0
BBX 10 20 1 -5
BITMAP
C000
FFC0
FFC0
7FC0
0080
0080
0080
0080
1880
1880
0080
1880
18C0
00C0
00C0
00C0
00C0
00C0
00C0
0080
ENDCHAR
STARTCHAR E803
ENCODING 59395
SWIDTH 468 0
DWIDTH 13 0
BBX 10 20 1 -5
BITMAP
C000
FFC0
FFC0
7FC0
0080
0080
0080
0080
0080
7E80
0880
1880
18C0
00C0
00C0
00C0
00C0
00C0
00C0
0080
ENDCHAR
STARTCHAR E804
ENCODING 59396
SWIDTH 432 0
DWIDTH 12 0
BBX 13 20 -2 1
BITMAP
3800
1800
C800
9000
1000
1800
1FF0
1FF8
07F8
0018
0008
0008
0018
0010
0020
0040
0080
0180
0180
0180
ENDCHAR
STARTCHAR E805
ENCODING 59397
SWIDTH 432 0
DWIDTH 12 0
BBX 13 20 -2 1
BITMAP
3800
1800
C800
9000
1000
1800
1FF0
1FF8
07F8
0018
0008
0008
0318
0310
0020
0040
0080
0180
0180
0180
ENDCHAR
STARTCHAR E818
ENCODING 59416
SWIDTH 216 0
DWIDTH 6 0
BBX 5 8 1 17
BITMAP
30
C0
30
C0
08
A8
B8
C0
ENDCHAR
STARTCHAR E83A
ENCODING 59450
SWIDTH 648 0
DWIDTH 18 0
BBX 19 2 -1 4
BITMAP
FFFFE0
FFFFE0
ENDCHAR
STARTCHAR F001
ENCODING 61441
SWIDTH 540 0
DWIDTH 15 0
BBX 15 19 0 0
BITMAP
07E0
0C70
0830
1800
1800
1800
1808
FFF8
1838
1838
1838
1838
1838
1838
1838
1838
1838
1838
7E7E
ENDCHAR
STARTCHAR F002
ENCODING 61442
SWIDTH 540 0
DWIDTH 15 0
BBX 15 19 0 0
BITMAP
07D8
08F8
1878
1818
1818
1818
1818
FFF8
1818
1818
1818
1818
1818
1818
1818
1818
1818
1838
7E7E
ENDCHAR
STARTCHAR F004
ENCODING 61444
SWIDTH 324 0
DWIDTH 9 0
BBX 3 5 3 -6
BITMAP
C0
E0
A0
20
C0
ENDCHAR
STARTCHAR F005
ENCODING 61445
SWIDTH 324 0
DWIDTH 9 0
BBX 4 4 3 -5
BITMAP
E0
30
30
E0
ENDCHAR
STARTCHAR F006
ENCODING 61446
SWIDTH 0 0
DWIDTH 0 0
BBX 3 2 -6 23
BITMAP
60
C0
ENDCHAR
STARTCHAR F007
ENCODING 61447
SWIDTH 0 0
DWIDTH 0 0
BBX 4 2 -10 23
BITMAP
70
80
ENDCHAR
STARTCHAR F008
ENCODING 61448
SWIDTH 0 0
DWIDTH 0 0
BBX 4 4 -5 14
BITMAP
70
60
C0
80
ENDCHAR
STARTCHAR F009
ENCODING 61449
SWIDTH 0 0
DWIDTH 0 0
BBX 4 4 -7 20
BITMAP
70
E0
C0
80
ENDCHAR
STARTCHAR F00A
ENCODING 61450
SWIDTH 756 0
DWIDTH 21 0
BBX 14 17 3 0
BITMAP
FFFC
8004
8004
8004
8004
8004
8004
8004
8004
8004
8004
8004
8004
8004
8004
8004
FFFC
ENDCHAR
STARTCHAR F00B
ENCODING 61451
SWIDTH 756 0
DWIDTH 21 0
BBX 14 17 3 0
BITMAP
FFFC
8004
8004
8004
8004
8004
8004
8004
8004
8004
8004
8004
8004
8004
8004
8004
FFFC
ENDCHAR
STARTCHAR F00C
ENCODING 61452
SWIDTH 756 0
DWIDTH 21 0
BBX 14 17 3 0
BITMAP
FFFC
8004
8004
8004
8004
8004
8004
8004
8004
8004
8004
8004
8004
8004
8004
8004
FFFC
ENDCHAR
STARTCHAR F00D
ENCODING 61453
SWIDTH 756 0
DWIDTH 21 0
BBX 14 17 3 0
BITMAP
FFFC
8004
8004
8004
8004
8004
8004
8004
8004
8004
8004
8004
8004
8004
8004
8004
FFFC
ENDCHAR
STARTCHAR F00E
ENCODING 61454
SWIDTH 756 0
DWIDTH 21 0
BBX 14 17 3 0
BITMAP
FFFC
8004
8004
8004
8004
8004
8004
8004
8004
8004
8004
8004
8004
8004
8004
8004
FFFC
ENDCHAR
STARTCHAR F00F
ENCODING 61455
SWIDTH 0 0
DWIDTH 0 0
BBX 5 5 -9 14
BITMAP
E0
70
30
10
08
ENDCHAR
STARTCHAR F010
ENCODING 61456
SWIDTH 0 0
DWIDTH 0 0
BBX 3 2 -6 22
BITMAP
E0
20
ENDCHAR
STARTCHAR F011
ENCODING 61457
SWIDTH 0 0
DWIDTH 0 0
BBX 2 2 -11 22
BITMAP
C0
40
ENDCHAR
STARTCHAR F012
ENCODING 61458
SWIDTH 0 0
DWIDTH 0 0
BBX 4 4 -6 14
BITMAP
60
90
10
20
ENDCHAR
STARTCHAR F013
ENCODING 61459
SWIDTH 0 0
DWIDTH 0 0
BBX 4 4 -8 20
BITMAP
60
90
10
20
ENDCHAR
STARTCHAR F014
ENCODING 61460
SWIDTH 0 0
DWIDTH 0 0
BBX 4 4 -8 14
BITMAP
60
90
10
20
ENDCHAR
STARTCHAR F015
ENCODING 61461
SWIDTH 0 0
DWIDTH 0 0
BBX 8 2 -14 23
BITMAP
70
9F
ENDCHAR
STARTCHAR F016
ENCODING 61462
SWIDTH 0 0
DWIDTH 0 0
BBX 8 3 -14 22
BITMAP
F9
BF
0E
ENDCHAR
STARTCHAR F017
ENCODING 61463
SWIDTH 0 0
DWIDTH 0 0
BBX 8 3 -14 22
BITMAP
F9
BF
0E
ENDCHAR
STARTCHAR F018
ENCODING 61464
SWIDTH 0 0
DWIDTH 0 0
BBX 9 4 -16 21
BITMAP
0080
7880
9F00
8700
ENDCHAR
STARTCHAR F019
ENCODING 61465
SWIDTH 0 0
DWIDTH 0 0
BBX 8 3 -10 15
BITMAP
F1
BF
8E
ENDCHAR
STARTCHAR F01A
ENCODING 61466
SWIDTH 0 0
DWIDTH 0 0
BBX 9 3 -12 15
BITMAP
7880
BF00
8F00
ENDCHAR
STARTCHAR F01B
ENCODING 61467
SWIDTH 0 0
DWIDTH 0 0
BBX 9 3 -13 15
BITMAP
7880
9F00
8F00
ENDCHAR
STARTCHAR F01C
ENCODING 61468
SWIDTH 0 0
DWIDTH 0 0
BBX 9 3 -9 22
BITMAP
7C80
9F80
8700
ENDCHAR
STARTCHAR F01D
ENCODING 61469
SWIDTH 0 0
DWIDTH 0 0
BBX 8 3 -8 15
BITMAP
F1
BF
8E
ENDCHAR
STARTCHAR F01E
ENCODING 61470
SWIDTH 0 0
DWIDTH 0 0
BBX 3 3 -10 -5
BITMAP
E0
E0
40
ENDCHAR
STARTCHAR F01F
ENCODING 61471
SWIDTH 0 0
DWIDTH 0 0
BBX 3 2 -11 -5
BITMAP
C0
E0
ENDCHAR
STARTCHAR F020
ENCODING 61472
SWIDTH 0 0
DWIDTH 0 0
BBX 3 2 -12 -5
BITMAP
60
E0
ENDCHAR
STARTCHAR F021
ENCODING 61473
SWIDTH 0 0
DWIDTH 0 0
BBX 2 2 -11 -5
BITMAP
C0
C0
ENDCHAR
STARTCHAR F022
ENCODING 61474
SWIDTH 0 0
DWIDTH 0 0
BBX 3 3 -13 -5
BITMAP
E0
E0
40
ENDCHAR
STARTCHAR F023
ENCODING 61475
SWIDTH 0 0
DWIDTH 0 0
BBX 3 3 -8 -5
BITMAP
E0
E0
40
ENDCHAR
STARTCHAR F024
ENCODING 61476
SWIDTH 0 0
DWIDTH 0 0
BBX 3 2 -7 -5
BITMAP
E0
E0
ENDCHAR
STARTCHAR F025
ENCODING 61477
SWIDTH 0 0
DWIDTH 0 0
BBX 3 2 -9 -5
BITMAP
60
E0
ENDCHAR
STARTCHAR F026
ENCODING 61478
SWIDTH 0 0
DWIDTH 0 0
BBX 3 2 -9 -5
BITMAP
C0
E0
ENDCHAR
STARTCHAR F027
ENCODING 61479
SWIDTH 0 0
DWIDTH 0 0
BBX 3 2 -8 -5
BITMAP
E0
E0
ENDCHAR
STARTCHAR F028
ENCODING 61480
SWIDTH 0 0
DWIDTH 0 0
BBX 3 2 -9 -5
BITMAP
C0
E0
ENDCHAR
STARTCHAR F029
ENCODING 61481
SWIDTH 0 0
DWIDTH 0 0
BBX 3 3 -6 -5
BITMAP
E0
E0
40
ENDCHAR
STARTCHAR F02A
ENCODING 61482
SWIDTH 0 0
DWIDTH 0 0
BBX 3 2 -6 -5
BITMAP
60
E0
ENDCHAR
STARTCHAR F02B
ENCODING 61483
SWIDTH 0 0
DWIDTH 0 0
BBX 3 3 -11 -5
BITMAP
E0
E0
40
ENDCHAR
STARTCHAR F02C
ENCODING 61484
SWIDTH 0 0
DWIDTH 0 0
BBX 3 3 -5 -5
BITMAP
E0
E0
40
ENDCHAR
STARTCHAR F02D
ENCODING 61485
SWIDTH 0 0
DWIDTH 0 0
BBX 8 2 -12 23
BITMAP
71
BE
ENDCHAR
STARTCHAR F02E
ENCODING 61486
SWIDTH 0 0
DWIDTH 0 0
BBX 9 3 -13 22
BITMAP
7C80
9F80
8700
ENDCHAR
STARTCHAR F02F
ENCODING 61487
SWIDTH 0 0
DWIDTH 0 0
BBX 8 2 -14 23
BITMAP
70
9F
ENDCHAR
STARTCHAR F030
ENCODING 61488
SWIDTH 0 0
DWIDTH 0 0
BBX 8 3 -14 22
BITMAP
F9
BF
0E
ENDCHAR
STARTCHAR F031
ENCODING 61489
SWIDTH 288 0
DWIDTH 8 0
BBX 6 13 1 0
BITMAP
10
F0
30
30
30
30
30
30
30
30
30
30
FC
ENDCHAR
STARTCHAR FB01
ENCODING 64257
SWIDTH 540 0
DWIDTH 15 0
BBX 15 19 0 0
BITMAP
07E0
0C70
0830
1800
1800
1800
1808
FFF8
1838
1838
1838
1838
1838
1838
1838
1838
1838
1838
7E7E
ENDCHAR
STARTCHAR FB02
ENCODING 64258
SWIDTH 540 0
DWIDTH 15 0
BBX 15 19 0 0
BITMAP
07D8
08F8
1878
1818
1818
1818
1818
FFF8
1818
1818
1818
1818
1818
1818
1818
1818
1818
1838
7E7E
ENDCHAR
STARTCHAR FB1D
ENCODING 64285
SWIDTH 252 0
DWIDTH 7 0
BBX 5 13 1 2
BITMAP
C0
F8
F8
78
08
08
08
10
00
00
00
70
20
ENDCHAR
STARTCHAR FB1E
ENCODING 64286
SWIDTH 0 0
DWIDTH 0 0
BBX 8 3 -4 17
BITMAP
81
7E
3E
ENDCHAR
STARTCHAR FB1F
ENCODING 64287
SWIDTH 540 0
DWIDTH 15 0
BBX 13 11 1 4
BITMAP
C080
F9F0
F9F8
7878
0818
0808
0810
1010
0020
0000
1FF0
ENDCHAR
STARTCHAR FB20
ENCODING 64288
SWIDTH 468 0
DWIDTH 13 0
BBX 11 15 1 0
BITMAP
C100
F3E0
F1E0
70C0
2040
2040
2080
3080
1880
0900
0900
0900
FF00
FF00
FE00
ENDCHAR
STARTCHAR FB2A
ENCODING 64298
SWIDTH 612 0
DWIDTH 17 0
BBX 15 18 1 1
BITMAP
000C
0004
0000
C218
F39E
F3DE
718E
4106
4204
4208
4208
4210
4410
6420
2820
3FE0
3FC0
3FC0
ENDCHAR
STARTCHAR FB2B
ENCODING 64299
SWIDTH 612 0
DWIDTH 17 0
BBX 15 18 1 1
BITMAP
6000
4000
0000
C218
F39E
F3DE
718E
4106
4204
4208
4208
4210
4410
6420
2820
3FE0
3FC0
3FC0
ENDCHAR
ENDFONT
